<svg width="437" height="424" viewBox="0 0 437 424" fill="none" xmlns="http://www.w3.org/2000/svg">
<path fill-rule="evenodd" clip-rule="evenodd" d="M216.162 0.338155C261.042 -2.32182 305.975 10.7881 342.542 36.9434C379.291 63.2285 403.666 102.472 418.58 145.121C433.771 188.562 446.467 237.646 427.368 279.516C408.858 320.096 359.005 331.655 322.081 356.676C286.785 380.595 258.617 418.705 216.162 422.642C172.179 426.721 128.728 406.19 94.9388 377.74C62.6402 350.546 44.4261 310.939 34.6955 269.853C25.5784 231.358 30.6614 192.203 42.0221 154.309C53.631 115.587 69.9323 78.0827 100.217 51.3058C132.638 22.6397 172.961 2.89863 216.162 0.338155Z" fill="#E40570"/>
<g filter="url(#filter0_b_352:726)">
<path fill-rule="evenodd" clip-rule="evenodd" d="M186.162 0.338155C231.042 -2.32182 275.975 10.7881 312.542 36.9434C349.291 63.2285 373.666 102.472 388.58 145.121C403.771 188.562 416.467 237.646 397.368 279.516C378.858 320.096 329.005 331.655 292.081 356.676C256.785 380.595 228.617 418.705 186.162 422.642C142.179 426.721 98.7284 406.19 64.9388 377.74C32.6402 350.546 14.4261 310.939 4.6955 269.853C-4.42156 231.358 0.661416 192.203 12.0221 154.309C23.631 115.587 39.9323 78.0827 70.2168 51.3058C102.638 22.6397 142.961 2.89863 186.162 0.338155Z" fill="black" fill-opacity="0.6"/>
</g>
<defs>
<filter id="filter0_b_352:726" x="-40" y="-40" width="487" height="503.159" filterUnits="userSpaceOnUse" color-interpolation-filters="sRGB">
<feFlood flood-opacity="0" result="BackgroundImageFix"/>
<feGaussianBlur in="BackgroundImage" stdDeviation="20"/>
<feComposite in2="SourceAlpha" operator="in" result="effect1_backgroundBlur_352:726"/>
<feBlend mode="normal" in="SourceGraphic" in2="effect1_backgroundBlur_352:726" result="shape"/>
</filter>
</defs>
</svg>
