<svg width="42" height="42" viewBox="0 0 42 42" fill="none" xmlns="http://www.w3.org/2000/svg">
<path fill-rule="evenodd" clip-rule="evenodd" d="M10.5 39L14.5 28H27.5L29.2834 32.7556C30.0152 34.7071 31.8808 36 33.965 36H36.5L29.1679 16.8238L24.4517 19.01L26 23.5H16L16.2349 22.8189L8.63096 26.3436L3.5 39H10.5ZM9.73146 23.6291L18.5 2H23.5L28.452 14.9513L23.7963 17.1094L21 9L17.1396 20.1951L9.73146 23.6291Z" fill="url(#paint0_linear)"/>
<path d="M29.5 39H38.5V39C38.5 39.5523 38.0523 40 37.5 40H29.5V39Z" fill="url(#paint1_linear)"/>
<defs>
<linearGradient id="paint0_linear" x1="20" y1="2" x2="20" y2="42.7949" gradientUnits="userSpaceOnUse">
<stop stop-color="#9B8BFF"/>
<stop offset="1"/>
</linearGradient>
<linearGradient id="paint1_linear" x1="34" y1="39" x2="34" y2="40.1026" gradientUnits="userSpaceOnUse">
<stop stop-color="#9B8BFF"/>
<stop offset="1"/>
</linearGradient>
</defs>
</svg>
