<svg width="37" height="39" viewBox="0 0 37 39" fill="none" xmlns="http://www.w3.org/2000/svg">
<path d="M9 38.5H9.35021L9.4699 38.1709L13.3502 27.5H25.6535L27.3152 31.9312C28.1202 34.0778 30.1724 35.5 32.465 35.5H35H35.7265L35.467 34.8214L22.467 0.821431L22.3441 0.5H22H17H16.6632L16.5366 0.812147L1.53663 37.8121L1.25777 38.5H2H9ZM15.2013 22L19.5 9.53379L23.7987 22H15.2013Z" fill="white" stroke="white"/>
<rect x="1" y="25.9812" width="38" height="2" transform="rotate(-24.8698 1 25.9812)" fill="black"/>
<path d="M28 38H37C37 38.5523 36.5523 39 36 39H28V38Z" fill="white"/>
</svg>
