<svg width="37" height="39" viewBox="0 0 37 39" fill="none" xmlns="http://www.w3.org/2000/svg">
<path fill-rule="evenodd" clip-rule="evenodd" d="M32.4651 35H33.9295H35.0001L34.6177 34L27.668 15.8238L28.5774 15.4023L35.9341 34.6429L36.453 36H35.0001H32.4651C29.964 36 27.7253 34.4486 26.8471 32.1067L25.3071 28H13.7005L9.93988 38.3417L9.70051 39H9.00008H2.00008H0.515625L1.07334 37.6243L5.80229 25.9596L7.13105 25.3436L2.40549 37L2.00008 38H3.07914H9.00008L13.0001 27H26.0001L27.7834 31.7556C28.5153 33.7071 30.3809 35 32.4651 35ZM14.735 21.8189L14.5001 22.5H15.5579H23.4423H24.5001L24.1553 21.5L22.9518 18.01L22.0398 18.4328L23.0975 21.5H15.9027L15.994 21.2353L14.735 21.8189ZM16.8987 18.6114L15.6397 19.1951L18.9712 9.53379L19.5001 8L20.029 9.53379L22.2964 16.1094L21.3844 16.5321L19.5001 11.0676L16.8987 18.6114ZM26.9521 13.9513L22.0001 1H17.0001L8.23154 22.6291L6.90279 23.245L16.0733 0.624295L16.3264 0H17.0001H22.0001H22.6883L22.9341 0.642863L27.8615 13.5297L26.9521 13.9513Z" fill="url(#paint0_linear)"/>
<path d="M28 38H37C37 38.5523 36.5523 39 36 39H28V38Z" fill="url(#paint1_linear)"/>
<defs>
<linearGradient id="paint0_linear" x1="18.4843" y1="0" x2="18.4843" y2="39" gradientUnits="userSpaceOnUse">
<stop stop-color="#FF2626"/>
<stop offset="1" stop-color="#EF9C9C" stop-opacity="0.17"/>
</linearGradient>
<linearGradient id="paint1_linear" x1="32.5" y1="38" x2="32.5" y2="39" gradientUnits="userSpaceOnUse">
<stop stop-color="#FF2626"/>
<stop offset="1" stop-color="#EF9C9C" stop-opacity="0.17"/>
</linearGradient>
</defs>
</svg>
