<svg width="24" height="24" viewBox="0 0 24 24" fill="none" xmlns="http://www.w3.org/2000/svg">
<path fill-rule="evenodd" clip-rule="evenodd" d="M11.9989 6.10404e-06C5.37254 6.10404e-06 0 5.37255 0 12.0004C0 17.3022 3.43804 21.7996 8.20651 23.3871C8.8069 23.4969 9.02569 23.1263 9.02569 22.8081C9.02569 22.5237 9.01538 21.7686 9.00948 20.7675C5.67163 21.4924 4.96737 19.1586 4.96737 19.1586C4.4215 17.7722 3.63473 17.4031 3.63473 17.4031C2.5452 16.6591 3.71724 16.6738 3.71724 16.6738C4.9217 16.7585 5.55523 17.9107 5.55523 17.9107C6.62562 19.7443 8.36416 19.2146 9.04779 18.9074C9.15682 18.1324 9.46622 17.6035 9.80951 17.3037C7.14497 17.0009 4.34341 15.971 4.34341 11.3727C4.34341 10.0629 4.8112 8.99181 5.57881 8.15274C5.45505 7.84923 5.04325 6.62931 5.69594 4.97695C5.69594 4.97695 6.7037 4.65429 8.99622 6.20719C9.95316 5.94052 10.9801 5.80792 12.0004 5.8035C13.0192 5.80792 14.0461 5.94052 15.0045 6.20719C17.2956 4.65429 18.3011 4.97695 18.3011 4.97695C18.956 6.62931 18.5442 7.84923 18.4205 8.15274C19.1895 8.99181 19.6544 10.0629 19.6544 11.3727C19.6544 15.9828 16.8484 16.9972 14.175 17.2941C14.606 17.6646 14.9898 18.3969 14.9898 19.5166C14.9898 21.1204 14.975 22.4147 14.975 22.8081C14.975 23.1293 15.1909 23.5028 15.8001 23.3856C20.5649 21.7951 24 17.3007 24 12.0004C24 5.37255 18.6267 6.10404e-06 11.9989 6.10404e-06Z" fill="white"/>
</svg>
