<svg viewBox="0 0 27 27" fill="none" xmlns="http://www.w3.org/2000/svg">
<path d="M13.5043 26.8534C20.7198 26.8534 26.694 20.8664 26.694 13.6638C26.694 6.44828 20.7069 0.474137 13.4914 0.474137C6.28879 0.474137 0.314655 6.44828 0.314655 13.6638C0.314655 20.8664 6.30172 26.8534 13.5043 26.8534ZM12.056 19.9871C11.6164 19.9871 11.2543 19.806 10.9181 19.3534L7.67241 15.3707C7.47845 15.1121 7.36207 14.8276 7.36207 14.5302C7.36207 13.9483 7.81466 13.4698 8.39655 13.4698C8.77155 13.4698 9.05603 13.5862 9.37931 14.0129L12.0043 17.4009L17.5259 8.53017C17.7716 8.14224 18.1078 7.93534 18.444 7.93534C19.0129 7.93534 19.5431 8.32328 19.5431 8.93103C19.5431 9.21552 19.375 9.51293 19.2198 9.78448L13.1422 19.3534C12.8707 19.7802 12.4957 19.9871 12.056 19.9871Z" fill="white"/>
</svg>
