<svg width="126" height="360" viewBox="0 0 126 360" fill="none" xmlns="http://www.w3.org/2000/svg">
<path d="M61.3303 359.507H25.3424C16.5161 359.507 10.2652 356.164 6.21293 350.88C2.15249 345.585 0.278207 338.312 0.278207 330.424V25.9464C0.278207 16.2032 3.2771 9.19109 7.84974 4.98842C12.4183 0.789512 18.592 -0.637417 25.0221 0.849686L107.074 23.2739L107.076 23.2746C117.742 26.0844 124.915 38.1489 124.915 52.9428V335.155C124.915 347.547 117.135 359.507 104.167 359.507H73.0655C72.7759 359.358 72.4356 359.256 72.1334 359.256H62.4447C62.1064 359.256 61.6818 359.36 61.3303 359.507Z" fill="#F6E7D8" stroke="#101010" stroke-width="0.556414"/>
<mask id="mask0" style="mask-type:alpha" maskUnits="userSpaceOnUse" x="0" y="0" width="126" height="360">
<path d="M61.3303 359.507H25.3424C16.5161 359.507 10.2652 356.164 6.21293 350.88C2.15249 345.585 0.278207 338.312 0.278207 330.424V25.9464C0.278207 16.2032 3.2771 9.19109 7.84974 4.98842C12.4183 0.789512 18.592 -0.637417 25.0221 0.849686L107.074 23.2739L107.076 23.2746C117.742 26.0844 124.915 38.1489 124.915 52.9428V335.155C124.915 347.547 117.135 359.507 104.167 359.507H73.0655C72.7759 359.358 72.4356 359.256 72.1334 359.256H62.4447C62.1064 359.256 61.6818 359.36 61.3303 359.507Z" fill="white" stroke="white" stroke-width="0.556414"/>
</mask>
<g mask="url(#mask0)">
<g filter="url(#filter0_f)">
<path fill-rule="evenodd" clip-rule="evenodd" d="M26.733 358.672C8.92227 358.672 1.39062 346.277 1.39062 330.424V25.9464C1.39062 6.34927 13.4579 -2.43514 26.4808 0.579876L115.177 358.958L26.733 358.672Z" fill="#B68D74"/>
</g>
<g filter="url(#filter1_i)">
<path fill-rule="evenodd" clip-rule="evenodd" d="M105.111 359.785H23.2261C13.1144 359.785 5.1318 353.711 2.37988 343.931C4.26878 347.937 8.91741 358.116 21.5569 358.116L104.833 358.394C114.632 358.394 118.863 353.361 121.332 349.401C118.386 356.041 112.736 359.785 105.111 359.785Z" fill="#272727"/>
</g>
<g filter="url(#filter2_f)">
<path fill-rule="evenodd" clip-rule="evenodd" d="M16.1361 356.725C9.99012 356.725 5.00781 351.743 5.00781 345.597C5.00781 339.451 9.99012 334.468 16.1361 334.468C22.2821 334.468 27.2644 339.451 27.2644 345.597C27.2644 351.743 22.2821 356.725 16.1361 356.725Z" fill="black" fill-opacity="0.5"/>
</g>
<g filter="url(#filter3_ddd)">
<path d="M69.2497 363.087L60.8298 363.219C59.7406 363.253 59.4621 362.592 60.0312 361.646C60.4293 360.984 60.7057 359.234 63.0846 359.088L71.994 359.091C73.4551 359.178 73.0469 360.163 72.3749 361.394C71.9509 362.171 70.2367 363.054 69.2497 363.087Z" fill="url(#paint0_linear)"/>
</g>
<path fill-rule="evenodd" clip-rule="evenodd" d="M101.027 26.2059C112.978 29.6173 118.795 40.8646 118.795 54.8915V334.327C118.795 341.935 114.573 356.732 104.73 356.732L26.7083 356.725C15.8518 356.716 3.33887 351.165 3.33887 329.739V25.2513C3.33887 8.01864 13.0488 1.15571 23.4219 3.77977L101.027 26.2059Z" fill="#01100B"/>
<path fill-rule="evenodd" clip-rule="evenodd" d="M101.304 26.2059C113.255 29.6173 119.072 40.8645 119.072 54.8915V334.327C119.072 341.935 114.851 356.454 105.008 356.454L30.0462 356.447C17.5205 356.438 6.67676 351.165 6.67676 329.739V26.3641C6.67676 9.13144 11.6572 1.9903 26.7598 4.05794L101.304 26.2059Z" fill="#AA7E62"/>
<mask id="mask1" style="mask-type:alpha" maskUnits="userSpaceOnUse" x="6" y="3" width="114" height="354">
<path fill-rule="evenodd" clip-rule="evenodd" d="M101.304 26.2059C113.255 29.6173 119.072 40.8645 119.072 54.8915V334.327C119.072 341.935 114.851 356.454 105.008 356.454L30.0462 356.447C17.5205 356.438 6.67676 351.165 6.67676 329.739V26.3641C6.67676 9.13144 11.6572 1.9903 26.7598 4.05794L101.304 26.2059Z" fill="white"/>
</mask>
<g mask="url(#mask1)">
<g filter="url(#filter4_f)">
<path fill-rule="evenodd" clip-rule="evenodd" d="M32.5501 356.447C32.5501 356.447 9.18066 351.165 9.18066 329.739V29.1462C9.18066 11.9135 14.1611 4.77241 29.2637 6.84005L32.5501 356.447Z" fill="#FFF5EC"/>
</g>
<g opacity="0.50093" filter="url(#filter5_f)">
<path fill-rule="evenodd" clip-rule="evenodd" d="M15.8578 22.32C9.71179 22.32 4.72949 17.3377 4.72949 11.1917C4.72949 5.04572 9.71179 0.0634155 15.8578 0.0634155C22.0038 0.0634155 26.9861 5.04572 26.9861 11.1917C26.9861 17.3377 22.0038 22.32 15.8578 22.32Z" fill="black"/>
</g>
<g opacity="0.495791" filter="url(#filter6_f)">
<path fill-rule="evenodd" clip-rule="evenodd" d="M20.5871 364.793C12.9046 364.793 6.67676 358.565 6.67676 350.883C6.67676 343.2 12.9046 336.972 20.5871 336.972C28.2696 336.972 34.4975 343.2 34.4975 350.883C34.4975 358.565 28.2696 364.793 20.5871 364.793Z" fill="black"/>
</g>
</g>
<path d="M107.387 23.5576C119.253 26.9446 125.054 38.6697 125.054 52.6658V334.327C125.054 338.112 124.003 343.831 121.623 348.599C119.242 353.37 115.554 357.149 110.294 357.149L29.7682 357.142C25.07 357.138 20.1021 355.414 16.3073 351.137C12.5117 346.859 9.87641 340.012 9.87641 329.739V24.4167C9.87641 16.0939 11.6754 9.83022 14.9173 5.97642C18.1503 2.13329 22.8359 0.666058 28.674 1.96734L107.387 23.5576Z" fill="url(#paint1_linear)"/>
<path d="M107.387 23.5576C119.253 26.9446 125.054 38.6697 125.054 52.6658V334.327C125.054 338.112 124.003 343.831 121.623 348.599C119.242 353.37 115.554 357.149 110.294 357.149L29.7682 357.142C25.07 357.138 20.1021 355.414 16.3073 351.137C12.5117 346.859 9.87641 340.012 9.87641 329.739V24.4167C9.87641 16.0939 11.6754 9.83022 14.9173 5.97642C18.1503 2.13329 22.8359 0.666058 28.674 1.96734L107.387 23.5576Z" fill="url(#paint2_linear)"/>
<path d="M107.387 23.5576C119.253 26.9446 125.054 38.6697 125.054 52.6658V334.327C125.054 338.112 124.003 343.831 121.623 348.599C119.242 353.37 115.554 357.149 110.294 357.149L29.7682 357.142C25.07 357.138 20.1021 355.414 16.3073 351.137C12.5117 346.859 9.87641 340.012 9.87641 329.739V24.4167C9.87641 16.0939 11.6754 9.83022 14.9173 5.97642C18.1503 2.13329 22.8359 0.666058 28.674 1.96734L107.387 23.5576Z" stroke="black" stroke-width="0.278207"/>
<mask id="mask2" style="mask-type:alpha" maskUnits="userSpaceOnUse" x="9" y="1" width="117" height="357">
<path d="M107.387 23.5576C119.253 26.9446 125.054 38.6697 125.054 52.6658V334.327C125.054 338.112 124.003 343.831 121.623 348.599C119.242 353.37 115.554 357.149 110.294 357.149L29.7682 357.142C25.07 357.138 20.1021 355.414 16.3073 351.137C12.5117 346.859 9.87641 340.012 9.87641 329.739V24.4167C9.87641 16.0939 11.6754 9.83022 14.9173 5.97642C18.1503 2.13329 22.8359 0.666058 28.674 1.96734L107.387 23.5576Z" fill="white"/>
<path d="M107.387 23.5576C119.253 26.9446 125.054 38.6697 125.054 52.6658V334.327C125.054 338.112 124.003 343.831 121.623 348.599C119.242 353.37 115.554 357.149 110.294 357.149L29.7682 357.142C25.07 357.138 20.1021 355.414 16.3073 351.137C12.5117 346.859 9.87641 340.012 9.87641 329.739V24.4167C9.87641 16.0939 11.6754 9.83022 14.9173 5.97642C18.1503 2.13329 22.8359 0.666058 28.674 1.96734L107.387 23.5576Z" stroke="white" stroke-width="0.278207"/>
</mask>
<g mask="url(#mask2)">
<g filter="url(#filter7_f)">
<path fill-rule="evenodd" clip-rule="evenodd" d="M20.7265 10.0788C17.2693 10.0788 14.4668 7.27622 14.4668 3.81911C14.4668 0.361993 17.2693 -2.44055 20.7265 -2.44055C24.1836 -2.44055 26.9861 0.361993 26.9861 3.81911C26.9861 7.27622 24.1836 10.0788 20.7265 10.0788Z" fill="black"/>
</g>
</g>
<path fill-rule="evenodd" clip-rule="evenodd" d="M10.0155 29.5533V32.0572C8.1045 31.8193 6.40255 31.8247 4.90961 32.0735C3.41668 32.3224 1.78014 32.8733 0 33.7264V31.2226C1.43691 30.4267 3.0819 29.8743 4.93497 29.5655C6.78804 29.2566 8.48153 29.2526 10.0155 29.5533Z" fill="url(#paint3_linear)"/>
<path fill-rule="evenodd" clip-rule="evenodd" d="M10.0155 322.227V324.731H0V322.227H10.0155Z" fill="url(#paint4_linear)"/>
<g filter="url(#filter8_i)">
<path fill-rule="evenodd" clip-rule="evenodd" d="M107.664 24.7685C119.279 28.0349 124.915 38.954 124.915 52.6658V335.718C124.915 339.831 123.569 344.82 121.769 348.151C119.97 351.483 116.191 355.48 111.13 355.48H31.7486C18.5523 355.476 12.252 344.459 12.252 331.674V23.0256C12.252 10.219 18.3921 1.35971 28.1562 3.1897L107.664 24.7685Z" fill="black"/>
</g>
<path d="M107.701 24.6346L107.7 24.6343L28.1926 3.05545L28.1927 3.05502L28.1818 3.05297C23.2456 2.12783 19.218 3.90793 16.4322 7.53418C13.652 11.1532 12.1128 16.6032 12.1128 23.0256V331.674C12.1128 338.087 13.6927 344.069 16.9399 348.452C20.1907 352.841 25.1063 355.617 31.7485 355.619H111.13C116.267 355.619 120.082 351.567 121.892 348.217C123.701 344.866 125.054 339.855 125.054 335.718V52.6658C125.054 38.9205 119.4 27.9246 107.701 24.6346Z" stroke="black" stroke-width="0.278207"/>
<mask id="mask3" style="mask-type:alpha" maskUnits="userSpaceOnUse" x="11" y="2" width="115" height="354">
<path d="M107.701 24.6346L107.7 24.6343L28.1926 3.05545L28.1927 3.05502L28.1818 3.05297C23.2456 2.12783 19.218 3.90793 16.4322 7.53418C13.652 11.1532 12.1128 16.6032 12.1128 23.0256V331.674C12.1128 338.087 13.6927 344.069 16.9399 348.452C20.1907 352.841 25.1063 355.617 31.7485 355.619H111.13C116.267 355.619 120.082 351.567 121.892 348.217C123.701 344.866 125.054 339.855 125.054 335.718V52.6658C125.054 38.9205 119.4 27.9246 107.701 24.6346Z" fill="white" stroke="white" stroke-width="0.278207"/>
</mask>
<g mask="url(#mask3)">
<g filter="url(#filter9_i)">
<path fill-rule="evenodd" clip-rule="evenodd" d="M80.5486 356.729L30.0462 356.725C19.1897 356.716 6.67676 351.165 6.67676 329.739V26.3641C6.67676 9.13143 11.6572 0.321052 26.7598 2.3887L107.147 23.9802C119.098 27.3916 124.915 38.0825 124.915 52.1094V334.327C124.915 344.996 120.693 356.732 110.85 356.732L108.414 356.732C116.287 356.682 124.08 348.016 124.08 334.327V52.944C124.08 38.9171 118.541 27.3916 106.59 23.9802L31.4893 3.77973C16.3867 -0.235362 14.1884 9.13143 14.1884 26.3641V329.739C14.1884 351.165 23.3628 356.716 34.2193 356.725L80.5486 356.729V356.729Z" fill="#949494"/>
</g>
<mask id="mask4" style="mask-type:alpha" maskUnits="userSpaceOnUse" x="6" y="2" width="119" height="355">
<path fill-rule="evenodd" clip-rule="evenodd" d="M80.5486 356.729L30.0462 356.725C19.1897 356.716 6.67676 351.165 6.67676 329.739V26.3641C6.67676 9.13143 11.6572 0.321052 26.7598 2.3887L107.147 23.9802C119.098 27.3916 124.915 38.0825 124.915 52.1094V334.327C124.915 344.996 120.693 356.732 110.85 356.732L108.414 356.732C116.287 356.682 124.08 348.016 124.08 334.327V52.944C124.08 38.9171 118.541 27.3916 106.59 23.9802L31.4893 3.77973C16.3867 -0.235362 14.1884 9.13143 14.1884 26.3641V329.739C14.1884 351.165 23.3628 356.716 34.2193 356.725L80.5486 356.729V356.729Z" fill="white"/>
</mask>
<g mask="url(#mask4)">
<g filter="url(#filter10_f)">
<path fill-rule="evenodd" clip-rule="evenodd" d="M19.7529 17.034C14.3751 17.034 10.0156 12.6745 10.0156 7.29676C10.0156 1.91902 14.3751 -2.44049 19.7529 -2.44049C25.1306 -2.44049 29.4901 1.91902 29.4901 7.29676C29.4901 12.6745 25.1306 17.034 19.7529 17.034Z" fill="black"/>
</g>
<g filter="url(#filter11_f)">
<path fill-rule="evenodd" clip-rule="evenodd" d="M19.6139 358.394C14.4666 358.394 10.2939 354.221 10.2939 349.074C10.2939 343.927 14.4666 339.754 19.6139 339.754C24.7611 339.754 28.9338 343.927 28.9338 349.074C28.9338 354.221 24.7611 358.394 19.6139 358.394Z" fill="black"/>
</g>
<g filter="url(#filter12_f)">
<path fill-rule="evenodd" clip-rule="evenodd" d="M116.151 35.3957C111.619 35.3957 107.944 31.7212 107.944 27.1886C107.944 22.6559 111.619 18.9814 116.151 18.9814C120.684 18.9814 124.359 22.6559 124.359 27.1886C124.359 31.7212 120.684 35.3957 116.151 35.3957Z" fill="black"/>
</g>
<g filter="url(#filter13_f)">
<path fill-rule="evenodd" clip-rule="evenodd" d="M119.351 357.56C115.356 357.56 112.117 354.321 112.117 350.326C112.117 346.331 115.356 343.093 119.351 343.093C123.345 343.093 126.584 346.331 126.584 350.326C126.584 354.321 123.345 357.56 119.351 357.56Z" fill="black"/>
</g>
</g>
</g>
</g>
<path d="M1.1084 105.366C1.1084 104.059 2.16832 103 3.47579 103C4.78355 103 5.84318 104.059 5.84318 105.366V127.92C5.84318 129.225 4.73084 130.574 3.47987 130.611C2.2289 130.648 1.1084 130.339 1.1084 128.059V105.366Z" fill="url(#paint5_linear)"/>
<mask id="mask5" style="mask-type:alpha" maskUnits="userSpaceOnUse" x="1" y="103" width="5" height="28">
<path d="M1.1084 105.366C1.1084 104.059 2.16832 103 3.47579 103C4.78355 103 5.84318 104.059 5.84318 105.366V127.92C5.84318 129.225 4.73084 130.574 3.47987 130.611C2.2289 130.648 1.1084 130.339 1.1084 128.059V105.366Z" fill="white"/>
</mask>
<g mask="url(#mask5)">
<g filter="url(#filter14_d)">
<path fill-rule="evenodd" clip-rule="evenodd" d="M3.33653 103.418C4.64429 103.418 5.42541 104.477 5.42541 105.783V126.934C5.42541 128.24 4.84379 129.652 3.61097 130.087L3.34061 130.182C2.246 130.478 1.1084 129.91 1.1084 127.63L1.1084 105.783C1.1084 104.476 2.02906 103.418 3.33653 103.418Z" fill="url(#paint6_linear)"/>
<path fill-rule="evenodd" clip-rule="evenodd" d="M3.33653 103.418C4.64429 103.418 5.42541 104.477 5.42541 105.783V126.934C5.42541 128.24 4.84379 129.652 3.61097 130.087L3.34061 130.182C2.246 130.478 1.1084 129.91 1.1084 127.63L1.1084 105.783C1.1084 104.476 2.02906 103.418 3.33653 103.418Z" fill="url(#paint7_linear)"/>
</g>
<path fill-rule="evenodd" clip-rule="evenodd" d="M4.4506 105.922V126.795C4.4506 128.175 3.72545 128.955 3.05346 129.284C2.38148 129.612 1.89839 129.44 1.65573 129.254C1.32102 128.998 1.1084 128.427 1.1084 127.491V105.922C1.1084 104.749 1.75914 103.974 2.7795 103.974C3.79997 103.974 4.4506 104.749 4.4506 105.922Z" fill="url(#paint8_linear)"/>
</g>
<path d="M1.1084 71.7025C1.1084 70.3958 2.16832 69.3369 3.47579 69.3369C4.78355 69.3369 5.84318 70.3961 5.84318 71.7027V94.2564C5.84318 95.5623 4.73084 96.9114 3.47987 96.9482C2.2289 96.985 1.1084 96.6763 1.1084 94.3958V71.7025Z" fill="url(#paint9_linear)"/>
<mask id="mask6" style="mask-type:alpha" maskUnits="userSpaceOnUse" x="1" y="69" width="5" height="28">
<path d="M1.1084 71.7025C1.1084 70.3958 2.16832 69.3369 3.47579 69.3369C4.78355 69.3369 5.84318 70.3961 5.84318 71.7027V94.2564C5.84318 95.5623 4.73084 96.9114 3.47987 96.9482C2.2289 96.985 1.1084 96.6763 1.1084 94.3958V71.7025Z" fill="white"/>
</mask>
<g mask="url(#mask6)">
<g filter="url(#filter15_d)">
<path fill-rule="evenodd" clip-rule="evenodd" d="M3.33653 69.7545C4.64429 69.7545 5.42541 70.8137 5.42541 72.1203V93.2709C5.42541 94.5767 4.84379 95.9891 3.61097 96.4239L3.34061 96.5192C2.246 96.8153 1.1084 96.2474 1.1084 93.9669L1.1084 72.1201C1.1084 70.8134 2.02906 69.7545 3.33653 69.7545Z" fill="url(#paint10_linear)"/>
<path fill-rule="evenodd" clip-rule="evenodd" d="M3.33653 69.7545C4.64429 69.7545 5.42541 70.8137 5.42541 72.1203V93.2709C5.42541 94.5767 4.84379 95.9891 3.61097 96.4239L3.34061 96.5192C2.246 96.8153 1.1084 96.2474 1.1084 93.9669L1.1084 72.1201C1.1084 70.8134 2.02906 69.7545 3.33653 69.7545Z" fill="url(#paint11_linear)"/>
</g>
<path fill-rule="evenodd" clip-rule="evenodd" d="M4.4506 72.2594V93.1317C4.4506 94.5116 3.72545 95.2923 3.05346 95.6207C2.38148 95.9491 1.89839 95.7768 1.65573 95.5909C1.32102 95.3345 1.1084 94.7642 1.1084 93.8277V72.2593C1.1084 71.0859 1.75914 70.3112 2.7795 70.3112C3.79997 70.3112 4.4506 71.086 4.4506 72.2594Z" fill="url(#paint12_linear)"/>
</g>
<path fill-rule="evenodd" clip-rule="evenodd" d="M1.24805 44.9943C1.24805 44.0228 1.68684 43.1855 3.19766 43.1855C4.1826 43.1855 4.45099 44.1637 4.45099 44.4379V56.6828C4.45099 56.9622 4.31472 58.226 3.19766 58.4223C2.20881 58.596 1.24805 59.0969 1.24805 57.2394L1.24805 44.9943Z" fill="url(#paint13_linear)"/>
<mask id="mask7" style="mask-type:alpha" maskUnits="userSpaceOnUse" x="1" y="43" width="4" height="16">
<path fill-rule="evenodd" clip-rule="evenodd" d="M1.24805 44.9943C1.24805 44.0228 1.68684 43.1855 3.19766 43.1855C4.1826 43.1855 4.45099 44.1637 4.45099 44.4379V56.6828C4.45099 56.9622 4.31472 58.226 3.19766 58.4223C2.20881 58.596 1.24805 59.0969 1.24805 57.2394L1.24805 44.9943Z" fill="white"/>
</mask>
<g mask="url(#mask7)">
<g filter="url(#filter16_d)">
<path fill-rule="evenodd" clip-rule="evenodd" d="M3.07585 43.1672C3.74992 43.1672 4.45131 43.4681 4.45131 44.7165V56.4553C4.45131 57.9814 3.8235 58.0579 3.19938 58.1753L3.07585 58.1982C2.50493 58.3323 1.81729 58.0314 1.81729 56.8239V44.9947C1.81729 44.3028 1.59682 43.1672 3.07585 43.1672Z" fill="url(#paint14_linear)"/>
</g>
<path fill-rule="evenodd" clip-rule="evenodd" d="M1.76417 44.5123C1.76417 43.8202 2.28899 43.2318 2.98943 43.2318C3.69001 43.2318 4.03386 43.8202 4.03386 44.5123L3.95708 56.49C3.95708 57.1815 3.7947 57.8558 3.13426 58.0861L2.98943 58.1366C2.40303 58.2934 1.76367 58.0776 1.76367 56.8698L1.76417 44.5123Z" fill="url(#paint15_linear)"/>
<path fill-rule="evenodd" clip-rule="evenodd" d="M3.61505 44.4967V56.3784C3.61505 57.11 3.22226 57.5238 2.85827 57.698C2.49427 57.8721 2.2326 57.7807 2.10116 57.6822C1.91986 57.5462 1.80469 57.2439 1.80469 56.7474L1.80469 44.4966C1.80469 43.8745 2.15717 43.4638 2.70987 43.4638C3.26262 43.4638 3.61505 43.8746 3.61505 44.4967Z" fill="url(#paint16_linear)"/>
</g>
<path d="M79.0167 26.5281C79.0323 25.6751 78.4212 24.8029 77.6327 24.5768L66.4418 21.3678C66.0414 21.253 65.6635 21.3255 65.3831 21.5488C65.1039 21.7713 64.9365 22.131 64.9286 22.563C64.913 23.4161 65.5241 24.2883 66.3126 24.5144L77.5035 27.7233C77.9039 27.8381 78.2818 27.7656 78.5622 27.5423C78.8415 27.3198 79.0089 26.9601 79.0167 26.5281Z" fill="url(#paint17_linear)" stroke="url(#paint18_linear)" stroke-width="0.278207"/>
<path d="M83.9854 28.3258C84.1476 29.0003 84.4568 29.5666 84.8297 29.936C85.2018 30.3046 85.6473 30.485 86.0735 30.3578C86.4978 30.2311 86.8002 29.8297 86.9562 29.306C87.1128 28.7805 87.1267 28.1188 86.9645 27.4442C86.8023 26.7697 86.4931 26.2034 86.1202 25.834C85.7481 25.4654 85.3027 25.285 84.8765 25.4122C84.4522 25.5389 84.1498 25.9403 83.9938 26.4639C83.8372 26.9895 83.8232 27.6512 83.9854 28.3258Z" fill="url(#paint19_linear)" stroke="url(#paint20_linear)" stroke-width="0.139104"/>
<mask id="mask8" style="mask-type:alpha" maskUnits="userSpaceOnUse" x="83" y="25" width="5" height="6">
<path d="M83.9854 28.3258C84.1476 29.0003 84.4568 29.5666 84.8297 29.936C85.2018 30.3046 85.6473 30.485 86.0735 30.3578C86.4978 30.2311 86.8002 29.8297 86.9562 29.306C87.1128 28.7805 87.1267 28.1188 86.9645 27.4442C86.8023 26.7697 86.4931 26.2034 86.1202 25.834C85.7481 25.4654 85.3027 25.285 84.8765 25.4122C84.4522 25.5389 84.1498 25.9403 83.9938 26.4639C83.8372 26.9895 83.8232 27.6512 83.9854 28.3258Z" fill="white" stroke="white" stroke-width="0.139104"/>
</mask>
<g mask="url(#mask8)">
<g filter="url(#filter17_d)">
<path fill-rule="evenodd" clip-rule="evenodd" d="M85.6937 28.3442C85.7469 27.458 85.4136 26.5336 84.9494 26.2795C84.4851 26.0254 84.0656 26.5378 84.0124 27.424C83.9592 28.3102 84.2925 29.2346 84.7568 29.4887C85.221 29.7428 85.6405 29.2304 85.6937 28.3442Z" fill="url(#paint21_linear)"/>
</g>
<mask id="mask9" style="mask-type:alpha" maskUnits="userSpaceOnUse" x="84" y="26" width="2" height="4">
<path fill-rule="evenodd" clip-rule="evenodd" d="M85.6937 28.3442C85.7469 27.458 85.4136 26.5336 84.9494 26.2795C84.4851 26.0254 84.0656 26.5378 84.0124 27.424C83.9592 28.3102 84.2925 29.2346 84.7568 29.4887C85.221 29.7428 85.6405 29.2304 85.6937 28.3442Z" fill="white"/>
</mask>
<g mask="url(#mask9)">
<g filter="url(#filter18_d)">
<path fill-rule="evenodd" clip-rule="evenodd" d="M85.5424 28.2788C85.5857 27.5588 85.3149 26.8077 84.9377 26.6012C84.5605 26.3948 84.2196 26.8111 84.1764 27.5311C84.1332 28.2511 84.404 29.0022 84.7812 29.2087C85.1584 29.4151 85.4992 28.9988 85.5424 28.2788Z" fill="url(#paint22_linear)"/>
</g>
<path fill-rule="evenodd" clip-rule="evenodd" d="M85.3317 28.1638C85.3616 27.6653 85.1741 27.1453 84.913 27.0024C84.6518 26.8594 84.4159 27.1477 84.3859 27.6461C84.356 28.1446 84.5435 28.6646 84.8046 28.8075C85.0658 28.9505 85.3018 28.6622 85.3317 28.1638Z" fill="url(#paint23_radial)"/>
<g filter="url(#filter19_f)">
<path fill-rule="evenodd" clip-rule="evenodd" d="M85.5379 27.6645C85.5512 27.443 85.4679 27.2119 85.3518 27.1484C85.2358 27.0848 85.1309 27.2129 85.1176 27.4345C85.1043 27.656 85.1876 27.8871 85.3037 27.9506C85.4198 28.0142 85.5246 27.8861 85.5379 27.6645Z" fill="#0D1343"/>
</g>
<path opacity="0.351795" fill-rule="evenodd" clip-rule="evenodd" d="M84.7069 27.4488C84.7169 27.2826 84.6544 27.1093 84.5673 27.0616C84.4803 27.014 84.4016 27.1101 84.3917 27.2762C84.3817 27.4424 84.4442 27.6157 84.5312 27.6634C84.6183 27.711 84.6969 27.6149 84.7069 27.4488Z" fill="#8361FF"/>
<path opacity="0.28111" fill-rule="evenodd" clip-rule="evenodd" d="M85.3065 28.4165C85.3198 28.1949 85.2365 27.9638 85.1204 27.9003C85.0043 27.8368 84.8995 27.9649 84.8862 28.1864C84.8729 28.408 84.9562 28.6391 85.0722 28.7026C85.1883 28.7661 85.2932 28.638 85.3065 28.4165Z" fill="#37759E"/>
<g opacity="0.773996" filter="url(#filter20_f)">
<path fill-rule="evenodd" clip-rule="evenodd" d="M85.2371 27.5819C85.2504 27.3603 85.1671 27.1292 85.0511 27.0657C84.935 27.0022 84.8301 27.1303 84.8168 27.3518C84.8035 27.5734 84.8868 27.8045 85.0029 27.868C85.119 27.9315 85.2238 27.8034 85.2371 27.5819Z" fill="#513CDA"/>
</g>
</g>
</g>
<mask id="mask10" style="mask-type:alpha" maskUnits="userSpaceOnUse" x="17" y="9" width="105" height="341">
<path fill-rule="evenodd" clip-rule="evenodd" d="M109.329 30.8683C116.88 32.8818 121.855 38.8855 121.855 49.4822C121.855 239.638 121.855 334.726 121.855 334.746C121.804 342.158 118.326 349.728 110.357 349.678L30.7745 349.041C23.4412 348.982 17.5273 342.743 17.5273 332.349L17.5273 23.6714C17.5273 10.5591 24.7788 8.39583 30.1234 9.82106L40.0673 12.4634C41.2456 12.7766 42.0828 13.8205 42.1325 15.0387L42.2548 18.0341C42.4396 22.5627 45.5648 26.4375 49.9515 27.5772L93.4116 38.8683C96.2372 39.6024 99.1228 37.9069 99.8569 35.0814C99.8947 34.9357 100.106 33.1879 100.49 29.838C100.56 29.2274 101.112 28.7892 101.722 28.8592C101.776 28.8654 109.329 30.8683 109.329 30.8683Z" fill="white"/>
</mask>
<g mask="url(#mask10)">
<path fill-rule="evenodd" clip-rule="evenodd" d="M17.5273 6.4621L121.855 33.759L121.332 349.043H17.8308L17.5273 6.4621Z" fill="#E89898"/>
</g>
<defs>
<filter id="filter0_f" x="-1.63436" y="-3.02498" width="119.837" height="365.008" filterUnits="userSpaceOnUse" color-interpolation-filters="sRGB">
<feFlood flood-opacity="0" result="BackgroundImageFix"/>
<feBlend mode="normal" in="SourceGraphic" in2="BackgroundImageFix" result="shape"/>
<feGaussianBlur stdDeviation="1.51249" result="effect1_foregroundBlur"/>
</filter>
<filter id="filter1_i" x="2.37988" y="343.653" width="118.952" height="16.1321" filterUnits="userSpaceOnUse" color-interpolation-filters="sRGB">
<feFlood flood-opacity="0" result="BackgroundImageFix"/>
<feBlend mode="normal" in="SourceGraphic" in2="BackgroundImageFix" result="shape"/>
<feColorMatrix in="SourceAlpha" type="matrix" values="0 0 0 0 0 0 0 0 0 0 0 0 0 0 0 0 0 0 127 0" result="hardAlpha"/>
<feOffset dy="-0.556414"/>
<feGaussianBlur stdDeviation="0.139104"/>
<feComposite in2="hardAlpha" operator="arithmetic" k2="-1" k3="1"/>
<feColorMatrix type="matrix" values="0 0 0 0 0 0 0 0 0 0 0 0 0 0 0 0 0 0 1 0"/>
<feBlend mode="normal" in2="shape" result="effect1_innerShadow"/>
</filter>
<filter id="filter2_f" x="-17.6795" y="311.781" width="67.6316" height="67.6313" filterUnits="userSpaceOnUse" color-interpolation-filters="sRGB">
<feFlood flood-opacity="0" result="BackgroundImageFix"/>
<feBlend mode="normal" in="SourceGraphic" in2="BackgroundImageFix" result="shape"/>
<feGaussianBlur stdDeviation="11.3437" result="effect1_foregroundBlur"/>
</filter>
<filter id="filter3_ddd" x="59.465" y="358.81" width="13.7976" height="4.68837" filterUnits="userSpaceOnUse" color-interpolation-filters="sRGB">
<feFlood flood-opacity="0" result="BackgroundImageFix"/>
<feColorMatrix in="SourceAlpha" type="matrix" values="0 0 0 0 0 0 0 0 0 0 0 0 0 0 0 0 0 0 127 0" result="hardAlpha"/>
<feOffset/>
<feGaussianBlur stdDeviation="0.139104"/>
<feColorMatrix type="matrix" values="0 0 0 0 1 0 0 0 0 1 0 0 0 0 1 0 0 0 0.5 0"/>
<feBlend mode="normal" in2="BackgroundImageFix" result="effect1_dropShadow"/>
<feColorMatrix in="SourceAlpha" type="matrix" values="0 0 0 0 0 0 0 0 0 0 0 0 0 0 0 0 0 0 127 0" result="hardAlpha"/>
<feOffset/>
<feGaussianBlur stdDeviation="0.139104"/>
<feColorMatrix type="matrix" values="0 0 0 0 0 0 0 0 0 0 0 0 0 0 0 0 0 0 0.3 0"/>
<feBlend mode="normal" in2="effect1_dropShadow" result="effect2_dropShadow"/>
<feColorMatrix in="SourceAlpha" type="matrix" values="0 0 0 0 0 0 0 0 0 0 0 0 0 0 0 0 0 0 127 0" result="hardAlpha"/>
<feOffset/>
<feGaussianBlur stdDeviation="0.139104"/>
<feColorMatrix type="matrix" values="0 0 0 0 0 0 0 0 0 0 0 0 0 0 0 0 0 0 0.2 0"/>
<feBlend mode="normal" in2="effect2_dropShadow" result="effect3_dropShadow"/>
<feBlend mode="normal" in="SourceGraphic" in2="effect3_dropShadow" result="shape"/>
</filter>
<filter id="filter4_f" x="5.39944" y="2.71188" width="30.9316" height="357.516" filterUnits="userSpaceOnUse" color-interpolation-filters="sRGB">
<feFlood flood-opacity="0" result="BackgroundImageFix"/>
<feBlend mode="normal" in="SourceGraphic" in2="BackgroundImageFix" result="shape"/>
<feGaussianBlur stdDeviation="1.89061" result="effect1_foregroundBlur"/>
</filter>
<filter id="filter5_f" x="-17.9579" y="-22.6239" width="67.6316" height="67.6313" filterUnits="userSpaceOnUse" color-interpolation-filters="sRGB">
<feFlood flood-opacity="0" result="BackgroundImageFix"/>
<feBlend mode="normal" in="SourceGraphic" in2="BackgroundImageFix" result="shape"/>
<feGaussianBlur stdDeviation="11.3437" result="effect1_foregroundBlur"/>
</filter>
<filter id="filter6_f" x="-16.0106" y="314.285" width="73.195" height="73.1954" filterUnits="userSpaceOnUse" color-interpolation-filters="sRGB">
<feFlood flood-opacity="0" result="BackgroundImageFix"/>
<feBlend mode="normal" in="SourceGraphic" in2="BackgroundImageFix" result="shape"/>
<feGaussianBlur stdDeviation="11.3437" result="effect1_foregroundBlur"/>
</filter>
<filter id="filter7_f" x="3.12312" y="-13.7842" width="35.2069" height="35.2067" filterUnits="userSpaceOnUse" color-interpolation-filters="sRGB">
<feFlood flood-opacity="0" result="BackgroundImageFix"/>
<feBlend mode="normal" in="SourceGraphic" in2="BackgroundImageFix" result="shape"/>
<feGaussianBlur stdDeviation="5.67184" result="effect1_foregroundBlur"/>
</filter>
<filter id="filter8_i" x="11.9736" y="2.39391" width="113.22" height="353.364" filterUnits="userSpaceOnUse" color-interpolation-filters="sRGB">
<feFlood flood-opacity="0" result="BackgroundImageFix"/>
<feBlend mode="normal" in="SourceGraphic" in2="BackgroundImageFix" result="shape"/>
<feColorMatrix in="SourceAlpha" type="matrix" values="0 0 0 0 0 0 0 0 0 0 0 0 0 0 0 0 0 0 127 0" result="hardAlpha"/>
<feOffset dy="-0.278207"/>
<feGaussianBlur stdDeviation="0.139104"/>
<feComposite in2="hardAlpha" operator="arithmetic" k2="-1" k3="1"/>
<feColorMatrix type="matrix" values="0 0 0 0 1 0 0 0 0 1 0 0 0 0 1 0 0 0 0.15 0"/>
<feBlend mode="normal" in2="shape" result="effect1_innerShadow"/>
</filter>
<filter id="filter9_i" x="6.67676" y="2.0918" width="118.516" height="354.64" filterUnits="userSpaceOnUse" color-interpolation-filters="sRGB">
<feFlood flood-opacity="0" result="BackgroundImageFix"/>
<feBlend mode="normal" in="SourceGraphic" in2="BackgroundImageFix" result="shape"/>
<feColorMatrix in="SourceAlpha" type="matrix" values="0 0 0 0 0 0 0 0 0 0 0 0 0 0 0 0 0 0 127 0" result="hardAlpha"/>
<feOffset dx="0.278207"/>
<feGaussianBlur stdDeviation="0.139104"/>
<feComposite in2="hardAlpha" operator="arithmetic" k2="-1" k3="1"/>
<feColorMatrix type="matrix" values="0 0 0 0 0 0 0 0 0 0 0 0 0 0 0 0 0 0 0.5 0"/>
<feBlend mode="normal" in2="shape" result="effect1_innerShadow"/>
</filter>
<filter id="filter10_f" x="-12.6717" y="-25.1278" width="64.8493" height="64.8492" filterUnits="userSpaceOnUse" color-interpolation-filters="sRGB">
<feFlood flood-opacity="0" result="BackgroundImageFix"/>
<feBlend mode="normal" in="SourceGraphic" in2="BackgroundImageFix" result="shape"/>
<feGaussianBlur stdDeviation="11.3437" result="effect1_foregroundBlur"/>
</filter>
<filter id="filter11_f" x="-8.61219" y="320.848" width="56.4519" height="56.4522" filterUnits="userSpaceOnUse" color-interpolation-filters="sRGB">
<feFlood flood-opacity="0" result="BackgroundImageFix"/>
<feBlend mode="normal" in="SourceGraphic" in2="BackgroundImageFix" result="shape"/>
<feGaussianBlur stdDeviation="9.45307" result="effect1_foregroundBlur"/>
</filter>
<filter id="filter12_f" x="92.8194" y="3.85654" width="46.6639" height="46.6641" filterUnits="userSpaceOnUse" color-interpolation-filters="sRGB">
<feFlood flood-opacity="0" result="BackgroundImageFix"/>
<feBlend mode="normal" in="SourceGraphic" in2="BackgroundImageFix" result="shape"/>
<feGaussianBlur stdDeviation="7.56245" result="effect1_foregroundBlur"/>
</filter>
<filter id="filter13_f" x="96.9923" y="327.968" width="44.7166" height="44.7166" filterUnits="userSpaceOnUse" color-interpolation-filters="sRGB">
<feFlood flood-opacity="0" result="BackgroundImageFix"/>
<feBlend mode="normal" in="SourceGraphic" in2="BackgroundImageFix" result="shape"/>
<feGaussianBlur stdDeviation="7.56245" result="effect1_foregroundBlur"/>
</filter>
<filter id="filter14_d" x="1.1084" y="103.418" width="4.31738" height="26.837" filterUnits="userSpaceOnUse" color-interpolation-filters="sRGB">
<feFlood flood-opacity="0" result="BackgroundImageFix"/>
<feColorMatrix in="SourceAlpha" type="matrix" values="0 0 0 0 0 0 0 0 0 0 0 0 0 0 0 0 0 0 127 0" result="hardAlpha"/>
<feOffset/>
<feColorMatrix type="matrix" values="0 0 0 0 0 0 0 0 0 0 0 0 0 0 0 0 0 0 0.5 0"/>
<feBlend mode="normal" in2="BackgroundImageFix" result="effect1_dropShadow"/>
<feBlend mode="normal" in="SourceGraphic" in2="effect1_dropShadow" result="shape"/>
</filter>
<filter id="filter15_d" x="1.1084" y="69.7545" width="4.31738" height="26.837" filterUnits="userSpaceOnUse" color-interpolation-filters="sRGB">
<feFlood flood-opacity="0" result="BackgroundImageFix"/>
<feColorMatrix in="SourceAlpha" type="matrix" values="0 0 0 0 0 0 0 0 0 0 0 0 0 0 0 0 0 0 127 0" result="hardAlpha"/>
<feOffset/>
<feColorMatrix type="matrix" values="0 0 0 0 0 0 0 0 0 0 0 0 0 0 0 0 0 0 0.5 0"/>
<feBlend mode="normal" in2="BackgroundImageFix" result="effect1_dropShadow"/>
<feBlend mode="normal" in="SourceGraphic" in2="effect1_dropShadow" result="shape"/>
</filter>
<filter id="filter16_d" x="1.80566" y="43.1672" width="2.64551" height="15.0605" filterUnits="userSpaceOnUse" color-interpolation-filters="sRGB">
<feFlood flood-opacity="0" result="BackgroundImageFix"/>
<feColorMatrix in="SourceAlpha" type="matrix" values="0 0 0 0 0 0 0 0 0 0 0 0 0 0 0 0 0 0 127 0" result="hardAlpha"/>
<feOffset/>
<feColorMatrix type="matrix" values="0 0 0 0 0 0 0 0 0 0 0 0 0 0 0 0 0 0 0.5 0"/>
<feBlend mode="normal" in2="BackgroundImageFix" result="effect1_dropShadow"/>
<feBlend mode="normal" in="SourceGraphic" in2="effect1_dropShadow" result="shape"/>
</filter>
<filter id="filter17_d" x="83.4504" y="25.658" width="2.80521" height="4.45218" filterUnits="userSpaceOnUse" color-interpolation-filters="sRGB">
<feFlood flood-opacity="0" result="BackgroundImageFix"/>
<feColorMatrix in="SourceAlpha" type="matrix" values="0 0 0 0 0 0 0 0 0 0 0 0 0 0 0 0 0 0 127 0" result="hardAlpha"/>
<feOffset/>
<feGaussianBlur stdDeviation="0.278207"/>
<feColorMatrix type="matrix" values="0 0 0 0 0 0 0 0 0 0 0 0 0 0 0 0 0 0 0.5 0"/>
<feBlend mode="normal" in2="BackgroundImageFix" result="effect1_dropShadow"/>
<feBlend mode="normal" in="SourceGraphic" in2="effect1_dropShadow" result="shape"/>
</filter>
<filter id="filter18_d" x="84.1719" y="26.5483" width="1.375" height="2.7132" filterUnits="userSpaceOnUse" color-interpolation-filters="sRGB">
<feFlood flood-opacity="0" result="BackgroundImageFix"/>
<feColorMatrix in="SourceAlpha" type="matrix" values="0 0 0 0 0 0 0 0 0 0 0 0 0 0 0 0 0 0 127 0" result="hardAlpha"/>
<feOffset/>
<feColorMatrix type="matrix" values="0 0 0 0 0.129412 0 0 0 0 0.45098 0 0 0 0 0.533333 0 0 0 0.27046 0"/>
<feBlend mode="normal" in2="BackgroundImageFix" result="effect1_dropShadow"/>
<feBlend mode="normal" in="SourceGraphic" in2="effect1_dropShadow" result="shape"/>
</filter>
<filter id="filter19_f" x="84.36" y="26.3758" width="1.93534" height="2.34733" filterUnits="userSpaceOnUse" color-interpolation-filters="sRGB">
<feFlood flood-opacity="0" result="BackgroundImageFix"/>
<feBlend mode="normal" in="SourceGraphic" in2="BackgroundImageFix" result="shape"/>
<feGaussianBlur stdDeviation="0.378123" result="effect1_foregroundBlur"/>
</filter>
<filter id="filter20_f" x="84.0592" y="26.2932" width="1.93534" height="2.34733" filterUnits="userSpaceOnUse" color-interpolation-filters="sRGB">
<feFlood flood-opacity="0" result="BackgroundImageFix"/>
<feBlend mode="normal" in="SourceGraphic" in2="BackgroundImageFix" result="shape"/>
<feGaussianBlur stdDeviation="0.378123" result="effect1_foregroundBlur"/>
</filter>
<linearGradient id="paint0_linear" x1="68.5027" y1="364.869" x2="70.0886" y2="358.5" gradientUnits="userSpaceOnUse">
<stop stop-color="#101010"/>
<stop offset="1" stop-color="#725543"/>
</linearGradient>
<linearGradient id="paint1_linear" x1="9.7373" y1="1.36438" x2="9.7373" y2="357.288" gradientUnits="userSpaceOnUse">
<stop stop-color="#3C3C3C"/>
<stop offset="0.968439" stop-color="#343434"/>
<stop offset="0.983847" stop-color="#181818"/>
<stop offset="1" stop-color="#161616"/>
</linearGradient>
<linearGradient id="paint2_linear" x1="9.26747" y1="438.204" x2="70.2656" y2="439.548" gradientUnits="userSpaceOnUse">
<stop stop-color="#414141"/>
<stop offset="1" stop-opacity="0.01"/>
</linearGradient>
<linearGradient id="paint3_linear" x1="10.0155" y1="29.3307" x2="0" y2="29.3307" gradientUnits="userSpaceOnUse">
<stop stop-color="#533C2F"/>
<stop offset="0.0270318" stop-color="#523C2F"/>
<stop offset="0.0291273" stop-color="#A28679"/>
<stop offset="0.342882" stop-color="#523B2E"/>
<stop offset="0.633328" stop-color="#543D30"/>
<stop offset="1" stop-color="#8C796D"/>
</linearGradient>
<linearGradient id="paint4_linear" x1="10.0155" y1="322.227" x2="0" y2="322.227" gradientUnits="userSpaceOnUse">
<stop stop-color="#533C2F"/>
<stop offset="0.0270318" stop-color="#523C2F"/>
<stop offset="0.0291273" stop-color="#A28679"/>
<stop offset="0.342882" stop-color="#523B2E"/>
<stop offset="0.633328" stop-color="#543D30"/>
<stop offset="1" stop-color="#8C796D"/>
</linearGradient>
<linearGradient id="paint5_linear" x1="2.4348" y1="116.807" x2="4.51678" y2="116.807" gradientUnits="userSpaceOnUse">
<stop stop-color="#19100D"/>
<stop offset="1" stop-color="#684C3F"/>
</linearGradient>
<linearGradient id="paint6_linear" x1="2.8466" y1="98.4325" x2="0.988441" y2="98.6179" gradientUnits="userSpaceOnUse">
<stop stop-color="#3E281D"/>
<stop offset="0.23911" stop-color="#633825"/>
<stop offset="1" stop-color="#EECFBA"/>
</linearGradient>
<linearGradient id="paint7_linear" x1="5.34098" y1="119.149" x2="2.06618" y2="119.176" gradientUnits="userSpaceOnUse">
<stop stop-opacity="0.01"/>
<stop offset="0.127182" stop-opacity="0.01"/>
<stop offset="0.474923" stop-opacity="0.0464564"/>
<stop offset="0.796741" stop-color="#2F1914"/>
<stop offset="0.824012" stop-color="white" stop-opacity="0.01"/>
<stop offset="1" stop-color="white" stop-opacity="0.01"/>
</linearGradient>
<linearGradient id="paint8_linear" x1="1.12216" y1="129.416" x2="4.4506" y2="129.416" gradientUnits="userSpaceOnUse">
<stop stop-color="#D7B6A0"/>
<stop offset="0.421456" stop-color="#BD8D71"/>
<stop offset="0.429269" stop-color="#101010"/>
<stop offset="1" stop-color="#101010"/>
</linearGradient>
<linearGradient id="paint9_linear" x1="2.4348" y1="83.1439" x2="4.51678" y2="83.1439" gradientUnits="userSpaceOnUse">
<stop stop-color="#19100D"/>
<stop offset="1" stop-color="#684C3F"/>
</linearGradient>
<linearGradient id="paint10_linear" x1="2.8466" y1="64.7695" x2="0.988441" y2="64.9549" gradientUnits="userSpaceOnUse">
<stop stop-color="#3E281D"/>
<stop offset="0.23911" stop-color="#633825"/>
<stop offset="1" stop-color="#EECFBA"/>
</linearGradient>
<linearGradient id="paint11_linear" x1="5.34098" y1="85.4861" x2="2.06618" y2="85.5133" gradientUnits="userSpaceOnUse">
<stop stop-opacity="0.01"/>
<stop offset="0.127182" stop-opacity="0.01"/>
<stop offset="0.474923" stop-opacity="0.0464564"/>
<stop offset="0.796741" stop-color="#2F1914"/>
<stop offset="0.824012" stop-color="white" stop-opacity="0.01"/>
<stop offset="1" stop-color="white" stop-opacity="0.01"/>
</linearGradient>
<linearGradient id="paint12_linear" x1="1.12216" y1="95.7532" x2="4.4506" y2="95.7532" gradientUnits="userSpaceOnUse">
<stop stop-color="#D7B6A0"/>
<stop offset="0.421456" stop-color="#BD8D71"/>
<stop offset="0.429269" stop-color="#101010"/>
<stop offset="1" stop-color="#101010"/>
</linearGradient>
<linearGradient id="paint13_linear" x1="1.24805" y1="58.6159" x2="4.45099" y2="58.6159" gradientUnits="userSpaceOnUse">
<stop stop-color="#84604F"/>
<stop offset="0.54289" stop-color="#462712"/>
<stop offset="1" stop-color="#01100B"/>
</linearGradient>
<linearGradient id="paint14_linear" x1="1.76759" y1="42.7337" x2="1.76759" y2="58.2277" gradientUnits="userSpaceOnUse">
<stop stop-color="#3E281D"/>
<stop offset="0.139665" stop-color="#D9B9A4"/>
<stop offset="0.886551" stop-color="#E1C0AC"/>
<stop offset="1" stop-color="#482C1F"/>
</linearGradient>
<linearGradient id="paint15_linear" x1="1.76367" y1="43.2318" x2="1.76367" y2="58.1814" gradientUnits="userSpaceOnUse">
<stop stop-color="#3E281D"/>
<stop offset="0.12352" stop-color="#F9E5D7"/>
<stop offset="0.876947" stop-color="#F8E3D5"/>
<stop offset="1" stop-color="#482C1F"/>
</linearGradient>
<linearGradient id="paint16_linear" x1="1.81214" y1="57.7666" x2="3.61505" y2="57.7666" gradientUnits="userSpaceOnUse">
<stop stop-color="#D7B6A0"/>
<stop offset="0.421456" stop-color="#BD8D71"/>
<stop offset="0.429269" stop-color="#101010"/>
<stop offset="1" stop-color="#101010"/>
</linearGradient>
<linearGradient id="paint17_linear" x1="70.8682" y1="23.5262" x2="70.6543" y2="27.3145" gradientUnits="userSpaceOnUse">
<stop stop-color="#101010"/>
<stop offset="0.321764" stop-color="#191919"/>
<stop offset="1" stop-color="#191919"/>
</linearGradient>
<linearGradient id="paint18_linear" x1="79.3665" y1="21.3935" x2="65.5543" y2="19.2527" gradientUnits="userSpaceOnUse">
<stop stop-color="#595959"/>
<stop offset="0.060809" stop-color="#0C0C0C"/>
<stop offset="0.426006" stop-color="#141414"/>
<stop offset="0.928024" stop-color="#100F0F"/>
<stop offset="1"/>
</linearGradient>
<linearGradient id="paint19_linear" x1="83.4793" y1="27.6212" x2="86.113" y2="30.3727" gradientUnits="userSpaceOnUse">
<stop stop-color="#101010"/>
<stop offset="1" stop-color="#323436"/>
</linearGradient>
<linearGradient id="paint20_linear" x1="85.9222" y1="25.6798" x2="84.5957" y2="28.8276" gradientUnits="userSpaceOnUse">
<stop/>
<stop offset="1" stop-color="#3C3C3C" stop-opacity="0.596835"/>
</linearGradient>
<linearGradient id="paint21_linear" x1="83.9602" y1="26.6656" x2="85.4232" y2="29.2697" gradientUnits="userSpaceOnUse">
<stop stop-color="#003472"/>
<stop offset="0.605134" stop-color="#00050B" stop-opacity="0.0965401"/>
<stop offset="1" stop-color="#305379"/>
</linearGradient>
<linearGradient id="paint22_linear" x1="84.089" y1="26.9593" x2="85.3685" y2="28.9907" gradientUnits="userSpaceOnUse">
<stop stop-color="#217388"/>
<stop offset="0.186067" stop-color="#1D4455"/>
<stop offset="0.581198" stop-opacity="0.01"/>
<stop offset="1" stop-color="#6299E0"/>
</linearGradient>
<radialGradient id="paint23_radial" cx="0" cy="0" r="1" gradientUnits="userSpaceOnUse" gradientTransform="translate(84.8588 27.905) rotate(81.2328) scale(0.950295 2.41533)">
<stop/>
<stop offset="1" stop-color="#003B81"/>
</radialGradient>
</defs>
</svg>
