<svg width="205" height="403" viewBox="0 0 205 403" fill="none" xmlns="http://www.w3.org/2000/svg">
<g filter="url(#filter0_f)">
<path fill-rule="evenodd" clip-rule="evenodd" d="M156.313 323.426C161.878 316.697 161.258 306.828 154.898 300.896L80.4633 231.468L48.0787 279.391C43.4908 286.181 44.5648 295.28 50.6024 300.775L108.815 353.75C115.776 360.085 126.655 359.291 132.677 352.008L156.313 323.426Z" fill="url(#paint0_linear)"/>
</g>
<path d="M148.497 23.9319L148.499 23.9326C159.135 26.7344 166.287 38.7645 166.287 53.5169V334.945C166.287 347.303 158.53 359.228 145.599 359.228H114.584C114.295 359.08 113.956 358.978 113.654 358.978H103.992C103.655 358.978 103.231 359.082 102.881 359.228H66.993C58.1917 359.228 51.9586 355.895 47.9179 350.626C43.869 345.346 42 338.093 42 330.228V26.5955C42 16.8796 44.9904 9.88744 49.55 5.69681C54.1054 1.50995 60.2614 0.087067 66.6732 1.56993L148.497 23.9319Z" fill="#F6E7D8" stroke="#101010" stroke-width="0.55796"/>
<mask id="mask0" style="mask-type:alpha" maskUnits="userSpaceOnUse" x="41" y="0" width="126" height="360">
<path d="M148.497 23.9319L148.499 23.9326C159.135 26.7344 166.287 38.7645 166.287 53.5169V334.945C166.287 347.303 158.53 359.228 145.599 359.228H114.584C114.295 359.08 113.956 358.978 113.654 358.978H103.992C103.655 358.978 103.231 359.082 102.881 359.228H66.993C58.1917 359.228 51.9586 355.895 47.9179 350.626C43.869 345.346 42 338.093 42 330.228V26.5955C42 16.8796 44.9904 9.88744 49.55 5.69681C54.1054 1.50995 60.2614 0.087067 66.6732 1.56993L148.497 23.9319Z" fill="white" stroke="white" stroke-width="0.55796"/>
</mask>
<g mask="url(#mask0)">
<g filter="url(#filter1_f)">
<path fill-rule="evenodd" clip-rule="evenodd" d="M68.3814 358.396C50.6201 358.396 43.1094 346.035 43.1094 330.227V26.5946C43.1094 7.05185 55.1431 -1.70816 68.1298 1.29848L156.58 358.681L68.3814 358.396Z" fill="#B68D74"/>
</g>
<g filter="url(#filter2_i)">
<path fill-rule="evenodd" clip-rule="evenodd" d="M146.54 359.506H64.882C54.7985 359.506 46.838 353.449 44.0938 343.696C45.9775 347.691 50.6131 357.841 63.2174 357.841L146.262 358.119C156.035 358.119 160.254 353.1 162.716 349.15C159.778 355.772 154.143 359.506 146.54 359.506Z" fill="#272727"/>
</g>
<g filter="url(#filter3_f)">
<path fill-rule="evenodd" clip-rule="evenodd" d="M57.8122 356.454C51.6833 356.454 46.7148 351.486 46.7148 345.357C46.7148 339.228 51.6833 334.259 57.8122 334.259C63.9411 334.259 68.9096 339.228 68.9096 345.357C68.9096 351.486 63.9411 356.454 57.8122 356.454Z" fill="black" fill-opacity="0.5"/>
</g>
<g filter="url(#filter4_ddd)">
<path d="M110.781 362.799L102.385 362.93C101.299 362.964 101.021 362.305 101.588 361.361C101.985 360.701 102.261 358.956 104.633 358.811L113.518 358.814C114.975 358.901 114.568 359.882 113.898 361.11C113.475 361.885 111.765 362.766 110.781 362.799Z" fill="url(#paint1_linear)"/>
</g>
<path fill-rule="evenodd" clip-rule="evenodd" d="M142.468 26.8532C154.385 30.2551 160.186 41.4711 160.186 55.4591V334.119C160.186 341.706 155.976 356.461 146.161 356.461L68.3553 356.454C57.529 356.446 45.0508 350.91 45.0508 329.543V25.9012C45.0508 8.71636 54.7338 1.8725 65.078 4.48926L142.468 26.8532Z" fill="#01100B"/>
<path fill-rule="evenodd" clip-rule="evenodd" d="M142.744 26.8534C154.662 30.2552 160.463 41.4713 160.463 55.4592V334.119C160.463 341.706 156.253 356.184 146.437 356.184L71.6834 356.177C59.1925 356.169 48.3789 350.91 48.3789 329.543V27.0112C48.3789 9.82628 53.3455 2.70498 68.4062 4.76688L142.744 26.8534Z" fill="#AA7E62"/>
<mask id="mask1" style="mask-type:alpha" maskUnits="userSpaceOnUse" x="48" y="4" width="113" height="353">
<path fill-rule="evenodd" clip-rule="evenodd" d="M142.744 26.8534C154.662 30.2552 160.463 41.4713 160.463 55.4592V334.119C160.463 341.706 156.253 356.184 146.437 356.184L71.6834 356.177C59.1925 356.169 48.3789 350.91 48.3789 329.543V27.0112C48.3789 9.82628 53.3455 2.70498 68.4062 4.76688L142.744 26.8534Z" fill="white"/>
</mask>
<g mask="url(#mask1)">
<g filter="url(#filter5_f)">
<path fill-rule="evenodd" clip-rule="evenodd" d="M74.1795 356.177C74.1795 356.177 50.875 350.91 50.875 329.543V29.7856C50.875 12.6007 55.8416 5.4794 70.9022 7.5413L74.1795 356.177Z" fill="#FFF5EC"/>
</g>
<g opacity="0.50093" filter="url(#filter6_f)">
<path opacity="0.50093" fill-rule="evenodd" clip-rule="evenodd" d="M57.5349 22.978C51.406 22.978 46.4375 18.0095 46.4375 11.8806C46.4375 5.75166 51.406 0.783203 57.5349 0.783203C63.6638 0.783203 68.6323 5.75166 68.6323 11.8806C68.6323 18.0095 63.6638 22.978 57.5349 22.978Z" fill="black"/>
</g>
<g opacity="0.495791" filter="url(#filter7_f)">
<path opacity="0.495791" fill-rule="evenodd" clip-rule="evenodd" d="M62.2506 364.5C54.5895 364.5 48.3789 358.289 48.3789 350.628C48.3789 342.967 54.5895 336.756 62.2506 336.756C69.9118 336.756 76.1223 342.967 76.1223 350.628C76.1223 358.289 69.9118 364.5 62.2506 364.5Z" fill="black"/>
</g>
<path d="M148.809 24.2129C160.642 27.5904 166.427 39.2825 166.427 53.2396V334.119C166.427 337.893 165.378 343.595 163.005 348.35C160.631 353.108 156.953 356.877 151.708 356.877L71.406 356.869C66.721 356.865 61.7672 355.146 57.9831 350.881C54.1982 346.615 51.5703 339.787 51.5703 329.543V25.0689C51.5703 16.7693 53.3642 10.5232 56.597 6.68031C59.8207 2.84812 64.493 1.38501 70.3146 2.68262L148.809 24.2129Z" fill="url(#paint2_linear)"/>
<path d="M148.809 24.2129C160.642 27.5904 166.427 39.2825 166.427 53.2396V334.119C166.427 337.893 165.378 343.595 163.005 348.35C160.631 353.108 156.953 356.877 151.708 356.877L71.406 356.869C66.721 356.865 61.7672 355.146 57.9831 350.881C54.1982 346.615 51.5703 339.787 51.5703 329.543V25.0689C51.5703 16.7693 53.3642 10.5232 56.597 6.68031C59.8207 2.84812 64.493 1.38501 70.3146 2.68262L148.809 24.2129Z" fill="url(#paint3_linear)"/>
<path d="M148.809 24.2129C160.642 27.5904 166.427 39.2825 166.427 53.2396V334.119C166.427 337.893 165.378 343.595 163.005 348.35C160.631 353.108 156.953 356.877 151.708 356.877L71.406 356.869C66.721 356.865 61.7672 355.146 57.9831 350.881C54.1982 346.615 51.5703 339.787 51.5703 329.543V25.0689C51.5703 16.7693 53.3642 10.5232 56.597 6.68031C59.8207 2.84812 64.493 1.38501 70.3146 2.68262L148.809 24.2129Z" stroke="black" stroke-width="0.27898"/>
</g>
<mask id="mask2" style="mask-type:alpha" maskUnits="userSpaceOnUse" x="51" y="2" width="116" height="356">
<path d="M148.809 24.2129C160.642 27.5904 166.427 39.2825 166.427 53.2396V334.119C166.427 337.893 165.378 343.595 163.005 348.35C160.631 353.108 156.953 356.877 151.708 356.877L71.406 356.869C66.721 356.865 61.7672 355.146 57.9831 350.881C54.1982 346.615 51.5703 339.787 51.5703 329.543V25.0689C51.5703 16.7693 53.3642 10.5232 56.597 6.68031C59.8207 2.84812 64.493 1.38501 70.3146 2.68262L148.809 24.2129Z" fill="white"/>
<path d="M148.809 24.2129C160.642 27.5904 166.427 39.2825 166.427 53.2396V334.119C166.427 337.893 165.378 343.595 163.005 348.35C160.631 353.108 156.953 356.877 151.708 356.877L71.406 356.869C66.721 356.865 61.7672 355.146 57.9831 350.881C54.1982 346.615 51.5703 339.787 51.5703 329.543V25.0689C51.5703 16.7693 53.3642 10.5232 56.597 6.68031C59.8207 2.84812 64.493 1.38501 70.3146 2.68262L148.809 24.2129Z" stroke="white" stroke-width="0.27898"/>
</mask>
<g mask="url(#mask2)">
<g filter="url(#filter8_f)">
<path fill-rule="evenodd" clip-rule="evenodd" d="M62.3906 10.7707C58.9431 10.7707 56.1484 7.97592 56.1484 4.52841C56.1484 1.0809 58.9431 -1.71387 62.3906 -1.71387C65.8382 -1.71387 68.6329 1.0809 68.6329 4.52841C68.6329 7.97592 65.8382 10.7707 62.3906 10.7707Z" fill="black"/>
</g>
<path fill-rule="evenodd" clip-rule="evenodd" d="M51.7103 30.1912V32.6882C49.8047 32.4509 48.1075 32.4563 46.6187 32.7045C45.1299 32.9526 43.4979 33.502 41.7227 34.3528V31.8558C43.1556 31.0622 44.796 30.5113 46.644 30.2033C48.4919 29.8953 50.1807 29.8913 51.7103 30.1912Z" fill="url(#paint4_linear)"/>
<path fill-rule="evenodd" clip-rule="evenodd" d="M51.7103 322.052V324.549H41.7227V322.052H51.7103Z" fill="url(#paint5_linear)"/>
<g filter="url(#filter9_i)">
<path fill-rule="evenodd" clip-rule="evenodd" d="M149.088 25.4198C160.671 28.6771 166.292 39.5658 166.292 53.2395V335.506C166.292 339.607 164.949 344.582 163.155 347.904C161.36 351.227 157.593 355.212 152.545 355.212H73.3838C60.2243 355.208 53.9414 344.222 53.9414 331.473V23.6817C53.9414 10.9106 60.0645 2.07592 69.8014 3.90082L149.088 25.4198Z" fill="black"/>
</g>
<path d="M149.124 25.2856L149.123 25.2852L69.8368 3.76629L69.837 3.76586L69.826 3.76381C64.9033 2.84118 60.8865 4.61646 58.1083 8.23286C55.3357 11.8421 53.8008 17.2771 53.8008 23.6818V331.473C53.8008 337.868 55.3763 343.834 58.6146 348.205C61.8565 352.581 66.7587 355.35 73.3827 355.352H152.543C157.666 355.352 161.471 351.311 163.275 347.971C165.08 344.629 166.43 339.631 166.43 335.506V53.2396C166.43 39.5323 160.791 28.5666 149.124 25.2856Z" stroke="black" stroke-width="0.27898"/>
</g>
<mask id="mask3" style="mask-type:alpha" maskUnits="userSpaceOnUse" x="53" y="3" width="114" height="353">
<path d="M149.124 25.2856L149.123 25.2852L69.8368 3.76629L69.837 3.76586L69.826 3.76381C64.9033 2.84118 60.8865 4.61646 58.1083 8.23286C55.3357 11.8421 53.8008 17.2771 53.8008 23.6818V331.473C53.8008 337.868 55.3763 343.834 58.6146 348.205C61.8565 352.581 66.7587 355.35 73.3827 355.352H152.543C157.666 355.352 161.471 351.311 163.275 347.971C165.08 344.629 166.43 339.631 166.43 335.506V53.2396C166.43 39.5323 160.791 28.5666 149.124 25.2856Z" fill="white" stroke="white" stroke-width="0.27898"/>
</mask>
<g mask="url(#mask3)">
<g filter="url(#filter10_i)">
<path fill-rule="evenodd" clip-rule="evenodd" d="M122.046 356.459L71.6834 356.454C60.8571 356.446 48.3789 350.91 48.3789 329.543V27.0111C48.3789 9.82623 53.3455 1.04032 68.4062 3.10223L148.57 24.6338C160.488 28.0357 166.289 38.6969 166.289 52.6848V334.119C166.289 344.758 162.079 356.461 152.263 356.461H149.834C157.685 356.411 165.456 347.77 165.456 334.119V53.5171C165.456 39.5292 159.933 28.0357 148.015 24.6338L73.1225 4.4894C58.0619 0.485455 55.8696 9.82623 55.8696 27.0111V329.543C55.8696 350.91 65.0186 356.446 75.8449 356.454L122.046 356.459Z" fill="#949494"/>
</g>
<mask id="mask4" style="mask-type:alpha" maskUnits="userSpaceOnUse" x="48" y="2" width="119" height="355">
<path fill-rule="evenodd" clip-rule="evenodd" d="M122.046 356.459L71.6834 356.454C60.8571 356.446 48.3789 350.91 48.3789 329.543V27.0111C48.3789 9.82623 53.3455 1.04032 68.4062 3.10223L148.57 24.6338C160.488 28.0357 166.289 38.6969 166.289 52.6848V334.119C166.289 344.758 162.079 356.461 152.263 356.461H149.834C157.685 356.411 165.456 347.77 165.456 334.119V53.5171C165.456 39.5292 159.933 28.0357 148.015 24.6338L73.1225 4.4894C58.0619 0.485455 55.8696 9.82623 55.8696 27.0111V329.543C55.8696 350.91 65.0186 356.446 75.8449 356.454L122.046 356.459Z" fill="white"/>
</mask>
<g mask="url(#mask4)">
<g filter="url(#filter11_f)">
<path fill-rule="evenodd" clip-rule="evenodd" d="M61.4172 17.7066C56.0544 17.7066 51.707 13.3592 51.707 7.99633C51.707 2.63354 56.0544 -1.71387 61.4172 -1.71387C66.78 -1.71387 71.1274 2.63354 71.1274 7.99633C71.1274 13.3592 66.78 17.7066 61.4172 17.7066Z" fill="black"/>
</g>
<g filter="url(#filter12_f)">
<path fill-rule="evenodd" clip-rule="evenodd" d="M61.2785 358.119C56.1455 358.119 51.9844 353.958 51.9844 348.825C51.9844 343.692 56.1455 339.53 61.2785 339.53C66.4115 339.53 70.5725 343.692 70.5725 348.825C70.5725 353.958 66.4115 358.119 61.2785 358.119Z" fill="black"/>
</g>
<g filter="url(#filter13_f)">
<path fill-rule="evenodd" clip-rule="evenodd" d="M157.547 36.0175C153.027 36.0175 149.363 32.3532 149.363 27.8332C149.363 23.3131 153.027 19.6489 157.547 19.6489C162.067 19.6489 165.731 23.3131 165.731 27.8332C165.731 32.3532 162.067 36.0175 157.547 36.0175Z" fill="black"/>
</g>
<g filter="url(#filter14_f)">
<path fill-rule="evenodd" clip-rule="evenodd" d="M160.74 357.286C156.756 357.286 153.527 354.057 153.527 350.073C153.527 346.089 156.756 342.86 160.74 342.86C164.724 342.86 167.953 346.089 167.953 350.073C167.953 354.057 164.724 357.286 160.74 357.286Z" fill="black"/>
</g>
</g>
</g>
<path d="M42.8281 105.793C42.8281 104.49 43.885 103.434 45.1889 103.434C46.493 103.434 47.5497 104.49 47.5497 105.793V128.284C47.5497 129.586 46.4404 130.932 45.193 130.968C43.9455 131.005 42.8281 130.697 42.8281 128.423V105.793Z" fill="url(#paint6_linear)"/>
</g>
<mask id="mask5" style="mask-type:alpha" maskUnits="userSpaceOnUse" x="42" y="103" width="6" height="28">
<path d="M42.8281 105.793C42.8281 104.49 43.885 103.434 45.1889 103.434C46.493 103.434 47.5497 104.49 47.5497 105.793V128.284C47.5497 129.586 46.4404 130.932 45.193 130.968C43.9455 131.005 42.8281 130.697 42.8281 128.423V105.793Z" fill="white"/>
</mask>
<g mask="url(#mask5)">
<g filter="url(#filter15_d)">
<path fill-rule="evenodd" clip-rule="evenodd" d="M45.05 103.85C46.3541 103.85 47.1331 104.906 47.1331 106.209V127.301C47.1331 128.604 46.5531 130.012 45.3237 130.446L45.0541 130.541C43.9625 130.836 42.8281 130.27 42.8281 127.995V106.209C42.8281 104.906 43.7462 103.85 45.05 103.85Z" fill="url(#paint7_linear)"/>
<path fill-rule="evenodd" clip-rule="evenodd" d="M45.05 103.85C46.3541 103.85 47.1331 104.906 47.1331 106.209V127.301C47.1331 128.604 46.5531 130.012 45.3237 130.446L45.0541 130.541C43.9625 130.836 42.8281 130.27 42.8281 127.995V106.209C42.8281 104.906 43.7462 103.85 45.05 103.85Z" fill="url(#paint8_linear)"/>
</g>
<path fill-rule="evenodd" clip-rule="evenodd" d="M46.161 106.348V127.163C46.161 128.539 45.4379 129.317 44.7677 129.645C44.0976 129.972 43.6159 129.8 43.3739 129.615C43.0401 129.359 42.8281 128.791 42.8281 127.857V106.348C42.8281 105.178 43.477 104.405 44.4945 104.405C45.5122 104.405 46.161 105.178 46.161 106.348Z" fill="url(#paint9_linear)"/>
</g>
<mask id="mask6" style="mask-type:alpha" maskUnits="userSpaceOnUse" x="42" y="69" width="6" height="29">
<path d="M42.8281 72.2233C42.8281 70.9202 43.885 69.8643 45.1889 69.8643C46.493 69.8643 47.5497 70.9205 47.5497 72.2235V94.7146C47.5497 96.0168 46.4404 97.3622 45.193 97.3989C43.9455 97.4356 42.8281 97.1278 42.8281 94.8536V72.2233Z" fill="white"/>
</mask>
<g mask="url(#mask6)">
<g filter="url(#filter16_d)">
<path fill-rule="evenodd" clip-rule="evenodd" d="M45.05 70.2808C46.3541 70.2808 47.1331 71.337 47.1331 72.64V93.7318C47.1331 95.0341 46.5531 96.4425 45.3237 96.8761L45.0541 96.9712C43.9625 97.2664 42.8281 96.7001 42.8281 94.4259V72.6398C42.8281 71.3367 43.7462 70.2808 45.05 70.2808Z" fill="url(#paint10_linear)"/>
<path fill-rule="evenodd" clip-rule="evenodd" d="M45.05 70.2808C46.3541 70.2808 47.1331 71.337 47.1331 72.64V93.7318C47.1331 95.0341 46.5531 96.4425 45.3237 96.8761L45.0541 96.9712C43.9625 97.2664 42.8281 96.7001 42.8281 94.4259V72.6398C42.8281 71.3367 43.7462 70.2808 45.05 70.2808Z" fill="url(#paint11_linear)"/>
</g>
<path fill-rule="evenodd" clip-rule="evenodd" d="M46.161 72.7787V93.5931C46.161 94.9692 45.4379 95.7476 44.7677 96.0751C44.0976 96.4027 43.6159 96.2308 43.3739 96.0454C43.0401 95.7897 42.8281 95.221 42.8281 94.2871V72.7786C42.8281 71.6085 43.477 70.8359 44.4945 70.8359C45.5122 70.8359 46.161 71.6085 46.161 72.7787Z" fill="url(#paint12_linear)"/>
</g>
<mask id="mask7" style="mask-type:alpha" maskUnits="userSpaceOnUse" x="42" y="43" width="5" height="17">
<path fill-rule="evenodd" clip-rule="evenodd" d="M42.9688 45.5894C42.9688 44.6206 43.4064 43.7856 44.913 43.7856C45.8952 43.7856 46.1629 44.7611 46.1629 45.0345V57.2454C46.1629 57.5241 46.027 58.7843 44.913 58.98C43.9269 59.1532 42.9688 59.6528 42.9688 57.8005V45.5894Z" fill="white"/>
</mask>
<g mask="url(#mask7)">
<g filter="url(#filter17_d)">
<path fill-rule="evenodd" clip-rule="evenodd" d="M44.79 43.7676C45.4622 43.7676 46.1617 44.0677 46.1617 45.3126V57.0188C46.1617 58.5407 45.5356 58.617 44.9132 58.7341L44.79 58.7569C44.2207 58.8906 43.535 58.5906 43.535 57.3864V45.5901C43.535 44.9001 43.3151 43.7676 44.79 43.7676Z" fill="url(#paint13_linear)"/>
</g>
<path fill-rule="evenodd" clip-rule="evenodd" d="M43.481 45.1084C43.481 44.4183 44.0044 43.8315 44.7028 43.8315C45.4015 43.8315 45.7444 44.4182 45.7444 45.1084L45.6678 57.0528C45.6678 57.7425 45.5059 58.4149 44.8473 58.6445L44.7028 58.6949C44.1181 58.8512 43.4805 58.6361 43.4805 57.4316L43.481 45.1084Z" fill="url(#paint14_linear)"/>
<path fill-rule="evenodd" clip-rule="evenodd" d="M45.3248 45.0931V56.9418C45.3248 57.6713 44.9331 58.084 44.5702 58.2577C44.2072 58.4313 43.9462 58.3402 43.8152 58.2419C43.6344 58.1063 43.5195 57.8049 43.5195 57.3097V45.093C43.5195 44.4726 43.871 44.063 44.4222 44.063C44.9734 44.063 45.3248 44.4727 45.3248 45.0931Z" fill="url(#paint15_linear)"/>
</g>
<mask id="mask8" style="mask-type:alpha" maskUnits="userSpaceOnUse" x="125" y="25" width="4" height="7">
<path d="M125.475 28.9675C125.636 29.6401 125.945 30.205 126.317 30.5734C126.688 30.941 127.132 31.121 127.557 30.9941C127.981 30.8677 128.282 30.4673 128.438 29.945C128.594 29.4208 128.608 28.7609 128.446 28.0881C128.284 27.4154 127.976 26.8506 127.604 26.4822C127.233 26.1146 126.789 25.9346 126.363 26.0615C125.94 26.1879 125.638 26.5883 125.483 27.1106C125.327 27.6348 125.313 28.2947 125.475 28.9675Z" fill="white" stroke="white" stroke-width="0.13949"/>
</mask>
<g mask="url(#mask8)">
<g filter="url(#filter18_d)">
<path fill-rule="evenodd" clip-rule="evenodd" d="M127.179 28.9856C127.232 28.1019 126.899 27.1801 126.436 26.9267C125.973 26.6733 125.555 27.1842 125.502 28.068C125.449 28.9517 125.781 29.8735 126.244 30.1269C126.707 30.3803 127.126 29.8693 127.179 28.9856Z" fill="url(#paint16_linear)"/>
</g>
<mask id="mask9" style="mask-type:alpha" maskUnits="userSpaceOnUse" x="125" y="26" width="3" height="5">
<path fill-rule="evenodd" clip-rule="evenodd" d="M127.179 28.9856C127.232 28.1019 126.899 27.1801 126.436 26.9267C125.973 26.6733 125.555 27.1842 125.502 28.068C125.449 28.9517 125.781 29.8735 126.244 30.1269C126.707 30.3803 127.126 29.8693 127.179 28.9856Z" fill="white"/>
</mask>
<g mask="url(#mask9)">
<g filter="url(#filter19_d)">
<path fill-rule="evenodd" clip-rule="evenodd" d="M127.027 28.9205C127.07 28.2025 126.8 27.4535 126.424 27.2476C126.048 27.0417 125.708 27.4569 125.665 28.1749C125.622 28.8929 125.892 29.6419 126.268 29.8478C126.644 30.0537 126.984 29.6385 127.027 28.9205Z" fill="url(#paint17_linear)"/>
</g>
<path fill-rule="evenodd" clip-rule="evenodd" d="M126.817 28.8055C126.846 28.3084 126.66 27.7898 126.399 27.6473C126.139 27.5048 125.903 27.7922 125.874 28.2893C125.844 28.7864 126.031 29.3049 126.291 29.4474C126.552 29.59 126.787 29.3026 126.817 28.8055Z" fill="url(#paint18_radial)"/>
<g filter="url(#filter20_f)">
<path fill-rule="evenodd" clip-rule="evenodd" d="M127.022 28.3079C127.036 28.0869 126.953 27.8565 126.837 27.7931C126.721 27.7298 126.617 27.8575 126.603 28.0784C126.59 28.2994 126.673 28.5298 126.789 28.5932C126.905 28.6565 127.009 28.5288 127.022 28.3079Z" fill="#0D1343"/>
</g>
<path opacity="0.351795" fill-rule="evenodd" clip-rule="evenodd" d="M126.195 28.0926C126.205 27.9269 126.142 27.7541 126.055 27.7065C125.969 27.659 125.89 27.7548 125.88 27.9205C125.87 28.0862 125.933 28.2591 126.019 28.3066C126.106 28.3541 126.185 28.2583 126.195 28.0926Z" fill="#8361FF"/>
<path opacity="0.28111" fill-rule="evenodd" clip-rule="evenodd" d="M126.791 29.0579C126.804 28.8369 126.721 28.6065 126.605 28.5431C126.49 28.4798 126.385 28.6075 126.372 28.8284C126.359 29.0494 126.442 29.2798 126.557 29.3432C126.673 29.4065 126.778 29.2788 126.791 29.0579Z" fill="#37759E"/>
<g opacity="0.773996" filter="url(#filter21_f)">
<path opacity="0.773996" fill-rule="evenodd" clip-rule="evenodd" d="M126.722 28.2252C126.735 28.0043 126.652 27.7739 126.536 27.7105C126.42 27.6472 126.316 27.7749 126.302 27.9958C126.289 28.2168 126.372 28.4472 126.488 28.5106C126.604 28.5739 126.708 28.4462 126.722 28.2252Z" fill="#513CDA"/>
</g>
</g>
</g>
<mask id="mask10" style="mask-type:alpha" maskUnits="userSpaceOnUse" x="59" y="10" width="105" height="340">
<path fill-rule="evenodd" clip-rule="evenodd" d="M150.746 31.5026C158.276 33.5105 163.237 39.4975 163.237 50.0648C163.237 239.692 163.237 334.516 163.237 334.536C163.187 341.928 159.718 349.477 151.772 349.427L72.4095 348.792C65.0966 348.733 59.1992 342.511 59.1992 332.146V24.3257C59.1992 11.2498 66.4305 9.09254 71.7603 10.5138L81.6765 13.1489C82.8516 13.4611 83.6865 14.5022 83.7361 15.717L83.858 18.704C84.0423 23.22 87.1587 27.0841 91.5333 28.2206L134.873 39.4804C137.691 40.2124 140.568 38.5217 141.3 35.704C141.338 35.5587 141.549 33.8157 141.932 30.4752C142.002 29.8663 142.552 29.4293 143.161 29.4991C143.214 29.5053 150.746 31.5026 150.746 31.5026Z" fill="white"/>
</mask>
<g mask="url(#mask10)">
<path fill-rule="evenodd" clip-rule="evenodd" d="M59.1992 7.16406L163.237 34.3851L162.716 348.794H59.5018L59.1992 7.16406Z" fill="#FDA4A4"/>
</g>
<defs>
<filter id="filter0_f" x="0.400387" y="186.626" width="204.551" height="216.246" filterUnits="userSpaceOnUse" color-interpolation-filters="sRGB">
<feFlood flood-opacity="0" result="BackgroundImageFix"/>
<feBlend mode="normal" in="SourceGraphic" in2="BackgroundImageFix" result="shape"/>
<feGaussianBlur stdDeviation="22.4209" result="effect1_foregroundBlur"/>
</filter>
<filter id="filter1_f" x="40.076" y="-2.31317" width="119.536" height="364.027" filterUnits="userSpaceOnUse" color-interpolation-filters="sRGB">
<feFlood flood-opacity="0" result="BackgroundImageFix"/>
<feBlend mode="normal" in="SourceGraphic" in2="BackgroundImageFix" result="shape"/>
<feGaussianBlur stdDeviation="1.51669" result="effect1_foregroundBlur"/>
</filter>
<filter id="filter2_i" x="44.0938" y="343.417" width="118.621" height="16.089" filterUnits="userSpaceOnUse" color-interpolation-filters="sRGB">
<feFlood flood-opacity="0" result="BackgroundImageFix"/>
<feBlend mode="normal" in="SourceGraphic" in2="BackgroundImageFix" result="shape"/>
<feColorMatrix in="SourceAlpha" type="matrix" values="0 0 0 0 0 0 0 0 0 0 0 0 0 0 0 0 0 0 127 0" result="hardAlpha"/>
<feOffset dy="-0.55796"/>
<feGaussianBlur stdDeviation="0.13949"/>
<feComposite in2="hardAlpha" operator="arithmetic" k2="-1" k3="1"/>
<feColorMatrix type="matrix" values="0 0 0 0 0 0 0 0 0 0 0 0 0 0 0 0 0 0 1 0"/>
<feBlend mode="normal" in2="shape" result="effect1_innerShadow"/>
</filter>
<filter id="filter3_f" x="23.9644" y="311.508" width="67.6961" height="67.6959" filterUnits="userSpaceOnUse" color-interpolation-filters="sRGB">
<feFlood flood-opacity="0" result="BackgroundImageFix"/>
<feBlend mode="normal" in="SourceGraphic" in2="BackgroundImageFix" result="shape"/>
<feGaussianBlur stdDeviation="11.3752" result="effect1_foregroundBlur"/>
</filter>
<filter id="filter4_ddd" x="101.022" y="358.532" width="13.7611" height="4.67832" filterUnits="userSpaceOnUse" color-interpolation-filters="sRGB">
<feFlood flood-opacity="0" result="BackgroundImageFix"/>
<feColorMatrix in="SourceAlpha" type="matrix" values="0 0 0 0 0 0 0 0 0 0 0 0 0 0 0 0 0 0 127 0" result="hardAlpha"/>
<feOffset/>
<feGaussianBlur stdDeviation="0.13949"/>
<feColorMatrix type="matrix" values="0 0 0 0 1 0 0 0 0 1 0 0 0 0 1 0 0 0 0.5 0"/>
<feBlend mode="normal" in2="BackgroundImageFix" result="effect1_dropShadow"/>
<feColorMatrix in="SourceAlpha" type="matrix" values="0 0 0 0 0 0 0 0 0 0 0 0 0 0 0 0 0 0 127 0" result="hardAlpha"/>
<feOffset/>
<feGaussianBlur stdDeviation="0.13949"/>
<feColorMatrix type="matrix" values="0 0 0 0 0 0 0 0 0 0 0 0 0 0 0 0 0 0 0.3 0"/>
<feBlend mode="normal" in2="effect1_dropShadow" result="effect2_dropShadow"/>
<feColorMatrix in="SourceAlpha" type="matrix" values="0 0 0 0 0 0 0 0 0 0 0 0 0 0 0 0 0 0 127 0" result="hardAlpha"/>
<feOffset/>
<feGaussianBlur stdDeviation="0.13949"/>
<feColorMatrix type="matrix" values="0 0 0 0 0 0 0 0 0 0 0 0 0 0 0 0 0 0 0.2 0"/>
<feBlend mode="normal" in2="effect2_dropShadow" result="effect3_dropShadow"/>
<feBlend mode="normal" in="SourceGraphic" in2="effect3_dropShadow" result="shape"/>
</filter>
<filter id="filter5_f" x="47.0833" y="3.40359" width="30.8881" height="356.565" filterUnits="userSpaceOnUse" color-interpolation-filters="sRGB">
<feFlood flood-opacity="0" result="BackgroundImageFix"/>
<feBlend mode="normal" in="SourceGraphic" in2="BackgroundImageFix" result="shape"/>
<feGaussianBlur stdDeviation="1.89586" result="effect1_foregroundBlur"/>
</filter>
<filter id="filter6_f" x="23.6871" y="-21.9672" width="67.6961" height="67.6956" filterUnits="userSpaceOnUse" color-interpolation-filters="sRGB">
<feFlood flood-opacity="0" result="BackgroundImageFix"/>
<feBlend mode="normal" in="SourceGraphic" in2="BackgroundImageFix" result="shape"/>
<feGaussianBlur stdDeviation="11.3752" result="effect1_foregroundBlur"/>
</filter>
<filter id="filter7_f" x="25.6285" y="314.005" width="73.243" height="73.2447" filterUnits="userSpaceOnUse" color-interpolation-filters="sRGB">
<feFlood flood-opacity="0" result="BackgroundImageFix"/>
<feBlend mode="normal" in="SourceGraphic" in2="BackgroundImageFix" result="shape"/>
<feGaussianBlur stdDeviation="11.3752" result="effect1_foregroundBlur"/>
</filter>
<filter id="filter8_f" x="44.7733" y="-13.089" width="35.2347" height="35.235" filterUnits="userSpaceOnUse" color-interpolation-filters="sRGB">
<feFlood flood-opacity="0" result="BackgroundImageFix"/>
<feBlend mode="normal" in="SourceGraphic" in2="BackgroundImageFix" result="shape"/>
<feGaussianBlur stdDeviation="5.68759" result="effect1_foregroundBlur"/>
</filter>
<filter id="filter9_i" x="53.9414" y="3.38313" width="112.352" height="351.829" filterUnits="userSpaceOnUse" color-interpolation-filters="sRGB">
<feFlood flood-opacity="0" result="BackgroundImageFix"/>
<feBlend mode="normal" in="SourceGraphic" in2="BackgroundImageFix" result="shape"/>
<feColorMatrix in="SourceAlpha" type="matrix" values="0 0 0 0 0 0 0 0 0 0 0 0 0 0 0 0 0 0 127 0" result="hardAlpha"/>
<feOffset dy="-0.27898"/>
<feGaussianBlur stdDeviation="0.13949"/>
<feComposite in2="hardAlpha" operator="arithmetic" k2="-1" k3="1"/>
<feColorMatrix type="matrix" values="0 0 0 0 1 0 0 0 0 1 0 0 0 0 1 0 0 0 0.15 0"/>
<feBlend mode="normal" in2="shape" result="effect1_innerShadow"/>
</filter>
<filter id="filter10_i" x="48.3789" y="2.80615" width="118.189" height="353.655" filterUnits="userSpaceOnUse" color-interpolation-filters="sRGB">
<feFlood flood-opacity="0" result="BackgroundImageFix"/>
<feBlend mode="normal" in="SourceGraphic" in2="BackgroundImageFix" result="shape"/>
<feColorMatrix in="SourceAlpha" type="matrix" values="0 0 0 0 0 0 0 0 0 0 0 0 0 0 0 0 0 0 127 0" result="hardAlpha"/>
<feOffset dx="0.27898"/>
<feGaussianBlur stdDeviation="0.13949"/>
<feComposite in2="hardAlpha" operator="arithmetic" k2="-1" k3="1"/>
<feColorMatrix type="matrix" values="0 0 0 0 0 0 0 0 0 0 0 0 0 0 0 0 0 0 0.5 0"/>
<feBlend mode="normal" in2="shape" result="effect1_innerShadow"/>
</filter>
<filter id="filter11_f" x="28.9566" y="-24.4643" width="64.9227" height="64.9212" filterUnits="userSpaceOnUse" color-interpolation-filters="sRGB">
<feFlood flood-opacity="0" result="BackgroundImageFix"/>
<feBlend mode="normal" in="SourceGraphic" in2="BackgroundImageFix" result="shape"/>
<feGaussianBlur stdDeviation="11.3752" result="effect1_foregroundBlur"/>
</filter>
<filter id="filter12_f" x="33.0257" y="320.571" width="56.5072" height="56.5064" filterUnits="userSpaceOnUse" color-interpolation-filters="sRGB">
<feFlood flood-opacity="0" result="BackgroundImageFix"/>
<feBlend mode="normal" in="SourceGraphic" in2="BackgroundImageFix" result="shape"/>
<feGaussianBlur stdDeviation="9.47933" result="effect1_foregroundBlur"/>
</filter>
<filter id="filter13_f" x="134.196" y="4.48201" width="46.701" height="46.7025" filterUnits="userSpaceOnUse" color-interpolation-filters="sRGB">
<feFlood flood-opacity="0" result="BackgroundImageFix"/>
<feBlend mode="normal" in="SourceGraphic" in2="BackgroundImageFix" result="shape"/>
<feGaussianBlur stdDeviation="7.58346" result="effect1_foregroundBlur"/>
</filter>
<filter id="filter14_f" x="138.36" y="327.693" width="44.7596" height="44.7599" filterUnits="userSpaceOnUse" color-interpolation-filters="sRGB">
<feFlood flood-opacity="0" result="BackgroundImageFix"/>
<feBlend mode="normal" in="SourceGraphic" in2="BackgroundImageFix" result="shape"/>
<feGaussianBlur stdDeviation="7.58346" result="effect1_foregroundBlur"/>
</filter>
<filter id="filter15_d" x="38.8281" y="99.8499" width="12.3047" height="34.7629" filterUnits="userSpaceOnUse" color-interpolation-filters="sRGB">
<feFlood flood-opacity="0" result="BackgroundImageFix"/>
<feColorMatrix in="SourceAlpha" type="matrix" values="0 0 0 0 0 0 0 0 0 0 0 0 0 0 0 0 0 0 127 0" result="hardAlpha"/>
<feOffset/>
<feGaussianBlur stdDeviation="2"/>
<feColorMatrix type="matrix" values="0 0 0 0 0 0 0 0 0 0 0 0 0 0 0 0 0 0 0.5 0"/>
<feBlend mode="normal" in2="BackgroundImageFix" result="effect1_dropShadow"/>
<feBlend mode="normal" in="SourceGraphic" in2="effect1_dropShadow" result="shape"/>
</filter>
<filter id="filter16_d" x="38.8281" y="66.2808" width="12.3047" height="34.7625" filterUnits="userSpaceOnUse" color-interpolation-filters="sRGB">
<feFlood flood-opacity="0" result="BackgroundImageFix"/>
<feColorMatrix in="SourceAlpha" type="matrix" values="0 0 0 0 0 0 0 0 0 0 0 0 0 0 0 0 0 0 127 0" result="hardAlpha"/>
<feOffset/>
<feGaussianBlur stdDeviation="2"/>
<feColorMatrix type="matrix" values="0 0 0 0 0 0 0 0 0 0 0 0 0 0 0 0 0 0 0.5 0"/>
<feBlend mode="normal" in2="BackgroundImageFix" result="effect1_dropShadow"/>
<feBlend mode="normal" in="SourceGraphic" in2="effect1_dropShadow" result="shape"/>
</filter>
<filter id="filter17_d" x="39.5234" y="39.7676" width="10.6367" height="23.0186" filterUnits="userSpaceOnUse" color-interpolation-filters="sRGB">
<feFlood flood-opacity="0" result="BackgroundImageFix"/>
<feColorMatrix in="SourceAlpha" type="matrix" values="0 0 0 0 0 0 0 0 0 0 0 0 0 0 0 0 0 0 127 0" result="hardAlpha"/>
<feOffset/>
<feGaussianBlur stdDeviation="2"/>
<feColorMatrix type="matrix" values="0 0 0 0 0 0 0 0 0 0 0 0 0 0 0 0 0 0 0.5 0"/>
<feBlend mode="normal" in2="BackgroundImageFix" result="effect1_dropShadow"/>
<feBlend mode="normal" in="SourceGraphic" in2="effect1_dropShadow" result="shape"/>
</filter>
<filter id="filter18_d" x="124.938" y="26.3039" width="2.80342" height="4.446" filterUnits="userSpaceOnUse" color-interpolation-filters="sRGB">
<feFlood flood-opacity="0" result="BackgroundImageFix"/>
<feColorMatrix in="SourceAlpha" type="matrix" values="0 0 0 0 0 0 0 0 0 0 0 0 0 0 0 0 0 0 127 0" result="hardAlpha"/>
<feOffset/>
<feGaussianBlur stdDeviation="0.27898"/>
<feColorMatrix type="matrix" values="0 0 0 0 0 0 0 0 0 0 0 0 0 0 0 0 0 0 0.5 0"/>
<feBlend mode="normal" in2="BackgroundImageFix" result="effect1_dropShadow"/>
<feBlend mode="normal" in="SourceGraphic" in2="effect1_dropShadow" result="shape"/>
</filter>
<filter id="filter19_d" x="121.66" y="23.1948" width="9.37109" height="10.7056" filterUnits="userSpaceOnUse" color-interpolation-filters="sRGB">
<feFlood flood-opacity="0" result="BackgroundImageFix"/>
<feColorMatrix in="SourceAlpha" type="matrix" values="0 0 0 0 0 0 0 0 0 0 0 0 0 0 0 0 0 0 127 0" result="hardAlpha"/>
<feOffset/>
<feGaussianBlur stdDeviation="2"/>
<feColorMatrix type="matrix" values="0 0 0 0 0.129412 0 0 0 0 0.45098 0 0 0 0 0.533333 0 0 0 0.27046 0"/>
<feBlend mode="normal" in2="BackgroundImageFix" result="effect1_dropShadow"/>
<feBlend mode="normal" in="SourceGraphic" in2="effect1_dropShadow" result="shape"/>
</filter>
<filter id="filter20_f" x="125.843" y="27.0185" width="1.93857" height="2.34921" filterUnits="userSpaceOnUse" color-interpolation-filters="sRGB">
<feFlood flood-opacity="0" result="BackgroundImageFix"/>
<feBlend mode="normal" in="SourceGraphic" in2="BackgroundImageFix" result="shape"/>
<feGaussianBlur stdDeviation="0.379173" result="effect1_foregroundBlur"/>
</filter>
<filter id="filter21_f" x="125.542" y="26.936" width="1.93857" height="2.34921" filterUnits="userSpaceOnUse" color-interpolation-filters="sRGB">
<feFlood flood-opacity="0" result="BackgroundImageFix"/>
<feBlend mode="normal" in="SourceGraphic" in2="BackgroundImageFix" result="shape"/>
<feGaussianBlur stdDeviation="0.379173" result="effect1_foregroundBlur"/>
</filter>
<linearGradient id="paint0_linear" x1="177.158" y1="238.474" x2="175.065" y2="360.828" gradientUnits="userSpaceOnUse">
<stop stop-opacity="0.01"/>
<stop offset="1" stop-opacity="0.432665"/>
</linearGradient>
<linearGradient id="paint1_linear" x1="110.036" y1="364.575" x2="111.618" y2="358.224" gradientUnits="userSpaceOnUse">
<stop stop-color="#101010"/>
<stop offset="1" stop-color="#725543"/>
</linearGradient>
<linearGradient id="paint2_linear" x1="51.4308" y1="2.08059" x2="51.4308" y2="357.016" gradientUnits="userSpaceOnUse">
<stop stop-color="#3C3C3C"/>
<stop offset="0.968439" stop-color="#343434"/>
<stop offset="0.983847" stop-color="#181818"/>
<stop offset="1" stop-color="#161616"/>
</linearGradient>
<linearGradient id="paint3_linear" x1="50.9622" y1="437.707" x2="111.791" y2="439.047" gradientUnits="userSpaceOnUse">
<stop stop-color="#414141"/>
<stop offset="1" stop-opacity="0.01"/>
</linearGradient>
<linearGradient id="paint4_linear" x1="51.7103" y1="29.9693" x2="41.7227" y2="29.9693" gradientUnits="userSpaceOnUse">
<stop stop-color="#533C2F"/>
<stop offset="0.0270318" stop-color="#523C2F"/>
<stop offset="0.0291273" stop-color="#A28679"/>
<stop offset="0.342882" stop-color="#523B2E"/>
<stop offset="0.633328" stop-color="#543D30"/>
<stop offset="1" stop-color="#8C796D"/>
</linearGradient>
<linearGradient id="paint5_linear" x1="51.7103" y1="322.052" x2="41.7227" y2="322.052" gradientUnits="userSpaceOnUse">
<stop stop-color="#533C2F"/>
<stop offset="0.0270318" stop-color="#523C2F"/>
<stop offset="0.0291273" stop-color="#A28679"/>
<stop offset="0.342882" stop-color="#523B2E"/>
<stop offset="0.633328" stop-color="#543D30"/>
<stop offset="1" stop-color="#8C796D"/>
</linearGradient>
<linearGradient id="paint6_linear" x1="44.1508" y1="117.202" x2="46.227" y2="117.202" gradientUnits="userSpaceOnUse">
<stop stop-color="#19100D"/>
<stop offset="1" stop-color="#684C3F"/>
</linearGradient>
<linearGradient id="paint7_linear" x1="44.5614" y1="98.8789" x2="42.7084" y2="99.0638" gradientUnits="userSpaceOnUse">
<stop stop-color="#3E281D"/>
<stop offset="0.23911" stop-color="#633825"/>
<stop offset="1" stop-color="#EECFBA"/>
</linearGradient>
<linearGradient id="paint8_linear" x1="47.0489" y1="119.538" x2="43.7832" y2="119.565" gradientUnits="userSpaceOnUse">
<stop stop-opacity="0.01"/>
<stop offset="0.127182" stop-opacity="0.01"/>
<stop offset="0.474923" stop-opacity="0.0464564"/>
<stop offset="0.796741" stop-color="#2F1914"/>
<stop offset="0.824012" stop-color="white" stop-opacity="0.01"/>
<stop offset="1" stop-color="white" stop-opacity="0.01"/>
</linearGradient>
<linearGradient id="paint9_linear" x1="42.8418" y1="129.777" x2="46.161" y2="129.777" gradientUnits="userSpaceOnUse">
<stop stop-color="#D7B6A0"/>
<stop offset="0.421456" stop-color="#BD8D71"/>
<stop offset="0.429269" stop-color="#101010"/>
<stop offset="1" stop-color="#101010"/>
</linearGradient>
<linearGradient id="paint10_linear" x1="44.5614" y1="65.3096" x2="42.7084" y2="65.4945" gradientUnits="userSpaceOnUse">
<stop stop-color="#3E281D"/>
<stop offset="0.23911" stop-color="#633825"/>
<stop offset="1" stop-color="#EECFBA"/>
</linearGradient>
<linearGradient id="paint11_linear" x1="47.0489" y1="85.9686" x2="43.7832" y2="85.9958" gradientUnits="userSpaceOnUse">
<stop stop-opacity="0.01"/>
<stop offset="0.127182" stop-opacity="0.01"/>
<stop offset="0.474923" stop-opacity="0.0464564"/>
<stop offset="0.796741" stop-color="#2F1914"/>
<stop offset="0.824012" stop-color="white" stop-opacity="0.01"/>
<stop offset="1" stop-color="white" stop-opacity="0.01"/>
</linearGradient>
<linearGradient id="paint12_linear" x1="42.8418" y1="96.2073" x2="46.161" y2="96.2073" gradientUnits="userSpaceOnUse">
<stop stop-color="#D7B6A0"/>
<stop offset="0.421456" stop-color="#BD8D71"/>
<stop offset="0.429269" stop-color="#101010"/>
<stop offset="1" stop-color="#101010"/>
</linearGradient>
<linearGradient id="paint13_linear" x1="43.4854" y1="43.3354" x2="43.4854" y2="58.7863" gradientUnits="userSpaceOnUse">
<stop stop-color="#3E281D"/>
<stop offset="0.139665" stop-color="#D9B9A4"/>
<stop offset="0.886551" stop-color="#E1C0AC"/>
<stop offset="1" stop-color="#482C1F"/>
</linearGradient>
<linearGradient id="paint14_linear" x1="43.4805" y1="43.8315" x2="43.4805" y2="58.7396" gradientUnits="userSpaceOnUse">
<stop stop-color="#3E281D"/>
<stop offset="0.12352" stop-color="#F9E5D7"/>
<stop offset="0.876947" stop-color="#F8E3D5"/>
<stop offset="1" stop-color="#482C1F"/>
</linearGradient>
<linearGradient id="paint15_linear" x1="43.5269" y1="58.3261" x2="45.3248" y2="58.3261" gradientUnits="userSpaceOnUse">
<stop stop-color="#D7B6A0"/>
<stop offset="0.421456" stop-color="#BD8D71"/>
<stop offset="0.429269" stop-color="#101010"/>
<stop offset="1" stop-color="#101010"/>
</linearGradient>
<linearGradient id="paint16_linear" x1="125.45" y1="27.3117" x2="126.909" y2="29.9085" gradientUnits="userSpaceOnUse">
<stop stop-color="#003472"/>
<stop offset="0.605134" stop-color="#00050B" stop-opacity="0.0965401"/>
<stop offset="1" stop-color="#305379"/>
</linearGradient>
<linearGradient id="paint17_linear" x1="125.578" y1="27.6047" x2="126.854" y2="29.6304" gradientUnits="userSpaceOnUse">
<stop stop-color="#217388"/>
<stop offset="0.186067" stop-color="#1D4455"/>
<stop offset="0.581198" stop-opacity="0.01"/>
<stop offset="1" stop-color="#6299E0"/>
</linearGradient>
<radialGradient id="paint18_radial" cx="0" cy="0" r="1" gradientUnits="userSpaceOnUse" gradientTransform="translate(126.345 28.5474) rotate(81.2328) scale(0.947658 2.40861)">
<stop/>
<stop offset="1" stop-color="#003B81"/>
</radialGradient>
</defs>
</svg>
