<svg width="126" height="360" viewBox="0 0 126 360" fill="none" xmlns="http://www.w3.org/2000/svg">
<mask id="path-1-inside-1" fill="white">
<path fill-rule="evenodd" clip-rule="evenodd" d="M100.103 0.579876L18.0463 23.0056C7.20936 25.8604 0 38.0813 0 52.9428V335.155C0 347.634 7.84522 359.785 21.0257 359.785H52.0665C52.2115 359.625 52.4171 359.534 52.6328 359.534H63.2765C63.4321 359.534 63.584 359.582 63.7119 359.67C63.7623 359.705 63.8065 359.744 63.8449 359.785H99.8508C117.662 359.785 125.193 346.277 125.193 330.424V25.9464C125.193 6.34927 113.126 -2.43514 100.103 0.579876Z"/>
</mask>
<path fill-rule="evenodd" clip-rule="evenodd" d="M100.103 0.579876L18.0463 23.0056C7.20936 25.8604 0 38.0813 0 52.9428V335.155C0 347.634 7.84522 359.785 21.0257 359.785H52.0665C52.2115 359.625 52.4171 359.534 52.6328 359.534H63.2765C63.4321 359.534 63.584 359.582 63.7119 359.67C63.7623 359.705 63.8065 359.744 63.8449 359.785H99.8508C117.662 359.785 125.193 346.277 125.193 330.424V25.9464C125.193 6.34927 113.126 -2.43514 100.103 0.579876Z" fill="#CFE5DD"/>
<path d="M18.0463 23.0056L18.1881 23.5436L18.193 23.5423L18.0463 23.0056ZM100.103 0.579876L99.9776 0.0378L99.9669 0.0402646L99.9564 0.0431453L100.103 0.579876ZM52.0665 359.785V360.341H52.3126L52.4782 360.159L52.0665 359.785ZM63.7119 359.67L64.0285 359.213L64.0284 359.213L63.7119 359.67ZM63.8449 359.785L63.4377 360.164L63.6027 360.341H63.8449V359.785ZM18.193 23.5423L100.25 1.11661L99.9564 0.0431453L17.8996 22.4688L18.193 23.5423ZM0.556414 52.9428C0.556414 38.2165 7.69307 26.3084 18.1881 23.5436L17.9046 22.4675C6.72564 25.4125 -0.556414 37.9461 -0.556414 52.9428H0.556414ZM0.556414 335.155V52.9428H-0.556414V335.155H0.556414ZM21.0257 359.228C8.27049 359.228 0.556414 347.46 0.556414 335.155H-0.556414C-0.556414 347.808 7.41995 360.341 21.0257 360.341V359.228ZM52.0665 359.228H21.0257V360.341H52.0665V359.228ZM52.4782 360.159C52.5178 360.116 52.5739 360.091 52.6328 360.091V358.978C52.2603 358.978 51.9053 359.135 51.6548 359.411L52.4782 360.159ZM52.6328 360.091H63.2765V358.978H52.6328V360.091ZM63.2765 360.091C63.319 360.091 63.3604 360.104 63.3954 360.128L64.0284 359.213C63.8075 359.06 63.5452 358.978 63.2765 358.978V360.091ZM63.3953 360.128C63.4135 360.14 63.4272 360.153 63.4377 360.164L64.2522 359.406C64.1859 359.335 64.1111 359.27 64.0285 359.213L63.3953 360.128ZM99.8508 359.228H63.8449V360.341H99.8508V359.228ZM124.637 330.424C124.637 338.272 122.771 345.479 118.76 350.711C114.764 355.921 108.598 359.228 99.8508 359.228V360.341C108.914 360.341 115.419 356.895 119.643 351.388C123.849 345.902 125.75 338.429 125.75 330.424H124.637ZM124.637 25.9464V330.424H125.75V25.9464H124.637ZM100.229 1.12195C106.581 -0.348774 112.66 1.062 117.155 5.19326C121.656 9.32972 124.637 16.2585 124.637 25.9464H125.75C125.75 16.0372 122.697 8.7752 117.908 4.37392C113.114 -0.0325592 106.648 -1.50649 99.9776 0.0378L100.229 1.12195Z" fill="#0A1914" mask="url(#path-1-inside-1)"/>
<mask id="mask0" style="mask-type:alpha" maskUnits="userSpaceOnUse" x="0" y="0" width="126" height="360">
<mask id="path-3-inside-2" fill="white">
<path fill-rule="evenodd" clip-rule="evenodd" d="M100.103 0.579876L18.0463 23.0056C7.20936 25.8604 0 38.0813 0 52.9428V335.155C0 347.634 7.84522 359.785 21.0257 359.785H52.0665C52.2115 359.625 52.4171 359.534 52.6328 359.534H63.2765C63.4321 359.534 63.584 359.582 63.7119 359.67C63.7623 359.705 63.8065 359.744 63.8449 359.785H99.8508C117.662 359.785 125.193 346.277 125.193 330.424V25.9464C125.193 6.34927 113.126 -2.43514 100.103 0.579876Z"/>
</mask>
<path fill-rule="evenodd" clip-rule="evenodd" d="M100.103 0.579876L18.0463 23.0056C7.20936 25.8604 0 38.0813 0 52.9428V335.155C0 347.634 7.84522 359.785 21.0257 359.785H52.0665C52.2115 359.625 52.4171 359.534 52.6328 359.534H63.2765C63.4321 359.534 63.584 359.582 63.7119 359.67C63.7623 359.705 63.8065 359.744 63.8449 359.785H99.8508C117.662 359.785 125.193 346.277 125.193 330.424V25.9464C125.193 6.34927 113.126 -2.43514 100.103 0.579876Z" fill="white"/>
<path d="M18.0463 23.0056L18.1881 23.5436L18.193 23.5423L18.0463 23.0056ZM100.103 0.579876L99.9776 0.0378L99.9669 0.0402646L99.9564 0.0431453L100.103 0.579876ZM52.0665 359.785V360.341H52.3126L52.4782 360.159L52.0665 359.785ZM63.7119 359.67L64.0285 359.213L64.0284 359.213L63.7119 359.67ZM63.8449 359.785L63.4377 360.164L63.6027 360.341H63.8449V359.785ZM18.193 23.5423L100.25 1.11661L99.9564 0.0431453L17.8996 22.4688L18.193 23.5423ZM0.556414 52.9428C0.556414 38.2165 7.69307 26.3084 18.1881 23.5436L17.9046 22.4675C6.72564 25.4125 -0.556414 37.9461 -0.556414 52.9428H0.556414ZM0.556414 335.155V52.9428H-0.556414V335.155H0.556414ZM21.0257 359.228C8.27049 359.228 0.556414 347.46 0.556414 335.155H-0.556414C-0.556414 347.808 7.41995 360.341 21.0257 360.341V359.228ZM52.0665 359.228H21.0257V360.341H52.0665V359.228ZM52.4782 360.159C52.5178 360.116 52.5739 360.091 52.6328 360.091V358.978C52.2603 358.978 51.9053 359.135 51.6548 359.411L52.4782 360.159ZM52.6328 360.091H63.2765V358.978H52.6328V360.091ZM63.2765 360.091C63.319 360.091 63.3604 360.104 63.3954 360.128L64.0284 359.213C63.8075 359.06 63.5452 358.978 63.2765 358.978V360.091ZM63.3953 360.128C63.4135 360.14 63.4272 360.153 63.4377 360.164L64.2522 359.406C64.1859 359.335 64.1111 359.27 64.0285 359.213L63.3953 360.128ZM99.8508 359.228H63.8449V360.341H99.8508V359.228ZM124.637 330.424C124.637 338.272 122.771 345.479 118.76 350.711C114.764 355.921 108.598 359.228 99.8508 359.228V360.341C108.914 360.341 115.419 356.895 119.643 351.388C123.849 345.902 125.75 338.429 125.75 330.424H124.637ZM124.637 25.9464V330.424H125.75V25.9464H124.637ZM100.229 1.12195C106.581 -0.348774 112.66 1.062 117.155 5.19326C121.656 9.32972 124.637 16.2585 124.637 25.9464H125.75C125.75 16.0372 122.697 8.7752 117.908 4.37392C113.114 -0.0325592 106.648 -1.50649 99.9776 0.0378L100.229 1.12195Z" fill="white" mask="url(#path-3-inside-2)"/>
</mask>
<g mask="url(#mask0)">
<g filter="url(#filter0_f)">
<path fill-rule="evenodd" clip-rule="evenodd" d="M123.802 25.9465V330.424C123.802 346.277 116.271 357.837 98.4599 357.837L9.7373 358.116L98.7121 0.579876C111.735 -2.43514 123.802 6.34927 123.802 25.9465Z" fill="#23322D"/>
</g>
<g filter="url(#filter1_i)">
<path fill-rule="evenodd" clip-rule="evenodd" d="M20.0822 359.785H101.967C112.079 359.785 120.061 353.711 122.813 343.931C120.924 347.937 116.276 358.116 103.636 358.116L20.3605 358.394C10.561 358.394 6.3297 353.361 3.86133 349.401C6.80743 356.041 12.4575 359.785 20.0822 359.785Z" fill="#272727"/>
</g>
<g filter="url(#filter2_f)">
<path fill-rule="evenodd" clip-rule="evenodd" d="M109.057 356.725C115.203 356.725 120.185 351.743 120.185 345.597C120.185 339.451 115.203 334.468 109.057 334.468C102.911 334.468 97.9287 339.451 97.9287 345.597C97.9287 351.743 102.911 356.725 109.057 356.725Z" fill="black" fill-opacity="0.5"/>
</g>
<g filter="url(#filter3_ddd)">
<path d="M55.9434 363.087C54.9565 363.054 53.2422 362.171 52.8182 361.394C52.1462 360.163 51.738 359.178 53.1992 359.091L62.1085 359.088C64.4874 359.234 64.7639 360.984 65.162 361.646C65.7311 362.592 65.4526 363.253 64.3634 363.219L55.9434 363.087Z" fill="url(#paint0_linear)"/>
</g>
<path fill-rule="evenodd" clip-rule="evenodd" d="M24.1665 26.2059L101.771 3.77977C112.144 1.15571 121.854 8.01864 121.854 25.2513V329.739C121.854 351.165 109.341 356.716 98.485 356.725L20.4631 356.732C10.6202 356.732 6.39844 341.935 6.39844 334.327V54.8915C6.39844 40.8646 12.2155 29.6173 24.1665 26.2059Z" fill="#01100B"/>
<path fill-rule="evenodd" clip-rule="evenodd" d="M23.8882 26.2059L98.4328 4.05794C113.535 1.9903 118.516 9.13144 118.516 26.3641V329.739C118.516 351.165 107.672 356.438 95.1464 356.447L20.1848 356.454C10.3418 356.454 6.12012 341.935 6.12012 334.327V54.8915C6.12012 40.8645 11.9372 29.6173 23.8882 26.2059Z" fill="#334841"/>
<mask id="mask1" style="mask-type:alpha" maskUnits="userSpaceOnUse" x="6" y="3" width="113" height="354">
<path fill-rule="evenodd" clip-rule="evenodd" d="M23.8882 26.2059L98.4328 4.05794C113.535 1.9903 118.516 9.13144 118.516 26.3641V329.739C118.516 351.165 107.672 356.438 95.1464 356.447L20.1848 356.454C10.3418 356.454 6.12012 341.935 6.12012 334.327V54.8915C6.12012 40.8645 11.9372 29.6173 23.8882 26.2059Z" fill="white"/>
</mask>
<g mask="url(#mask1)">
<g filter="url(#filter4_f)">
<path fill-rule="evenodd" clip-rule="evenodd" d="M95.6516 6.84005C110.754 4.77241 115.735 11.9135 115.735 29.1462V326.957C115.735 348.383 104.891 353.656 92.3652 353.665L95.6516 6.84005Z" fill="#CFE5DD"/>
</g>
<g opacity="0.497791" filter="url(#filter5_f)">
<path fill-rule="evenodd" clip-rule="evenodd" d="M109.335 22.3199C115.481 22.3199 120.464 17.3376 120.464 11.1916C120.464 5.04566 115.481 0.0633545 109.335 0.0633545C103.189 0.0633545 98.207 5.04566 98.207 11.1916C98.207 17.3376 103.189 22.3199 109.335 22.3199Z" fill="black"/>
</g>
<g opacity="0.502418" filter="url(#filter6_f)">
<path fill-rule="evenodd" clip-rule="evenodd" d="M104.606 364.793C112.288 364.793 118.516 358.565 118.516 350.883C118.516 343.2 112.288 336.972 104.606 336.972C96.9232 336.972 90.6953 343.2 90.6953 350.883C90.6953 358.565 96.9232 364.793 104.606 364.793Z" fill="black"/>
</g>
</g>
<path d="M17.8063 23.5576L96.5193 1.96734C102.357 0.666061 107.043 2.1333 110.276 5.97642C113.518 9.83022 115.317 16.0939 115.317 24.4167V329.739C115.317 340.012 112.682 346.859 108.886 351.137C105.091 355.414 100.123 357.138 95.4249 357.142L14.8993 357.149C9.63915 357.149 5.95098 353.37 3.57002 348.599C1.19042 343.831 0.139104 338.112 0.139104 334.327V52.6658C0.139104 38.6697 5.94051 26.9446 17.8063 23.5576Z" fill="url(#paint1_linear)"/>
<path d="M17.8063 23.5576L96.5193 1.96734C102.357 0.666061 107.043 2.1333 110.276 5.97642C113.518 9.83022 115.317 16.0939 115.317 24.4167V329.739C115.317 340.012 112.682 346.859 108.886 351.137C105.091 355.414 100.123 357.138 95.4249 357.142L14.8993 357.149C9.63915 357.149 5.95098 353.37 3.57002 348.599C1.19042 343.831 0.139104 338.112 0.139104 334.327V52.6658C0.139104 38.6697 5.94051 26.9446 17.8063 23.5576Z" fill="url(#paint2_linear)"/>
<path d="M17.8063 23.5576L96.5193 1.96734C102.357 0.666061 107.043 2.1333 110.276 5.97642C113.518 9.83022 115.317 16.0939 115.317 24.4167V329.739C115.317 340.012 112.682 346.859 108.886 351.137C105.091 355.414 100.123 357.138 95.4249 357.142L14.8993 357.149C9.63915 357.149 5.95098 353.37 3.57002 348.599C1.19042 343.831 0.139104 338.112 0.139104 334.327V52.6658C0.139104 38.6697 5.94051 26.9446 17.8063 23.5576Z" stroke="black" stroke-width="0.278207"/>
<mask id="mask2" style="mask-type:alpha" maskUnits="userSpaceOnUse" x="0" y="1" width="116" height="357">
<path d="M17.8063 23.5576L96.5193 1.96734C102.357 0.666061 107.043 2.1333 110.276 5.97642C113.518 9.83022 115.317 16.0939 115.317 24.4167V329.739C115.317 340.012 112.682 346.859 108.886 351.137C105.091 355.414 100.123 357.138 95.4249 357.142L14.8993 357.149C9.63915 357.149 5.95098 353.37 3.57002 348.599C1.19042 343.831 0.139104 338.112 0.139104 334.327V52.6658C0.139104 38.6697 5.94051 26.9446 17.8063 23.5576Z" fill="white"/>
<path d="M17.8063 23.5576L96.5193 1.96734C102.357 0.666061 107.043 2.1333 110.276 5.97642C113.518 9.83022 115.317 16.0939 115.317 24.4167V329.739C115.317 340.012 112.682 346.859 108.886 351.137C105.091 355.414 100.123 357.138 95.4249 357.142L14.8993 357.149C9.63915 357.149 5.95098 353.37 3.57002 348.599C1.19042 343.831 0.139104 338.112 0.139104 334.327V52.6658C0.139104 38.6697 5.94051 26.9446 17.8063 23.5576Z" stroke="white" stroke-width="0.278207"/>
</mask>
<g mask="url(#mask2)">
<g filter="url(#filter7_f)">
<path fill-rule="evenodd" clip-rule="evenodd" d="M104.467 10.0788C107.924 10.0788 110.726 7.27628 110.726 3.81917C110.726 0.362054 107.924 -2.44049 104.467 -2.44049C101.01 -2.44049 98.207 0.362054 98.207 3.81917C98.207 7.27628 101.01 10.0788 104.467 10.0788Z" fill="black"/>
</g>
</g>
<path fill-rule="evenodd" clip-rule="evenodd" d="M115.178 29.5533C115.178 29.5533 117.479 29.1022 120.258 29.5655C123.038 30.0287 125.193 31.2226 125.193 31.2226V33.7264C125.193 33.7264 122.523 32.4468 120.284 32.0735C118.044 31.7003 115.178 32.0572 115.178 32.0572V29.5533Z" fill="url(#paint3_linear)" fill-opacity="0.9"/>
<rect x="115.178" y="322.227" width="10.0155" height="2.50386" fill="url(#paint4_linear)" fill-opacity="0.9"/>
<g filter="url(#filter8_i)">
<path fill-rule="evenodd" clip-rule="evenodd" d="M17.53 24.7686C5.91506 28.035 0.27832 38.954 0.27832 52.6659V335.718C0.27832 339.831 1.62512 344.82 3.42448 348.151C5.22383 351.483 9.00217 355.48 14.0636 355.48H93.4451C106.641 355.476 112.942 344.459 112.942 331.674V23.0257C112.942 10.219 106.802 1.35977 97.0375 3.18976L17.53 24.7686Z" fill="black"/>
</g>
<path d="M17.4936 24.6343L17.4923 24.6347C5.79356 27.9247 0.139217 38.9206 0.139217 52.6659V335.719C0.139217 339.855 1.4922 344.866 3.30208 348.217C5.11121 351.567 8.92645 355.619 14.0636 355.619H93.4451C100.087 355.617 105.003 352.841 108.254 348.452C111.501 344.069 113.081 338.087 113.081 331.674V23.0257C113.081 16.6033 111.542 11.1533 108.761 7.53424C105.976 3.90799 101.948 2.12789 97.0118 3.05303L97.0118 3.0526L97.001 3.05551L17.4936 24.6343Z" stroke="black" stroke-width="0.278207"/>
<mask id="mask3" style="mask-type:alpha" maskUnits="userSpaceOnUse" x="0" y="2" width="114" height="354">
<path d="M17.4936 24.6343L17.4923 24.6347C5.79356 27.9247 0.139217 38.9206 0.139217 52.6659V335.719C0.139217 339.855 1.4922 344.866 3.30208 348.217C5.11121 351.567 8.92645 355.619 14.0636 355.619H93.4451C100.087 355.617 105.003 352.841 108.254 348.452C111.501 344.069 113.081 338.087 113.081 331.674V23.0257C113.081 16.6033 111.542 11.1533 108.761 7.53424C105.976 3.90799 101.948 2.12789 97.0118 3.05303L97.0118 3.0526L97.001 3.05551L17.4936 24.6343Z" fill="white" stroke="white" stroke-width="0.278207"/>
</mask>
<g mask="url(#mask3)">
<g filter="url(#filter9_i)">
<path fill-rule="evenodd" clip-rule="evenodd" d="M98.4333 2.38876L18.0464 23.9803C6.0954 27.3917 0.27832 38.0825 0.27832 52.1094V334.327C0.27832 344.996 4.50003 356.732 14.343 356.732L16.7834 356.732C8.90937 356.686 1.11283 348.019 1.11283 334.327V52.944C1.11283 38.9171 6.6517 27.3916 18.6027 23.9803L93.7037 3.77977C108.806 -0.235324 111.005 9.13147 111.005 26.3642V329.739C111.005 351.165 101.83 356.716 90.9737 356.725L95.1469 356.725C106.003 356.716 118.516 351.165 118.516 329.739V26.3642C118.516 9.13149 113.536 0.321113 98.4333 2.38876Z" fill="#949494"/>
</g>
<mask id="mask4" style="mask-type:alpha" maskUnits="userSpaceOnUse" x="0" y="2" width="119" height="355">
<path fill-rule="evenodd" clip-rule="evenodd" d="M98.4333 2.38876L18.0464 23.9803C6.0954 27.3917 0.27832 38.0825 0.27832 52.1094V334.327C0.27832 344.996 4.50003 356.732 14.343 356.732L16.7834 356.732C8.90937 356.686 1.11283 348.019 1.11283 334.327V52.944C1.11283 38.9171 6.6517 27.3916 18.6027 23.9803L93.7037 3.77977C108.806 -0.235324 111.005 9.13147 111.005 26.3642V329.739C111.005 351.165 101.83 356.716 90.9737 356.725L95.1469 356.725C106.003 356.716 118.516 351.165 118.516 329.739V26.3642C118.516 9.13149 113.536 0.321113 98.4333 2.38876Z" fill="white"/>
</mask>
<g mask="url(#mask4)">
<g filter="url(#filter10_f)">
<path fill-rule="evenodd" clip-rule="evenodd" d="M105.44 17.034C110.818 17.034 115.178 12.6745 115.178 7.29676C115.178 1.91902 110.818 -2.44049 105.44 -2.44049C100.063 -2.44049 95.7031 1.91902 95.7031 7.29676C95.7031 12.6745 100.063 17.034 105.44 17.034Z" fill="black"/>
</g>
<g filter="url(#filter11_f)">
<path fill-rule="evenodd" clip-rule="evenodd" d="M105.58 358.394C110.727 358.394 114.9 354.221 114.9 349.074C114.9 343.927 110.727 339.754 105.58 339.754C100.432 339.754 96.2598 343.927 96.2598 349.074C96.2598 354.221 100.432 358.394 105.58 358.394Z" fill="black"/>
</g>
<g filter="url(#filter12_f)">
<path fill-rule="evenodd" clip-rule="evenodd" d="M9.04207 35.3957C13.5747 35.3957 17.2492 31.7212 17.2492 27.1886C17.2492 22.6559 13.5747 18.9814 9.04207 18.9814C4.50941 18.9814 0.834961 22.6559 0.834961 27.1886C0.834961 31.7212 4.50941 35.3957 9.04207 35.3957Z" fill="black"/>
</g>
<g filter="url(#filter13_f)">
<path fill-rule="evenodd" clip-rule="evenodd" d="M5.84276 357.56C9.83765 357.56 13.0761 354.321 13.0761 350.326C13.0761 346.331 9.83765 343.093 5.84276 343.093C1.84787 343.093 -1.39062 346.331 -1.39062 350.326C-1.39062 354.321 1.84787 357.56 5.84276 357.56Z" fill="black"/>
</g>
</g>
</g>
</g>
<path d="M123.941 194.504V158.641C123.941 157.489 123.007 156.555 121.855 156.555C120.702 156.555 119.768 157.489 119.768 158.641V194.504C119.768 195.57 120.572 196.465 121.633 196.578C122.866 196.71 123.941 195.744 123.941 194.504Z" stroke="url(#paint5_linear)" stroke-width="0.278207"/>
<g filter="url(#filter14_d)">
<path fill-rule="evenodd" clip-rule="evenodd" d="M121.922 195.705C122.576 195.705 123.106 194.926 123.106 193.965C123.106 193.004 122.576 192.226 121.922 192.226C121.268 192.226 120.738 193.004 120.738 193.965C120.738 194.926 121.268 195.705 121.922 195.705Z" fill="url(#paint6_linear)"/>
</g>
<mask id="mask5" style="mask-type:alpha" maskUnits="userSpaceOnUse" x="120" y="192" width="4" height="4">
<path fill-rule="evenodd" clip-rule="evenodd" d="M121.922 195.705C122.576 195.705 123.106 194.926 123.106 193.965C123.106 193.004 122.576 192.226 121.922 192.226C121.268 192.226 120.738 193.004 120.738 193.965C120.738 194.926 121.268 195.705 121.922 195.705Z" fill="white"/>
</mask>
<g mask="url(#mask5)">
<path fill-rule="evenodd" clip-rule="evenodd" d="M121.573 195.565C122.188 195.565 122.687 194.818 122.687 193.896C122.687 192.973 122.188 192.226 121.573 192.226C120.958 192.226 120.459 192.973 120.459 193.896C120.459 194.818 120.958 195.565 121.573 195.565Z" fill="url(#paint7_radial)"/>
</g>
<path fill-rule="evenodd" clip-rule="evenodd" d="M124.085 80.8833V119.156C124.085 121.437 122.965 121.745 121.714 121.709C120.463 121.672 119.351 120.323 119.351 119.017V80.8835C119.351 79.577 120.41 78.6501 121.718 78.6501C123.025 78.6501 124.085 79.5766 124.085 80.8833Z" fill="#2D443C"/>
<mask id="mask6" style="mask-type:alpha" maskUnits="userSpaceOnUse" x="119" y="78" width="6" height="44">
<path fill-rule="evenodd" clip-rule="evenodd" d="M124.085 80.8833V119.156C124.085 121.437 122.965 121.745 121.714 121.709C120.463 121.672 119.351 120.323 119.351 119.017V80.8835C119.351 79.577 120.41 78.6501 121.718 78.6501C123.025 78.6501 124.085 79.5766 124.085 80.8833Z" fill="white"/>
</mask>
<g mask="url(#mask6)">
<g filter="url(#filter15_d)">
<path fill-rule="evenodd" clip-rule="evenodd" d="M121.857 79.2136C123.165 79.2136 124.086 80.2724 124.086 81.5791V118.727C124.086 121.008 122.948 121.576 121.853 121.28L121.583 121.184C120.35 120.75 119.769 119.337 119.769 118.031V81.5793C119.769 80.2727 120.55 79.2136 121.857 79.2136Z" fill="url(#paint8_linear)"/>
<path fill-rule="evenodd" clip-rule="evenodd" d="M121.857 79.2136C123.165 79.2136 124.086 80.2724 124.086 81.5791V118.727C124.086 121.008 122.948 121.576 121.853 121.28L121.583 121.184C120.35 120.75 119.769 119.337 119.769 118.031V81.5793C119.769 80.2727 120.55 79.2136 121.857 79.2136Z" fill="url(#paint9_linear)"/>
</g>
<path fill-rule="evenodd" clip-rule="evenodd" d="M120.743 81.7185V117.892C120.743 119.272 121.468 120.053 122.14 120.381C122.812 120.71 123.295 120.537 123.538 120.351C123.873 120.095 124.085 119.525 124.085 118.588V81.7183C124.085 80.5449 123.435 79.7702 122.414 79.7702C121.394 79.7702 120.743 80.545 120.743 81.7185Z" fill="url(#paint10_linear)"/>
</g>
<path d="M58.7512 21.3678L47.5603 24.5768C46.7718 24.8029 46.1607 25.6751 46.1763 26.5281C46.1842 26.9601 46.3516 27.3198 46.6308 27.5423C46.9113 27.7656 47.2891 27.8381 47.6896 27.7233L58.8804 24.5144C59.669 24.2883 60.28 23.4161 60.2645 22.5631C60.2566 22.131 60.0892 21.7713 59.8099 21.5488C59.5295 21.3255 59.1516 21.253 58.7512 21.3678Z" fill="url(#paint11_linear)" stroke="url(#paint12_linear)" stroke-width="0.278207"/>
<path d="M65.8276 23.9591C66.2538 24.0863 66.6993 23.9059 67.0714 23.5373C67.4443 23.1679 67.7535 22.6016 67.9157 21.9271C68.0779 21.2525 68.0639 20.5908 67.9074 20.0653C67.7514 19.5416 67.449 19.1402 67.0246 19.0135C66.5985 18.8863 66.153 19.0667 65.7809 19.4353C65.408 19.8047 65.0988 20.371 64.9366 21.0455C64.7744 21.7201 64.7883 22.3818 64.9449 22.9074C65.1009 23.431 65.4033 23.8324 65.8276 23.9591Z" fill="url(#paint13_linear)" stroke="url(#paint14_linear)" stroke-width="0.139104"/>
<mask id="mask7" style="mask-type:alpha" maskUnits="userSpaceOnUse" x="64" y="18" width="5" height="7">
<path d="M65.8276 23.9591C66.2538 24.0863 66.6993 23.9059 67.0714 23.5373C67.4443 23.1679 67.7535 22.6016 67.9157 21.9271C68.0779 21.2525 68.0639 20.5908 67.9074 20.0653C67.7514 19.5416 67.449 19.1402 67.0246 19.0135C66.5985 18.8863 66.153 19.0667 65.7809 19.4353C65.408 19.8047 65.0988 20.371 64.9366 21.0455C64.7744 21.7201 64.7883 22.3818 64.9449 22.9074C65.1009 23.431 65.4033 23.8324 65.8276 23.9591Z" fill="white" stroke="white" stroke-width="0.139104"/>
</mask>
<g mask="url(#mask7)">
<g filter="url(#filter16_d)">
<path fill-rule="evenodd" clip-rule="evenodd" d="M66.2067 21.9455C66.1536 21.0593 66.4868 20.1349 66.9511 19.8808C67.4154 19.6267 67.8348 20.1391 67.888 21.0252C67.9412 21.9114 67.608 22.8358 67.1437 23.0899C66.6794 23.344 66.2599 22.8316 66.2067 21.9455Z" fill="url(#paint15_linear)"/>
</g>
<mask id="mask8" style="mask-type:alpha" maskUnits="userSpaceOnUse" x="66" y="19" width="2" height="5">
<path fill-rule="evenodd" clip-rule="evenodd" d="M66.2067 21.9455C66.1536 21.0593 66.4868 20.1349 66.9511 19.8808C67.4154 19.6267 67.8348 20.1391 67.888 21.0252C67.9412 21.9114 67.608 22.8358 67.1437 23.0899C66.6794 23.344 66.2599 22.8316 66.2067 21.9455Z" fill="white"/>
</mask>
<g mask="url(#mask8)">
<g filter="url(#filter17_d)">
<path fill-rule="evenodd" clip-rule="evenodd" d="M66.359 21.88C66.3158 21.16 66.5866 20.4089 66.9638 20.2024C67.341 19.996 67.6819 20.4123 67.7251 21.1323C67.7683 21.8523 67.4975 22.6034 67.1203 22.8099C66.7431 23.0163 66.4022 22.6 66.359 21.88Z" fill="url(#paint16_linear)"/>
</g>
<path fill-rule="evenodd" clip-rule="evenodd" d="M66.5695 21.765C66.5396 21.2665 66.7271 20.7465 66.9882 20.6036C67.2494 20.4606 67.4853 20.7489 67.5153 21.2473C67.5452 21.7458 67.3577 22.2658 67.0966 22.4087C66.8354 22.5517 66.5995 22.2634 66.5695 21.765Z" fill="url(#paint17_radial)"/>
<g filter="url(#filter18_f)">
<path fill-rule="evenodd" clip-rule="evenodd" d="M66.3627 21.2657C66.3494 21.0442 66.4327 20.8131 66.5488 20.7495C66.6649 20.686 66.7697 20.8141 66.783 21.0357C66.7963 21.2572 66.713 21.4883 66.597 21.5518C66.4809 21.6154 66.376 21.4873 66.3627 21.2657Z" fill="#0D1343"/>
</g>
<path opacity="0.351795" fill-rule="evenodd" clip-rule="evenodd" d="M67.1944 21.05C67.1844 20.8838 67.2469 20.7105 67.334 20.6628C67.421 20.6152 67.4997 20.7113 67.5096 20.8774C67.5196 21.0436 67.4571 21.2169 67.3701 21.2646C67.283 21.3122 67.2044 21.2161 67.1944 21.05Z" fill="#8361FF"/>
<path opacity="0.28111" fill-rule="evenodd" clip-rule="evenodd" d="M66.5942 22.0177C66.5809 21.7961 66.6642 21.565 66.7803 21.5015C66.8963 21.438 67.0012 21.5661 67.0145 21.7876C67.0278 22.0092 66.9445 22.2403 66.8284 22.3038C66.7123 22.3673 66.6075 22.2392 66.5942 22.0177Z" fill="#37759E"/>
<g opacity="0.773996" filter="url(#filter19_f)">
<path fill-rule="evenodd" clip-rule="evenodd" d="M66.6635 21.1831C66.6502 20.9615 66.7335 20.7304 66.8496 20.6669C66.9657 20.6034 67.0705 20.7315 67.0838 20.953C67.0971 21.1746 67.0138 21.4057 66.8977 21.4692C66.7817 21.5327 66.6768 21.4046 66.6635 21.1831Z" fill="#513CDA"/>
</g>
</g>
</g>
<mask id="mask9" style="mask-type:alpha" maskUnits="userSpaceOnUse" x="3" y="9" width="105" height="341">
<path fill-rule="evenodd" clip-rule="evenodd" d="M24.7042 29.8373C24.6265 29.1626 23.9684 28.715 23.3121 28.8894L15.8651 30.8683C8.31438 32.8818 3.33887 38.8855 3.33887 49.4822C3.33897 239.638 3.33909 334.726 3.33923 334.746C3.38963 342.158 6.86794 349.728 14.8366 349.678L94.4194 349.041C101.753 348.982 107.667 342.743 107.667 332.349V23.6714C107.667 10.5591 100.415 8.39583 95.0705 9.82106L85.1266 12.4634C83.9483 12.7766 83.1111 13.8205 83.0614 15.0387L82.9391 18.0341C82.7543 22.5627 79.6291 26.4375 75.2424 27.5772L31.7823 38.8683C28.9567 39.6024 26.0711 37.9069 25.337 35.0814C25.2918 34.9074 24.9172 31.6867 24.7042 29.8373Z" fill="white"/>
</mask>
<g mask="url(#mask9)">
<path fill-rule="evenodd" clip-rule="evenodd" d="M3.33887 34.2828L107.667 6.4621V348.935L3.33887 349.77V34.2828Z" fill="#A595D6"/>
</g>
<defs>
<filter id="filter0_f" x="3.68734" y="-6.04996" width="126.164" height="370.216" filterUnits="userSpaceOnUse" color-interpolation-filters="sRGB">
<feFlood flood-opacity="0" result="BackgroundImageFix"/>
<feBlend mode="normal" in="SourceGraphic" in2="BackgroundImageFix" result="shape"/>
<feGaussianBlur stdDeviation="3.02498" result="effect1_foregroundBlur"/>
</filter>
<filter id="filter1_i" x="3.86133" y="343.653" width="118.952" height="16.1321" filterUnits="userSpaceOnUse" color-interpolation-filters="sRGB">
<feFlood flood-opacity="0" result="BackgroundImageFix"/>
<feBlend mode="normal" in="SourceGraphic" in2="BackgroundImageFix" result="shape"/>
<feColorMatrix in="SourceAlpha" type="matrix" values="0 0 0 0 0 0 0 0 0 0 0 0 0 0 0 0 0 0 127 0" result="hardAlpha"/>
<feOffset dy="-0.556414"/>
<feGaussianBlur stdDeviation="0.139104"/>
<feComposite in2="hardAlpha" operator="arithmetic" k2="-1" k3="1"/>
<feColorMatrix type="matrix" values="0 0 0 0 0 0 0 0 0 0 0 0 0 0 0 0 0 0 1 0"/>
<feBlend mode="normal" in2="shape" result="effect1_innerShadow"/>
</filter>
<filter id="filter2_f" x="75.2414" y="311.781" width="67.6316" height="67.6313" filterUnits="userSpaceOnUse" color-interpolation-filters="sRGB">
<feFlood flood-opacity="0" result="BackgroundImageFix"/>
<feBlend mode="normal" in="SourceGraphic" in2="BackgroundImageFix" result="shape"/>
<feGaussianBlur stdDeviation="11.3437" result="effect1_foregroundBlur"/>
</filter>
<filter id="filter3_ddd" x="51.9308" y="358.81" width="13.7976" height="4.68831" filterUnits="userSpaceOnUse" color-interpolation-filters="sRGB">
<feFlood flood-opacity="0" result="BackgroundImageFix"/>
<feColorMatrix in="SourceAlpha" type="matrix" values="0 0 0 0 0 0 0 0 0 0 0 0 0 0 0 0 0 0 127 0" result="hardAlpha"/>
<feOffset/>
<feGaussianBlur stdDeviation="0.139104"/>
<feColorMatrix type="matrix" values="0 0 0 0 1 0 0 0 0 1 0 0 0 0 1 0 0 0 0.5 0"/>
<feBlend mode="normal" in2="BackgroundImageFix" result="effect1_dropShadow"/>
<feColorMatrix in="SourceAlpha" type="matrix" values="0 0 0 0 0 0 0 0 0 0 0 0 0 0 0 0 0 0 127 0" result="hardAlpha"/>
<feOffset/>
<feGaussianBlur stdDeviation="0.139104"/>
<feColorMatrix type="matrix" values="0 0 0 0 0 0 0 0 0 0 0 0 0 0 0 0 0 0 0.3 0"/>
<feBlend mode="normal" in2="effect1_dropShadow" result="effect2_dropShadow"/>
<feColorMatrix in="SourceAlpha" type="matrix" values="0 0 0 0 0 0 0 0 0 0 0 0 0 0 0 0 0 0 127 0" result="hardAlpha"/>
<feOffset/>
<feGaussianBlur stdDeviation="0.139104"/>
<feColorMatrix type="matrix" values="0 0 0 0 0 0 0 0 0 0 0 0 0 0 0 0 0 0 0.2 0"/>
<feBlend mode="normal" in2="effect2_dropShadow" result="effect3_dropShadow"/>
<feBlend mode="normal" in="SourceGraphic" in2="effect3_dropShadow" result="shape"/>
</filter>
<filter id="filter4_f" x="86.3153" y="0.443141" width="35.4691" height="359.271" filterUnits="userSpaceOnUse" color-interpolation-filters="sRGB">
<feFlood flood-opacity="0" result="BackgroundImageFix"/>
<feBlend mode="normal" in="SourceGraphic" in2="BackgroundImageFix" result="shape"/>
<feGaussianBlur stdDeviation="3.02498" result="effect1_foregroundBlur"/>
</filter>
<filter id="filter5_f" x="75.5197" y="-22.624" width="67.6316" height="67.6313" filterUnits="userSpaceOnUse" color-interpolation-filters="sRGB">
<feFlood flood-opacity="0" result="BackgroundImageFix"/>
<feBlend mode="normal" in="SourceGraphic" in2="BackgroundImageFix" result="shape"/>
<feGaussianBlur stdDeviation="11.3437" result="effect1_foregroundBlur"/>
</filter>
<filter id="filter6_f" x="68.008" y="314.285" width="73.195" height="73.1955" filterUnits="userSpaceOnUse" color-interpolation-filters="sRGB">
<feFlood flood-opacity="0" result="BackgroundImageFix"/>
<feBlend mode="normal" in="SourceGraphic" in2="BackgroundImageFix" result="shape"/>
<feGaussianBlur stdDeviation="11.3437" result="effect1_foregroundBlur"/>
</filter>
<filter id="filter7_f" x="86.8634" y="-13.7842" width="35.2069" height="35.2067" filterUnits="userSpaceOnUse" color-interpolation-filters="sRGB">
<feFlood flood-opacity="0" result="BackgroundImageFix"/>
<feBlend mode="normal" in="SourceGraphic" in2="BackgroundImageFix" result="shape"/>
<feGaussianBlur stdDeviation="5.67184" result="effect1_foregroundBlur"/>
</filter>
<filter id="filter8_i" x="0" y="2.39397" width="113.22" height="353.364" filterUnits="userSpaceOnUse" color-interpolation-filters="sRGB">
<feFlood flood-opacity="0" result="BackgroundImageFix"/>
<feBlend mode="normal" in="SourceGraphic" in2="BackgroundImageFix" result="shape"/>
<feColorMatrix in="SourceAlpha" type="matrix" values="0 0 0 0 0 0 0 0 0 0 0 0 0 0 0 0 0 0 127 0" result="hardAlpha"/>
<feOffset dy="-0.278207"/>
<feGaussianBlur stdDeviation="0.139104"/>
<feComposite in2="hardAlpha" operator="arithmetic" k2="-1" k3="1"/>
<feColorMatrix type="matrix" values="0 0 0 0 1 0 0 0 0 1 0 0 0 0 1 0 0 0 0.15 0"/>
<feBlend mode="normal" in2="shape" result="effect1_innerShadow"/>
</filter>
<filter id="filter9_i" x="0.000113219" y="2.09186" width="118.516" height="354.64" filterUnits="userSpaceOnUse" color-interpolation-filters="sRGB">
<feFlood flood-opacity="0" result="BackgroundImageFix"/>
<feBlend mode="normal" in="SourceGraphic" in2="BackgroundImageFix" result="shape"/>
<feColorMatrix in="SourceAlpha" type="matrix" values="0 0 0 0 0 0 0 0 0 0 0 0 0 0 0 0 0 0 127 0" result="hardAlpha"/>
<feOffset dx="-0.278207"/>
<feGaussianBlur stdDeviation="0.139104"/>
<feComposite in2="hardAlpha" operator="arithmetic" k2="-1" k3="1"/>
<feColorMatrix type="matrix" values="0 0 0 0 0 0 0 0 0 0 0 0 0 0 0 0 0 0 0.5 0"/>
<feBlend mode="normal" in2="shape" result="effect1_innerShadow"/>
</filter>
<filter id="filter10_f" x="73.0158" y="-25.1278" width="64.8493" height="64.8492" filterUnits="userSpaceOnUse" color-interpolation-filters="sRGB">
<feFlood flood-opacity="0" result="BackgroundImageFix"/>
<feBlend mode="normal" in="SourceGraphic" in2="BackgroundImageFix" result="shape"/>
<feGaussianBlur stdDeviation="11.3437" result="effect1_foregroundBlur"/>
</filter>
<filter id="filter11_f" x="77.3536" y="320.848" width="56.4519" height="56.4522" filterUnits="userSpaceOnUse" color-interpolation-filters="sRGB">
<feFlood flood-opacity="0" result="BackgroundImageFix"/>
<feBlend mode="normal" in="SourceGraphic" in2="BackgroundImageFix" result="shape"/>
<feGaussianBlur stdDeviation="9.45307" result="effect1_foregroundBlur"/>
</filter>
<filter id="filter12_f" x="-14.2899" y="3.85654" width="46.6639" height="46.6641" filterUnits="userSpaceOnUse" color-interpolation-filters="sRGB">
<feFlood flood-opacity="0" result="BackgroundImageFix"/>
<feBlend mode="normal" in="SourceGraphic" in2="BackgroundImageFix" result="shape"/>
<feGaussianBlur stdDeviation="7.56245" result="effect1_foregroundBlur"/>
</filter>
<filter id="filter13_f" x="-16.5155" y="327.968" width="44.7166" height="44.7166" filterUnits="userSpaceOnUse" color-interpolation-filters="sRGB">
<feFlood flood-opacity="0" result="BackgroundImageFix"/>
<feBlend mode="normal" in="SourceGraphic" in2="BackgroundImageFix" result="shape"/>
<feGaussianBlur stdDeviation="7.56245" result="effect1_foregroundBlur"/>
</filter>
<filter id="filter14_d" x="120.599" y="192.226" width="2.50629" height="3.47888" filterUnits="userSpaceOnUse" color-interpolation-filters="sRGB">
<feFlood flood-opacity="0" result="BackgroundImageFix"/>
<feColorMatrix in="SourceAlpha" type="matrix" values="0 0 0 0 0 0 0 0 0 0 0 0 0 0 0 0 0 0 127 0" result="hardAlpha"/>
<feOffset dx="-0.139104"/>
<feColorMatrix type="matrix" values="0 0 0 0 1 0 0 0 0 1 0 0 0 0 1 0 0 0 0.1 0"/>
<feBlend mode="normal" in2="BackgroundImageFix" result="effect1_dropShadow"/>
<feBlend mode="normal" in="SourceGraphic" in2="effect1_dropShadow" result="shape"/>
</filter>
<filter id="filter15_d" x="119.769" y="79.2136" width="4.31738" height="42.1384" filterUnits="userSpaceOnUse" color-interpolation-filters="sRGB">
<feFlood flood-opacity="0" result="BackgroundImageFix"/>
<feColorMatrix in="SourceAlpha" type="matrix" values="0 0 0 0 0 0 0 0 0 0 0 0 0 0 0 0 0 0 127 0" result="hardAlpha"/>
<feOffset/>
<feColorMatrix type="matrix" values="0 0 0 0 0 0 0 0 0 0 0 0 0 0 0 0 0 0 0.5 0"/>
<feBlend mode="normal" in2="BackgroundImageFix" result="effect1_dropShadow"/>
<feBlend mode="normal" in="SourceGraphic" in2="effect1_dropShadow" result="shape"/>
</filter>
<filter id="filter16_d" x="65.6448" y="19.2593" width="2.80521" height="4.45218" filterUnits="userSpaceOnUse" color-interpolation-filters="sRGB">
<feFlood flood-opacity="0" result="BackgroundImageFix"/>
<feColorMatrix in="SourceAlpha" type="matrix" values="0 0 0 0 0 0 0 0 0 0 0 0 0 0 0 0 0 0 127 0" result="hardAlpha"/>
<feOffset/>
<feGaussianBlur stdDeviation="0.278207"/>
<feColorMatrix type="matrix" values="0 0 0 0 0 0 0 0 0 0 0 0 0 0 0 0 0 0 0.5 0"/>
<feBlend mode="normal" in2="BackgroundImageFix" result="effect1_dropShadow"/>
<feBlend mode="normal" in="SourceGraphic" in2="effect1_dropShadow" result="shape"/>
</filter>
<filter id="filter17_d" x="66.3545" y="20.1495" width="1.375" height="2.7132" filterUnits="userSpaceOnUse" color-interpolation-filters="sRGB">
<feFlood flood-opacity="0" result="BackgroundImageFix"/>
<feColorMatrix in="SourceAlpha" type="matrix" values="0 0 0 0 0 0 0 0 0 0 0 0 0 0 0 0 0 0 127 0" result="hardAlpha"/>
<feOffset/>
<feColorMatrix type="matrix" values="0 0 0 0 0.129412 0 0 0 0 0.45098 0 0 0 0 0.533333 0 0 0 0.27046 0"/>
<feBlend mode="normal" in2="BackgroundImageFix" result="effect1_dropShadow"/>
<feBlend mode="normal" in="SourceGraphic" in2="effect1_dropShadow" result="shape"/>
</filter>
<filter id="filter18_f" x="65.6051" y="19.977" width="1.93534" height="2.34733" filterUnits="userSpaceOnUse" color-interpolation-filters="sRGB">
<feFlood flood-opacity="0" result="BackgroundImageFix"/>
<feBlend mode="normal" in="SourceGraphic" in2="BackgroundImageFix" result="shape"/>
<feGaussianBlur stdDeviation="0.378123" result="effect1_foregroundBlur"/>
</filter>
<filter id="filter19_f" x="65.9059" y="19.8944" width="1.93534" height="2.34733" filterUnits="userSpaceOnUse" color-interpolation-filters="sRGB">
<feFlood flood-opacity="0" result="BackgroundImageFix"/>
<feBlend mode="normal" in="SourceGraphic" in2="BackgroundImageFix" result="shape"/>
<feGaussianBlur stdDeviation="0.378123" result="effect1_foregroundBlur"/>
</filter>
<linearGradient id="paint0_linear" x1="51.0515" y1="363.222" x2="61.3335" y2="366.051" gradientUnits="userSpaceOnUse">
<stop stop-color="#667871"/>
<stop offset="1" stop-color="#0F1515"/>
</linearGradient>
<linearGradient id="paint1_linear" x1="0" y1="1.36438" x2="0" y2="357.288" gradientUnits="userSpaceOnUse">
<stop stop-color="#3C3C3C"/>
<stop offset="0.968439" stop-color="#343434"/>
<stop offset="0.983847" stop-color="#181818"/>
<stop offset="1" stop-color="#161616"/>
</linearGradient>
<linearGradient id="paint2_linear" x1="-0.469836" y1="438.204" x2="60.5283" y2="439.548" gradientUnits="userSpaceOnUse">
<stop stop-color="#414141"/>
<stop offset="1" stop-opacity="0.01"/>
</linearGradient>
<linearGradient id="paint3_linear" x1="125.193" y1="29.3307" x2="115.178" y2="29.3307" gradientUnits="userSpaceOnUse">
<stop stop-color="#1B2A27"/>
<stop offset="0.395535" stop-color="#03120F"/>
<stop offset="1" stop-color="#25342F"/>
</linearGradient>
<linearGradient id="paint4_linear" x1="125.193" y1="322.227" x2="115.178" y2="322.227" gradientUnits="userSpaceOnUse">
<stop stop-color="#1B2A27"/>
<stop offset="0.395535" stop-color="#03120F"/>
<stop offset="1" stop-color="#25342F"/>
</linearGradient>
<linearGradient id="paint5_linear" x1="123.802" y1="156.694" x2="119.907" y2="156.694" gradientUnits="userSpaceOnUse">
<stop stop-color="#193830"/>
<stop offset="0.485421" stop-color="#294841"/>
<stop offset="0.512207" stop-color="#5B7974"/>
<stop offset="1" stop-color="#66847F"/>
</linearGradient>
<linearGradient id="paint6_linear" x1="120.761" y1="191.004" x2="118.883" y2="194.5" gradientUnits="userSpaceOnUse">
<stop stop-color="#1E2624"/>
<stop offset="0.120572" stop-color="#2B3331"/>
<stop offset="0.32438" stop-color="#92A9A4"/>
<stop offset="0.463455" stop-color="#D1ECE3"/>
<stop offset="0.647782" stop-color="#ADC6BC"/>
<stop offset="0.842053" stop-color="#5A615F"/>
<stop offset="1" stop-color="#1E2623"/>
</linearGradient>
<radialGradient id="paint7_radial" cx="0" cy="0" r="1" gradientUnits="userSpaceOnUse" gradientTransform="translate(121.944 194.505) rotate(117.869) scale(1.55109 1.05116)">
<stop stop-color="#212222"/>
<stop offset="1"/>
</radialGradient>
<linearGradient id="paint8_linear" x1="121.762" y1="68.679" x2="119.554" y2="68.7135" gradientUnits="userSpaceOnUse">
<stop stop-opacity="0.865942"/>
<stop offset="1" stop-color="#A1B2AC"/>
</linearGradient>
<linearGradient id="paint9_linear" x1="122.756" y1="107.865" x2="119.824" y2="107.853" gradientUnits="userSpaceOnUse">
<stop stop-color="white" stop-opacity="0.01"/>
<stop offset="0.175988" stop-color="white" stop-opacity="0.01"/>
<stop offset="0.203259"/>
<stop offset="0.525077" stop-opacity="0.0464564"/>
<stop offset="0.872818" stop-opacity="0.01"/>
<stop offset="1" stop-opacity="0.01"/>
</linearGradient>
<linearGradient id="paint10_linear" x1="120.757" y1="120.482" x2="124.085" y2="120.482" gradientUnits="userSpaceOnUse">
<stop stop-color="#03120D"/>
<stop offset="0.570731" stop-color="#01100B"/>
<stop offset="0.578544" stop-color="#82958F"/>
<stop offset="1" stop-color="#495C56"/>
</linearGradient>
<linearGradient id="paint11_linear" x1="48.0686" y1="24.5757" x2="48.8187" y2="27.1916" gradientUnits="userSpaceOnUse">
<stop stop-color="#141313"/>
<stop offset="0.325911" stop-color="#191919"/>
<stop offset="1" stop-color="#191919"/>
</linearGradient>
<linearGradient id="paint12_linear" x1="45.8444" y1="27.9308" x2="59.7489" y2="28.8659" gradientUnits="userSpaceOnUse">
<stop stop-color="#595959"/>
<stop offset="0.060809" stop-color="#0C0C0C"/>
<stop offset="0.426006" stop-color="#141414"/>
<stop offset="0.928024" stop-color="#100F0F"/>
<stop offset="1"/>
</linearGradient>
<linearGradient id="paint13_linear" x1="64.4305" y1="21.2225" x2="67.0641" y2="23.9741" gradientUnits="userSpaceOnUse">
<stop stop-color="#181818"/>
<stop offset="1" stop-color="#1C1F24"/>
</linearGradient>
<linearGradient id="paint14_linear" x1="66.8734" y1="19.2811" x2="65.5468" y2="22.4289" gradientUnits="userSpaceOnUse">
<stop/>
<stop offset="1" stop-color="#3C3C3C" stop-opacity="0.596835"/>
</linearGradient>
<linearGradient id="paint15_linear" x1="66.1545" y1="20.2669" x2="67.6176" y2="22.8709" gradientUnits="userSpaceOnUse">
<stop stop-color="#003472"/>
<stop offset="0.605134" stop-color="#00050B" stop-opacity="0.0965401"/>
<stop offset="1" stop-color="#305379"/>
</linearGradient>
<linearGradient id="paint16_linear" x1="66.2716" y1="20.5605" x2="67.5511" y2="22.5919" gradientUnits="userSpaceOnUse">
<stop stop-color="#217388"/>
<stop offset="0.186067" stop-color="#1D4455"/>
<stop offset="0.581198" stop-opacity="0.01"/>
<stop offset="1" stop-color="#6299E0"/>
</linearGradient>
<radialGradient id="paint17_radial" cx="0" cy="0" r="1" gradientUnits="userSpaceOnUse" gradientTransform="translate(67.0424 21.5061) rotate(81.2328) scale(0.950295 2.41533)">
<stop/>
<stop offset="1" stop-color="#003B81"/>
</radialGradient>
</defs>
</svg>
