<svg width="204" height="402" viewBox="0 0 204 402" fill="none" xmlns="http://www.w3.org/2000/svg">
<g filter="url(#filter0_f)">
<path fill-rule="evenodd" clip-rule="evenodd" d="M155.754 322.509C161.227 315.892 160.618 306.187 154.363 300.353L79.7402 230.75L47.2229 278.87C42.7113 285.546 43.7674 294.495 49.7047 299.898L108.305 353.225C115.15 359.455 125.848 358.674 131.77 351.513L155.754 322.509Z" fill="url(#paint0_linear)"/>
</g>
<mask id="mask0" style="mask-type:alpha" maskUnits="userSpaceOnUse" x="41" y="0" width="125" height="359">
<path fill-rule="evenodd" clip-rule="evenodd" d="M140.825 0.578266L58.9962 22.9417C48.1893 25.7886 41 37.9755 41 52.7958V334.224C41 346.668 48.8234 358.785 61.9674 358.785H92.9236C93.0681 358.628 93.2722 358.538 93.4862 358.538H104.1C104.255 358.538 104.407 358.585 104.535 358.674C104.584 358.708 104.627 358.745 104.665 358.785H140.573C158.335 358.785 165.845 345.315 165.845 329.506V25.8744C165.845 6.33164 153.812 -2.42837 140.825 0.578266Z" fill="white"/>
</mask>
<g mask="url(#mask0)">
<path fill-rule="evenodd" clip-rule="evenodd" d="M140.825 0.578266L58.9962 22.9417C48.1893 25.7886 41 37.9755 41 52.7958V334.224C41 346.668 48.8234 358.785 61.9674 358.785H92.9236C93.0681 358.628 93.2722 358.538 93.4862 358.538H104.1C104.255 358.538 104.407 358.585 104.535 358.674C104.584 358.708 104.627 358.745 104.665 358.785H140.573C158.335 358.785 165.845 345.315 165.845 329.506V25.8744C165.845 6.33164 153.812 -2.42837 140.825 0.578266Z" fill="#CFE5DD"/>
<path d="M58.998 22.9416L59.1378 23.4722L59.1427 23.4709L58.998 22.9416ZM140.827 0.578207L140.703 0.0436594L140.693 0.0460904L140.682 0.0489305L140.827 0.578207ZM92.9254 358.785V359.334H93.1668L93.3299 359.156L92.9254 358.785ZM104.537 358.674L104.224 359.125L104.537 358.674ZM104.667 358.785L104.267 359.161L104.429 359.334H104.667V358.785ZM59.1427 23.4709L140.972 1.10749L140.682 0.0489305L58.8534 22.4123L59.1427 23.4709ZM41.5505 52.7957C41.5505 38.1088 48.6681 26.2303 59.1378 23.4722L58.8582 22.411C47.7141 25.3468 40.4531 37.8421 40.4531 52.7957H41.5505ZM41.5505 334.224V52.7957H40.4531V334.224H41.5505ZM61.9692 358.237C49.2446 358.237 41.5505 346.496 41.5505 334.224H40.4531C40.4531 346.84 48.4059 359.334 61.9692 359.334V358.237ZM92.9254 358.237H61.9692V359.334H92.9254V358.237ZM93.3299 359.156C93.3705 359.112 93.4279 359.087 93.488 359.087V357.989C93.1201 357.989 92.7693 358.144 92.5209 358.415L93.3299 359.156ZM93.488 359.087H104.102V357.989H93.488V359.087ZM104.102 359.087C104.146 359.087 104.189 359.1 104.224 359.125L104.849 358.222C104.629 358.071 104.369 357.989 104.102 357.989V359.087ZM104.224 359.125C104.243 359.137 104.256 359.15 104.267 359.161L105.067 358.41C105.002 358.341 104.929 358.278 104.849 358.222L104.224 359.125ZM140.575 358.237H104.667V359.334H140.575V358.237ZM165.299 329.506C165.299 337.334 163.438 344.522 159.436 349.74C155.451 354.937 149.3 358.237 140.575 358.237V359.334C149.612 359.334 156.097 355.898 160.307 350.408C164.501 344.939 166.396 337.488 166.396 329.506H165.299ZM165.299 25.8743V329.506H166.396V25.8743H165.299ZM140.951 1.11276C147.287 -0.354296 153.352 1.05291 157.836 5.17423C162.326 9.30067 165.299 16.2121 165.299 25.8743H166.396C166.396 15.9938 163.352 8.75385 158.578 4.36627C153.799 -0.0264468 147.353 -1.49593 140.703 0.0436594L140.951 1.11276Z" fill="#0A1914"/>
</g>
<mask id="mask1" style="mask-type:alpha" maskUnits="userSpaceOnUse" x="41" y="0" width="125" height="359">
<mask id="mask2" style="mask-type:alpha" maskUnits="userSpaceOnUse" x="41" y="0" width="125" height="359">
<path fill-rule="evenodd" clip-rule="evenodd" d="M140.825 0.578266L58.9962 22.9417C48.1893 25.7886 41 37.9755 41 52.7958V334.224C41 346.668 48.8234 358.785 61.9674 358.785H92.9236C93.0681 358.628 93.2722 358.538 93.4862 358.538H104.1C104.255 358.538 104.407 358.585 104.535 358.674C104.584 358.708 104.627 358.745 104.665 358.785H140.573C158.335 358.785 165.845 345.315 165.845 329.506V25.8744C165.845 6.33164 153.812 -2.42837 140.825 0.578266Z" fill="white"/>
</mask>
<g mask="url(#mask2)">
<path fill-rule="evenodd" clip-rule="evenodd" d="M140.825 0.578266L58.9962 22.9417C48.1893 25.7886 41 37.9755 41 52.7958V334.224C41 346.668 48.8234 358.785 61.9674 358.785H92.9236C93.0681 358.628 93.2722 358.538 93.4862 358.538H104.1C104.255 358.538 104.407 358.585 104.535 358.674C104.584 358.708 104.627 358.745 104.665 358.785H140.573C158.335 358.785 165.845 345.315 165.845 329.506V25.8744C165.845 6.33164 153.812 -2.42837 140.825 0.578266Z" fill="white"/>
<path d="M58.998 22.9416L59.1378 23.4722L59.1427 23.4709L58.998 22.9416ZM140.827 0.578207L140.703 0.0436594L140.693 0.0460904L140.682 0.0489305L140.827 0.578207ZM92.9254 358.785V359.334H93.1668L93.3299 359.156L92.9254 358.785ZM104.537 358.674L104.224 359.125L104.537 358.674ZM104.667 358.785L104.267 359.161L104.429 359.334H104.667V358.785ZM59.1427 23.4709L140.972 1.10749L140.682 0.0489305L58.8534 22.4123L59.1427 23.4709ZM41.5505 52.7957C41.5505 38.1088 48.6681 26.2303 59.1378 23.4722L58.8582 22.411C47.7141 25.3468 40.4531 37.8421 40.4531 52.7957H41.5505ZM41.5505 334.224V52.7957H40.4531V334.224H41.5505ZM61.9692 358.237C49.2446 358.237 41.5505 346.496 41.5505 334.224H40.4531C40.4531 346.84 48.4059 359.334 61.9692 359.334V358.237ZM92.9254 358.237H61.9692V359.334H92.9254V358.237ZM93.3299 359.156C93.3705 359.112 93.4279 359.087 93.488 359.087V357.989C93.1201 357.989 92.7693 358.144 92.5209 358.415L93.3299 359.156ZM93.488 359.087H104.102V357.989H93.488V359.087ZM104.102 359.087C104.146 359.087 104.189 359.1 104.224 359.125L104.849 358.222C104.629 358.071 104.369 357.989 104.102 357.989V359.087ZM104.224 359.125C104.243 359.137 104.256 359.15 104.267 359.161L105.067 358.41C105.002 358.341 104.929 358.278 104.849 358.222L104.224 359.125ZM140.575 358.237H104.667V359.334H140.575V358.237ZM165.299 329.506C165.299 337.334 163.438 344.522 159.436 349.74C155.451 354.937 149.3 358.237 140.575 358.237V359.334C149.612 359.334 156.097 355.898 160.307 350.408C164.501 344.939 166.396 337.488 166.396 329.506H165.299ZM165.299 25.8743V329.506H166.396V25.8743H165.299ZM140.951 1.11276C147.287 -0.354296 153.352 1.05291 157.836 5.17423C162.326 9.30067 165.299 16.2121 165.299 25.8743H166.396C166.396 15.9938 163.352 8.75385 158.578 4.36627C153.799 -0.0264468 147.353 -1.49593 140.703 0.0436594L140.951 1.11276Z" fill="white"/>
</g>
</mask>
<g mask="url(#mask1)">
<g filter="url(#filter1_f)">
<path fill-rule="evenodd" clip-rule="evenodd" d="M164.459 25.8768V329.509C164.459 345.317 156.948 356.846 139.187 356.846L50.7109 357.124L139.438 0.580708C152.425 -2.42593 164.459 6.33408 164.459 25.8768Z" fill="#23322D"/>
</g>
<g filter="url(#filter2_i)">
<path fill-rule="evenodd" clip-rule="evenodd" d="M61.0275 358.788H142.685C152.768 358.788 160.729 352.731 163.473 342.978C161.589 346.973 156.954 357.123 144.349 357.123L61.3049 357.401C51.5327 357.401 47.3131 352.382 44.8516 348.432C47.7895 355.054 53.4239 358.788 61.0275 358.788Z" fill="#272727"/>
</g>
<g filter="url(#filter3_f)">
<path fill-rule="evenodd" clip-rule="evenodd" d="M149.754 355.736C155.882 355.736 160.851 350.768 160.851 344.639C160.851 338.51 155.882 333.541 149.754 333.541C143.625 333.541 138.656 338.51 138.656 344.639C138.656 350.768 143.625 355.736 149.754 355.736Z" fill="black" fill-opacity="0.5"/>
</g>
<g filter="url(#filter4_ddd)">
<path d="M96.7868 362.081C95.8026 362.048 94.0931 361.167 93.6703 360.393C93.0002 359.165 92.5931 358.183 94.0502 358.096L102.935 358.093C105.307 358.239 105.583 359.983 105.98 360.644C106.547 361.588 106.27 362.246 105.183 362.212L96.7868 362.081Z" fill="url(#paint1_linear)"/>
</g>
<path fill-rule="evenodd" clip-rule="evenodd" d="M65.0976 26.1354L142.487 3.77149C152.831 1.15473 162.514 7.99859 162.514 25.1834V328.825C162.514 350.192 150.036 355.728 139.21 355.736L61.4045 355.743C51.5889 355.743 47.3789 340.988 47.3789 333.401V54.7413C47.3789 40.7533 53.1798 29.5373 65.0976 26.1354Z" fill="#01100B"/>
<path fill-rule="evenodd" clip-rule="evenodd" d="M64.8204 26.1356L139.158 4.04911C154.218 1.98721 159.185 9.10851 159.185 26.2934V328.825C159.185 350.192 148.371 355.451 135.88 355.459L61.1272 355.466C51.3116 355.466 47.1016 340.988 47.1016 333.401V54.7414C47.1016 40.7535 52.9026 29.5374 64.8204 26.1356Z" fill="#334841"/>
<mask id="mask3" style="mask-type:alpha" maskUnits="userSpaceOnUse" x="47" y="3" width="113" height="353">
<path fill-rule="evenodd" clip-rule="evenodd" d="M64.8204 26.1356L139.158 4.04911C154.218 1.98721 159.185 9.10851 159.185 26.2934V328.825C159.185 350.192 148.371 355.451 135.88 355.459L61.1272 355.466C51.3116 355.466 47.1016 340.988 47.1016 333.401V54.7414C47.1016 40.7535 52.9026 29.5374 64.8204 26.1356Z" fill="white"/>
</mask>
<g mask="url(#mask3)">
<g filter="url(#filter5_f)">
<path fill-rule="evenodd" clip-rule="evenodd" d="M136.383 6.82352C151.443 4.76162 156.41 11.8829 156.41 29.0678V326.051C156.41 347.418 145.596 352.676 133.105 352.685L136.383 6.82352Z" fill="#CFE5DD"/>
</g>
<g opacity="0.497791" filter="url(#filter6_f)">
<path opacity="0.497791" fill-rule="evenodd" clip-rule="evenodd" d="M150.032 22.2602C156.161 22.2602 161.129 17.2917 161.129 11.1628C161.129 5.0339 156.161 0.0654297 150.032 0.0654297C143.903 0.0654297 138.934 5.0339 138.934 11.1628C138.934 17.2917 143.903 22.2602 150.032 22.2602Z" fill="black"/>
</g>
<g opacity="0.502418" filter="url(#filter7_f)">
<path opacity="0.502418" fill-rule="evenodd" clip-rule="evenodd" d="M145.313 363.782C152.974 363.782 159.185 357.571 159.185 349.91C159.185 342.249 152.974 336.038 145.313 336.038C137.652 336.038 131.441 342.249 131.441 349.91C131.441 357.571 137.652 363.782 145.313 363.782Z" fill="black"/>
</g>
<path d="M58.7559 23.4928L137.251 1.96247C143.073 0.664683 147.746 2.12796 150.971 5.96092C154.204 9.80438 155.998 16.0512 155.998 24.351V328.825C155.998 339.07 153.37 345.898 149.585 350.164C145.8 354.43 140.845 356.15 136.16 356.154L55.8574 356.161C50.611 356.161 46.9327 352.391 44.5582 347.633C42.1851 342.878 41.1367 337.175 41.1367 333.401V52.5217C41.1367 38.5641 46.9222 26.8707 58.7559 23.4928Z" fill="url(#paint2_linear)"/>
<path d="M58.7559 23.4928L137.251 1.96247C143.073 0.664683 147.746 2.12796 150.971 5.96092C154.204 9.80438 155.998 16.0512 155.998 24.351V328.825C155.998 339.07 153.37 345.898 149.585 350.164C145.8 354.43 140.845 356.15 136.16 356.154L55.8574 356.161C50.611 356.161 46.9327 352.391 44.5582 347.633C42.1851 342.878 41.1367 337.175 41.1367 333.401V52.5217C41.1367 38.5641 46.9222 26.8707 58.7559 23.4928Z" fill="url(#paint3_linear)"/>
<path d="M58.7559 23.4928L137.251 1.96247C143.073 0.664683 147.746 2.12796 150.971 5.96092C154.204 9.80438 155.998 16.0512 155.998 24.351V328.825C155.998 339.07 153.37 345.898 149.585 350.164C145.8 354.43 140.845 356.15 136.16 356.154L55.8574 356.161C50.611 356.161 46.9327 352.391 44.5582 347.633C42.1851 342.878 41.1367 337.175 41.1367 333.401V52.5217C41.1367 38.5641 46.9222 26.8707 58.7559 23.4928Z" stroke="black" stroke-width="0.274343"/>
</g>
<mask id="mask4" style="mask-type:alpha" maskUnits="userSpaceOnUse" x="41" y="1" width="116" height="356">
<path d="M58.7559 23.4928L137.251 1.96247C143.073 0.664683 147.746 2.12796 150.971 5.96092C154.204 9.80438 155.998 16.0512 155.998 24.351V328.825C155.998 339.07 153.37 345.898 149.585 350.164C145.8 354.43 140.845 356.15 136.16 356.154L55.8574 356.161C50.611 356.161 46.9327 352.391 44.5582 347.633C42.1851 342.878 41.1367 337.175 41.1367 333.401V52.5217C41.1367 38.5641 46.9222 26.8707 58.7559 23.4928Z" fill="white"/>
<path d="M58.7559 23.4928L137.251 1.96247C143.073 0.664683 147.746 2.12796 150.971 5.96092C154.204 9.80438 155.998 16.0512 155.998 24.351V328.825C155.998 339.07 153.37 345.898 149.585 350.164C145.8 354.43 140.845 356.15 136.16 356.154L55.8574 356.161C50.611 356.161 46.9327 352.391 44.5582 347.633C42.1851 342.878 41.1367 337.175 41.1367 333.401V52.5217C41.1367 38.5641 46.9222 26.8707 58.7559 23.4928Z" stroke="white" stroke-width="0.274343"/>
</mask>
<g mask="url(#mask4)">
<g filter="url(#filter8_f)">
<path fill-rule="evenodd" clip-rule="evenodd" d="M145.176 10.0529C148.623 10.0529 151.418 7.25815 151.418 3.81064C151.418 0.363123 148.623 -2.43164 145.176 -2.43164C141.728 -2.43164 138.934 0.363123 138.934 3.81064C138.934 7.25815 141.728 10.0529 145.176 10.0529Z" fill="black"/>
</g>
<path fill-rule="evenodd" clip-rule="evenodd" d="M155.859 29.4735C155.859 29.4735 158.154 29.0237 160.926 29.4856C163.698 29.9476 165.847 31.1381 165.847 31.1381V33.6351C165.847 33.6351 163.184 32.359 160.951 31.9868C158.718 31.6146 155.859 31.9704 155.859 31.9704V29.4735Z" fill="url(#paint4_linear)" fill-opacity="0.9"/>
<path d="M165.843 321.334H155.855V323.831H165.843V321.334Z" fill="url(#paint5_linear)" fill-opacity="0.9"/>
<g filter="url(#filter9_i)">
<path fill-rule="evenodd" clip-rule="evenodd" d="M58.481 24.702C46.8983 27.9593 41.2773 38.848 41.2773 52.5217V334.788C41.2773 338.889 42.6203 343.864 44.4147 347.186C46.209 350.509 49.9769 354.494 55.0242 354.494H134.185C147.345 354.49 153.628 343.504 153.628 330.755V22.9639C153.628 10.1928 147.505 1.35815 137.768 3.18305L58.481 24.702Z" fill="black"/>
</g>
<path d="M58.4456 24.5696L58.4444 24.5699C46.779 27.8505 41.1406 38.815 41.1406 52.5217V334.788C41.1406 338.913 42.4897 343.91 44.2945 347.251C46.0985 350.592 49.9027 354.632 55.0247 354.632H134.186C140.81 354.629 145.711 351.861 148.952 347.486C152.19 343.115 153.766 337.15 153.766 330.755V22.9639C153.766 16.5596 152.231 11.125 149.459 7.51638C146.681 3.90064 142.665 2.12574 137.743 3.0482V3.04777L137.733 3.05064L58.4456 24.5696Z" stroke="black" stroke-width="0.274343"/>
</g>
<mask id="mask5" style="mask-type:alpha" maskUnits="userSpaceOnUse" x="41" y="2" width="113" height="353">
<path d="M58.4456 24.5696L58.4444 24.5699C46.779 27.8505 41.1406 38.815 41.1406 52.5217V334.788C41.1406 338.913 42.4897 343.91 44.2945 347.251C46.0985 350.592 49.9027 354.632 55.0247 354.632H134.186C140.81 354.629 145.711 351.861 148.952 347.486C152.19 343.115 153.766 337.15 153.766 330.755V22.9639C153.766 16.5596 152.231 11.125 149.459 7.51638C146.681 3.90064 142.665 2.12574 137.743 3.0482V3.04777L137.733 3.05064L58.4456 24.5696Z" fill="white" stroke="white" stroke-width="0.274343"/>
</mask>
<g mask="url(#mask5)">
<g filter="url(#filter10_i)">
<path fill-rule="evenodd" clip-rule="evenodd" d="M139.16 2.38445L58.996 23.916C47.0782 27.3179 41.2773 37.9791 41.2773 51.967V333.401C41.2773 344.04 45.4872 355.743 55.3029 355.743H57.7363C49.8841 355.697 42.1092 347.055 42.1092 333.401V52.7993C42.1092 38.8114 47.6327 27.3179 59.5505 23.916L134.443 3.7716C149.503 -0.232335 151.696 9.10843 151.696 26.2933V328.825C151.696 350.192 142.547 355.728 131.72 355.736H135.882C146.709 355.728 159.187 350.192 159.187 328.825V26.2933C159.187 9.10845 154.22 0.322551 139.16 2.38445Z" fill="#949494"/>
</g>
<mask id="mask6" style="mask-type:alpha" maskUnits="userSpaceOnUse" x="41" y="2" width="119" height="354">
<path fill-rule="evenodd" clip-rule="evenodd" d="M139.16 2.38445L58.996 23.916C47.0782 27.3179 41.2773 37.9791 41.2773 51.967V333.401C41.2773 344.04 45.4872 355.743 55.3029 355.743H57.7363C49.8841 355.697 42.1092 347.055 42.1092 333.401V52.7993C42.1092 38.8114 47.6327 27.3179 59.5505 23.916L134.443 3.7716C149.503 -0.232335 151.696 9.10843 151.696 26.2933V328.825C151.696 350.192 142.547 355.728 131.72 355.736H135.882C146.709 355.728 159.187 350.192 159.187 328.825V26.2933C159.187 9.10845 154.22 0.322551 139.16 2.38445Z" fill="white"/>
</mask>
<g mask="url(#mask6)">
<g filter="url(#filter11_f)">
<path fill-rule="evenodd" clip-rule="evenodd" d="M146.148 16.9893C151.51 16.9893 155.859 12.6419 155.859 7.27905C155.859 1.91626 151.51 -2.43115 146.148 -2.43115C140.785 -2.43115 136.438 1.91626 136.438 7.27905C136.438 12.6419 140.785 16.9893 146.148 16.9893Z" fill="black"/>
</g>
<g filter="url(#filter12_f)">
<path fill-rule="evenodd" clip-rule="evenodd" d="M146.286 357.401C151.419 357.401 155.58 353.24 155.58 348.107C155.58 342.974 151.419 338.813 146.286 338.813C141.153 338.813 136.992 342.974 136.992 348.107C136.992 353.24 141.153 357.401 146.286 357.401Z" fill="black"/>
</g>
<g filter="url(#filter13_f)">
<path fill-rule="evenodd" clip-rule="evenodd" d="M50.0164 35.2998C54.5364 35.2998 58.2007 31.6356 58.2007 27.1155C58.2007 22.5954 54.5364 18.9312 50.0164 18.9312C45.4963 18.9312 41.832 22.5954 41.832 27.1155C41.832 31.6356 45.4963 35.2998 50.0164 35.2998Z" fill="black"/>
</g>
<g filter="url(#filter14_f)">
<path fill-rule="evenodd" clip-rule="evenodd" d="M46.8266 356.569C50.8104 356.569 54.0399 353.339 54.0399 349.355C54.0399 345.372 50.8104 342.142 46.8266 342.142C42.8428 342.142 39.6133 345.372 39.6133 349.355C39.6133 353.339 42.8428 356.569 46.8266 356.569Z" fill="black"/>
</g>
</g>
</g>
<path d="M162.516 156.124C161.368 156.124 160.438 157.055 160.438 158.203V193.966C160.438 195.029 161.239 195.92 162.296 196.033C163.525 196.165 164.596 195.202 164.596 193.966V158.203C164.596 157.055 163.664 156.124 162.516 156.124Z" stroke="url(#paint6_linear)" stroke-width="0.274343"/>
<g filter="url(#filter15_d)">
<path fill-rule="evenodd" clip-rule="evenodd" d="M162.583 195.163C163.235 195.163 163.763 194.387 163.763 193.429C163.763 192.471 163.235 191.694 162.583 191.694C161.931 191.694 161.402 192.471 161.402 193.429C161.402 194.387 161.931 195.163 162.583 195.163Z" fill="url(#paint7_linear)"/>
</g>
</g>
<mask id="mask7" style="mask-type:alpha" maskUnits="userSpaceOnUse" x="161" y="191" width="3" height="5">
<path fill-rule="evenodd" clip-rule="evenodd" d="M162.583 195.163C163.235 195.163 163.763 194.387 163.763 193.429C163.763 192.471 163.235 191.694 162.583 191.694C161.931 191.694 161.402 192.471 161.402 193.429C161.402 194.387 161.931 195.163 162.583 195.163Z" fill="white"/>
</mask>
<g mask="url(#mask7)">
<path fill-rule="evenodd" clip-rule="evenodd" d="M162.236 195.025C162.849 195.025 163.347 194.279 163.347 193.359C163.347 192.44 162.849 191.694 162.236 191.694C161.622 191.694 161.125 192.44 161.125 193.359C161.125 194.279 161.622 195.025 162.236 195.025Z" fill="url(#paint8_radial)"/>
</g>
<mask id="mask8" style="mask-type:alpha" maskUnits="userSpaceOnUse" x="160" y="78" width="5" height="44">
<path fill-rule="evenodd" clip-rule="evenodd" d="M164.742 80.6611V118.828C164.742 121.102 163.625 121.41 162.377 121.373C161.13 121.336 160.02 119.991 160.02 118.689V80.6613C160.02 79.3584 161.077 78.4341 162.381 78.4341C163.685 78.4341 164.742 79.3581 164.742 80.6611Z" fill="white"/>
</mask>
<g mask="url(#mask8)">
<g filter="url(#filter16_d)">
<path fill-rule="evenodd" clip-rule="evenodd" d="M162.518 78.9961C163.821 78.9961 164.739 80.052 164.739 81.3551V118.4C164.739 120.674 163.605 121.24 162.513 120.945L162.244 120.85C161.014 120.417 160.434 119.008 160.434 117.706V81.3553C160.434 80.0523 161.213 78.9961 162.518 78.9961Z" fill="url(#paint9_linear)"/>
<path fill-rule="evenodd" clip-rule="evenodd" d="M162.518 78.9961C163.821 78.9961 164.739 80.052 164.739 81.3551V118.4C164.739 120.674 163.605 121.24 162.513 120.945L162.244 120.85C161.014 120.417 160.434 119.008 160.434 117.706V81.3553C160.434 80.0523 161.213 78.9961 162.518 78.9961Z" fill="url(#paint10_linear)"/>
</g>
<path fill-rule="evenodd" clip-rule="evenodd" d="M161.406 81.4942V117.567C161.406 118.943 162.129 119.722 162.799 120.049C163.47 120.377 163.951 120.205 164.193 120.02C164.527 119.764 164.739 119.195 164.739 118.261V81.494C164.739 80.3239 164.09 79.5513 163.073 79.5513C162.055 79.5513 161.406 80.3239 161.406 81.4942Z" fill="url(#paint11_linear)"/>
</g>
<mask id="mask9" style="mask-type:alpha" maskUnits="userSpaceOnUse" x="105" y="18" width="4" height="7">
<path d="M106.644 23.8943C107.068 24.0211 107.512 23.8413 107.883 23.4739C108.255 23.1057 108.563 22.541 108.725 21.8685C108.887 21.1959 108.873 20.5362 108.716 20.0122C108.561 19.4902 108.26 19.0902 107.837 18.964C107.412 18.8372 106.968 19.0169 106.597 19.3844C106.225 19.7526 105.917 20.3172 105.755 20.9897C105.594 21.6624 105.608 22.322 105.764 22.846C105.919 23.3681 106.221 23.7681 106.644 23.8943Z" fill="white" stroke="white" stroke-width="0.137172"/>
</mask>
<g mask="url(#mask9)">
<g filter="url(#filter17_d)">
<path fill-rule="evenodd" clip-rule="evenodd" d="M107.025 21.8871C106.972 21.0033 107.304 20.0815 107.767 19.8281C108.23 19.5747 108.649 20.0857 108.702 20.9694C108.755 21.8531 108.422 22.7749 107.959 23.0284C107.496 23.2818 107.078 22.7708 107.025 21.8871Z" fill="url(#paint12_linear)"/>
</g>
<mask id="mask10" style="mask-type:alpha" maskUnits="userSpaceOnUse" x="107" y="19" width="2" height="5">
<path fill-rule="evenodd" clip-rule="evenodd" d="M107.025 21.8871C106.972 21.0033 107.304 20.0815 107.767 19.8281C108.23 19.5747 108.649 20.0857 108.702 20.9694C108.755 21.8531 108.422 22.7749 107.959 23.0284C107.496 23.2818 107.078 22.7708 107.025 21.8871Z" fill="white"/>
</mask>
<g mask="url(#mask10)">
<g filter="url(#filter18_d)">
<path fill-rule="evenodd" clip-rule="evenodd" d="M107.176 21.8218C107.133 21.1038 107.403 20.3548 107.779 20.1489C108.156 19.9431 108.496 20.3582 108.539 21.0762C108.582 21.7943 108.312 22.5433 107.936 22.7491C107.559 22.955 107.219 22.5399 107.176 21.8218Z" fill="url(#paint13_linear)"/>
</g>
<path fill-rule="evenodd" clip-rule="evenodd" d="M107.386 21.7069C107.356 21.2098 107.543 20.6913 107.803 20.5487C108.064 20.4062 108.299 20.6936 108.329 21.1907C108.359 21.6878 108.172 22.2063 107.911 22.3489C107.651 22.4914 107.416 22.204 107.386 21.7069Z" fill="url(#paint14_radial)"/>
<g filter="url(#filter19_f)">
<path fill-rule="evenodd" clip-rule="evenodd" d="M107.181 21.2092C107.168 20.9883 107.251 20.7578 107.367 20.6945C107.482 20.6311 107.587 20.7589 107.6 20.9798C107.613 21.2007 107.53 21.4312 107.415 21.4945C107.299 21.5579 107.194 21.4301 107.181 21.2092Z" fill="#0D1343"/>
</g>
<path opacity="0.351795" fill-rule="evenodd" clip-rule="evenodd" d="M108.009 20.9939C107.999 20.8282 108.061 20.6554 108.148 20.6079C108.235 20.5604 108.313 20.6562 108.323 20.8219C108.333 20.9876 108.271 21.1604 108.184 21.2079C108.097 21.2554 108.019 21.1596 108.009 20.9939Z" fill="#8361FF"/>
<path opacity="0.28111" fill-rule="evenodd" clip-rule="evenodd" d="M107.412 21.9592C107.398 21.7383 107.481 21.5078 107.597 21.4445C107.713 21.3811 107.817 21.5089 107.831 21.7298C107.844 21.9507 107.761 22.1812 107.645 22.2445C107.529 22.3079 107.425 22.1801 107.412 21.9592Z" fill="#37759E"/>
<g opacity="0.773996" filter="url(#filter20_f)">
<path opacity="0.773996" fill-rule="evenodd" clip-rule="evenodd" d="M107.482 21.1267C107.469 20.9058 107.552 20.6753 107.667 20.6119C107.783 20.5486 107.888 20.6763 107.901 20.8973C107.914 21.1182 107.831 21.3487 107.715 21.412C107.6 21.4754 107.495 21.3476 107.482 21.1267Z" fill="#513CDA"/>
</g>
</g>
</g>
<mask id="mask11" style="mask-type:alpha" maskUnits="userSpaceOnUse" x="44" y="9" width="105" height="340">
<path fill-rule="evenodd" clip-rule="evenodd" d="M65.6325 29.7426C65.5559 29.0773 64.9069 28.6358 64.2597 28.8077L56.8196 30.7848C49.2898 32.7927 44.3281 38.7797 44.3281 49.347C44.3282 238.974 44.3283 333.798 44.3285 333.818C44.3787 341.21 47.8474 348.759 55.7939 348.709L135.156 348.074C142.468 348.015 148.366 341.793 148.366 331.428V23.6079C148.366 10.532 141.135 8.37477 135.805 9.79601L125.867 12.4369C124.705 12.7457 123.879 13.7751 123.83 14.9765L123.707 17.9862C123.523 22.5022 120.406 26.3663 116.032 27.5028L72.6925 38.7626C69.8748 39.4946 66.9972 37.8039 66.2651 34.9862C66.2199 34.8122 65.8446 31.5846 65.6325 29.7426Z" fill="white"/>
</mask>
<g mask="url(#mask11)">
<path fill-rule="evenodd" clip-rule="evenodd" d="M44.3281 34.1897L148.366 6.44629V347.968L44.3281 348.8V34.1897Z" fill="#B486FF"/>
</g>
<defs>
<filter id="filter0_f" x="0.337193" y="186.654" width="203.247" height="214.877" filterUnits="userSpaceOnUse" color-interpolation-filters="sRGB">
<feFlood flood-opacity="0" result="BackgroundImageFix"/>
<feBlend mode="normal" in="SourceGraphic" in2="BackgroundImageFix" result="shape"/>
<feGaussianBlur stdDeviation="22.0482" result="effect1_foregroundBlur"/>
</filter>
<filter id="filter1_f" x="44.745" y="-5.9635" width="125.682" height="369.053" filterUnits="userSpaceOnUse" color-interpolation-filters="sRGB">
<feFlood flood-opacity="0" result="BackgroundImageFix"/>
<feBlend mode="normal" in="SourceGraphic" in2="BackgroundImageFix" result="shape"/>
<feGaussianBlur stdDeviation="2.98297" result="effect1_foregroundBlur"/>
</filter>
<filter id="filter2_i" x="44.8516" y="342.704" width="118.621" height="16.0844" filterUnits="userSpaceOnUse" color-interpolation-filters="sRGB">
<feFlood flood-opacity="0" result="BackgroundImageFix"/>
<feBlend mode="normal" in="SourceGraphic" in2="BackgroundImageFix" result="shape"/>
<feColorMatrix in="SourceAlpha" type="matrix" values="0 0 0 0 0 0 0 0 0 0 0 0 0 0 0 0 0 0 127 0" result="hardAlpha"/>
<feOffset dy="-0.548686"/>
<feGaussianBlur stdDeviation="0.137172"/>
<feComposite in2="hardAlpha" operator="arithmetic" k2="-1" k3="1"/>
<feColorMatrix type="matrix" values="0 0 0 0 0 0 0 0 0 0 0 0 0 0 0 0 0 0 1 0"/>
<feBlend mode="normal" in2="shape" result="effect1_innerShadow"/>
</filter>
<filter id="filter3_f" x="116.284" y="311.169" width="66.9397" height="66.9395" filterUnits="userSpaceOnUse" color-interpolation-filters="sRGB">
<feFlood flood-opacity="0" result="BackgroundImageFix"/>
<feBlend mode="normal" in="SourceGraphic" in2="BackgroundImageFix" result="shape"/>
<feGaussianBlur stdDeviation="11.1861" result="effect1_foregroundBlur"/>
</filter>
<filter id="filter4_ddd" x="92.7882" y="357.819" width="13.7518" height="4.66905" filterUnits="userSpaceOnUse" color-interpolation-filters="sRGB">
<feFlood flood-opacity="0" result="BackgroundImageFix"/>
<feColorMatrix in="SourceAlpha" type="matrix" values="0 0 0 0 0 0 0 0 0 0 0 0 0 0 0 0 0 0 127 0" result="hardAlpha"/>
<feOffset/>
<feGaussianBlur stdDeviation="0.137172"/>
<feColorMatrix type="matrix" values="0 0 0 0 1 0 0 0 0 1 0 0 0 0 1 0 0 0 0.5 0"/>
<feBlend mode="normal" in2="BackgroundImageFix" result="effect1_dropShadow"/>
<feColorMatrix in="SourceAlpha" type="matrix" values="0 0 0 0 0 0 0 0 0 0 0 0 0 0 0 0 0 0 127 0" result="hardAlpha"/>
<feOffset/>
<feGaussianBlur stdDeviation="0.137172"/>
<feColorMatrix type="matrix" values="0 0 0 0 0 0 0 0 0 0 0 0 0 0 0 0 0 0 0.3 0"/>
<feBlend mode="normal" in2="effect1_dropShadow" result="effect2_dropShadow"/>
<feColorMatrix in="SourceAlpha" type="matrix" values="0 0 0 0 0 0 0 0 0 0 0 0 0 0 0 0 0 0 127 0" result="hardAlpha"/>
<feOffset/>
<feGaussianBlur stdDeviation="0.137172"/>
<feColorMatrix type="matrix" values="0 0 0 0 0 0 0 0 0 0 0 0 0 0 0 0 0 0 0.2 0"/>
<feBlend mode="normal" in2="effect2_dropShadow" result="effect3_dropShadow"/>
<feBlend mode="normal" in="SourceGraphic" in2="effect3_dropShadow" result="shape"/>
</filter>
<filter id="filter5_f" x="127.14" y="0.511599" width="35.2366" height="358.139" filterUnits="userSpaceOnUse" color-interpolation-filters="sRGB">
<feFlood flood-opacity="0" result="BackgroundImageFix"/>
<feBlend mode="normal" in="SourceGraphic" in2="BackgroundImageFix" result="shape"/>
<feGaussianBlur stdDeviation="2.98297" result="effect1_foregroundBlur"/>
</filter>
<filter id="filter6_f" x="116.561" y="-22.3068" width="66.9397" height="66.9392" filterUnits="userSpaceOnUse" color-interpolation-filters="sRGB">
<feFlood flood-opacity="0" result="BackgroundImageFix"/>
<feBlend mode="normal" in="SourceGraphic" in2="BackgroundImageFix" result="shape"/>
<feGaussianBlur stdDeviation="11.1861" result="effect1_foregroundBlur"/>
</filter>
<filter id="filter7_f" x="109.069" y="313.666" width="72.4866" height="72.4883" filterUnits="userSpaceOnUse" color-interpolation-filters="sRGB">
<feFlood flood-opacity="0" result="BackgroundImageFix"/>
<feBlend mode="normal" in="SourceGraphic" in2="BackgroundImageFix" result="shape"/>
<feGaussianBlur stdDeviation="11.1861" result="effect1_foregroundBlur"/>
</filter>
<filter id="filter8_f" x="127.747" y="-13.6178" width="34.8566" height="34.8569" filterUnits="userSpaceOnUse" color-interpolation-filters="sRGB">
<feFlood flood-opacity="0" result="BackgroundImageFix"/>
<feBlend mode="normal" in="SourceGraphic" in2="BackgroundImageFix" result="shape"/>
<feGaussianBlur stdDeviation="5.59306" result="effect1_foregroundBlur"/>
</filter>
<filter id="filter9_i" x="41.2773" y="2.66999" width="112.352" height="351.824" filterUnits="userSpaceOnUse" color-interpolation-filters="sRGB">
<feFlood flood-opacity="0" result="BackgroundImageFix"/>
<feBlend mode="normal" in="SourceGraphic" in2="BackgroundImageFix" result="shape"/>
<feColorMatrix in="SourceAlpha" type="matrix" values="0 0 0 0 0 0 0 0 0 0 0 0 0 0 0 0 0 0 127 0" result="hardAlpha"/>
<feOffset dy="-0.274343"/>
<feGaussianBlur stdDeviation="0.137172"/>
<feComposite in2="hardAlpha" operator="arithmetic" k2="-1" k3="1"/>
<feColorMatrix type="matrix" values="0 0 0 0 1 0 0 0 0 1 0 0 0 0 1 0 0 0 0.15 0"/>
<feBlend mode="normal" in2="shape" result="effect1_innerShadow"/>
</filter>
<filter id="filter10_i" x="41.003" y="2.08838" width="118.184" height="353.655" filterUnits="userSpaceOnUse" color-interpolation-filters="sRGB">
<feFlood flood-opacity="0" result="BackgroundImageFix"/>
<feBlend mode="normal" in="SourceGraphic" in2="BackgroundImageFix" result="shape"/>
<feColorMatrix in="SourceAlpha" type="matrix" values="0 0 0 0 0 0 0 0 0 0 0 0 0 0 0 0 0 0 127 0" result="hardAlpha"/>
<feOffset dx="-0.274343"/>
<feGaussianBlur stdDeviation="0.137172"/>
<feComposite in2="hardAlpha" operator="arithmetic" k2="-1" k3="1"/>
<feColorMatrix type="matrix" values="0 0 0 0 0 0 0 0 0 0 0 0 0 0 0 0 0 0 0.5 0"/>
<feBlend mode="normal" in2="shape" result="effect1_innerShadow"/>
</filter>
<filter id="filter11_f" x="114.065" y="-24.8034" width="64.1663" height="64.1648" filterUnits="userSpaceOnUse" color-interpolation-filters="sRGB">
<feFlood flood-opacity="0" result="BackgroundImageFix"/>
<feBlend mode="normal" in="SourceGraphic" in2="BackgroundImageFix" result="shape"/>
<feGaussianBlur stdDeviation="11.1861" result="effect1_foregroundBlur"/>
</filter>
<filter id="filter12_f" x="118.349" y="320.169" width="55.8769" height="55.875" filterUnits="userSpaceOnUse" color-interpolation-filters="sRGB">
<feFlood flood-opacity="0" result="BackgroundImageFix"/>
<feBlend mode="normal" in="SourceGraphic" in2="BackgroundImageFix" result="shape"/>
<feGaussianBlur stdDeviation="9.32177" result="effect1_foregroundBlur"/>
</filter>
<filter id="filter13_f" x="26.9172" y="4.01631" width="46.1969" height="46.1983" filterUnits="userSpaceOnUse" color-interpolation-filters="sRGB">
<feFlood flood-opacity="0" result="BackgroundImageFix"/>
<feBlend mode="normal" in="SourceGraphic" in2="BackgroundImageFix" result="shape"/>
<feGaussianBlur stdDeviation="7.45742" result="effect1_foregroundBlur"/>
</filter>
<filter id="filter14_f" x="24.6984" y="327.227" width="44.2555" height="44.2567" filterUnits="userSpaceOnUse" color-interpolation-filters="sRGB">
<feFlood flood-opacity="0" result="BackgroundImageFix"/>
<feBlend mode="normal" in="SourceGraphic" in2="BackgroundImageFix" result="shape"/>
<feGaussianBlur stdDeviation="7.45742" result="effect1_foregroundBlur"/>
</filter>
<filter id="filter15_d" x="157.265" y="187.694" width="10.3594" height="11.469" filterUnits="userSpaceOnUse" color-interpolation-filters="sRGB">
<feFlood flood-opacity="0" result="BackgroundImageFix"/>
<feColorMatrix in="SourceAlpha" type="matrix" values="0 0 0 0 0 0 0 0 0 0 0 0 0 0 0 0 0 0 127 0" result="hardAlpha"/>
<feOffset dx="-0.137172"/>
<feGaussianBlur stdDeviation="2"/>
<feColorMatrix type="matrix" values="0 0 0 0 1 0 0 0 0 1 0 0 0 0 1 0 0 0 0.1 0"/>
<feBlend mode="normal" in2="BackgroundImageFix" result="effect1_dropShadow"/>
<feBlend mode="normal" in="SourceGraphic" in2="effect1_dropShadow" result="shape"/>
</filter>
<filter id="filter16_d" x="156.434" y="74.9961" width="12.3047" height="50.021" filterUnits="userSpaceOnUse" color-interpolation-filters="sRGB">
<feFlood flood-opacity="0" result="BackgroundImageFix"/>
<feColorMatrix in="SourceAlpha" type="matrix" values="0 0 0 0 0 0 0 0 0 0 0 0 0 0 0 0 0 0 127 0" result="hardAlpha"/>
<feOffset/>
<feGaussianBlur stdDeviation="2"/>
<feColorMatrix type="matrix" values="0 0 0 0 0 0 0 0 0 0 0 0 0 0 0 0 0 0 0.5 0"/>
<feBlend mode="normal" in2="BackgroundImageFix" result="effect1_dropShadow"/>
<feBlend mode="normal" in="SourceGraphic" in2="effect1_dropShadow" result="shape"/>
</filter>
<filter id="filter17_d" x="106.471" y="19.2145" width="2.78487" height="4.42745" filterUnits="userSpaceOnUse" color-interpolation-filters="sRGB">
<feFlood flood-opacity="0" result="BackgroundImageFix"/>
<feColorMatrix in="SourceAlpha" type="matrix" values="0 0 0 0 0 0 0 0 0 0 0 0 0 0 0 0 0 0 127 0" result="hardAlpha"/>
<feOffset/>
<feGaussianBlur stdDeviation="0.274343"/>
<feColorMatrix type="matrix" values="0 0 0 0 0 0 0 0 0 0 0 0 0 0 0 0 0 0 0.5 0"/>
<feBlend mode="normal" in2="BackgroundImageFix" result="effect1_dropShadow"/>
<feBlend mode="normal" in="SourceGraphic" in2="effect1_dropShadow" result="shape"/>
</filter>
<filter id="filter18_d" x="103.172" y="16.0962" width="9.37109" height="10.7056" filterUnits="userSpaceOnUse" color-interpolation-filters="sRGB">
<feFlood flood-opacity="0" result="BackgroundImageFix"/>
<feColorMatrix in="SourceAlpha" type="matrix" values="0 0 0 0 0 0 0 0 0 0 0 0 0 0 0 0 0 0 127 0" result="hardAlpha"/>
<feOffset/>
<feGaussianBlur stdDeviation="2"/>
<feColorMatrix type="matrix" values="0 0 0 0 0.129412 0 0 0 0 0.45098 0 0 0 0 0.533333 0 0 0 0.27046 0"/>
<feBlend mode="normal" in2="BackgroundImageFix" result="effect1_dropShadow"/>
<feBlend mode="normal" in="SourceGraphic" in2="effect1_dropShadow" result="shape"/>
</filter>
<filter id="filter19_f" x="106.434" y="19.9325" width="1.91336" height="2.324" filterUnits="userSpaceOnUse" color-interpolation-filters="sRGB">
<feFlood flood-opacity="0" result="BackgroundImageFix"/>
<feBlend mode="normal" in="SourceGraphic" in2="BackgroundImageFix" result="shape"/>
<feGaussianBlur stdDeviation="0.372871" result="effect1_foregroundBlur"/>
</filter>
<filter id="filter20_f" x="106.735" y="19.85" width="1.91336" height="2.324" filterUnits="userSpaceOnUse" color-interpolation-filters="sRGB">
<feFlood flood-opacity="0" result="BackgroundImageFix"/>
<feBlend mode="normal" in="SourceGraphic" in2="BackgroundImageFix" result="shape"/>
<feGaussianBlur stdDeviation="0.372871" result="effect1_foregroundBlur"/>
</filter>
<linearGradient id="paint0_linear" x1="176.435" y1="237.756" x2="174.342" y2="360.11" gradientUnits="userSpaceOnUse">
<stop stop-opacity="0.01"/>
<stop offset="1" stop-opacity="0.432665"/>
</linearGradient>
<linearGradient id="paint1_linear" x1="91.9085" y1="362.216" x2="102.162" y2="365.036" gradientUnits="userSpaceOnUse">
<stop stop-color="#667871"/>
<stop offset="1" stop-color="#0F1515"/>
</linearGradient>
<linearGradient id="paint2_linear" x1="40.9995" y1="1.36269" x2="40.9995" y2="356.298" gradientUnits="userSpaceOnUse">
<stop stop-color="#3C3C3C"/>
<stop offset="0.968439" stop-color="#343434"/>
<stop offset="0.983847" stop-color="#181818"/>
<stop offset="1" stop-color="#161616"/>
</linearGradient>
<linearGradient id="paint3_linear" x1="40.531" y1="436.989" x2="101.36" y2="438.329" gradientUnits="userSpaceOnUse">
<stop stop-color="#414141"/>
<stop offset="1" stop-opacity="0.01"/>
</linearGradient>
<linearGradient id="paint4_linear" x1="165.847" y1="29.2516" x2="155.859" y2="29.2516" gradientUnits="userSpaceOnUse">
<stop stop-color="#1B2A27"/>
<stop offset="0.395535" stop-color="#03120F"/>
<stop offset="1" stop-color="#25342F"/>
</linearGradient>
<linearGradient id="paint5_linear" x1="165.843" y1="321.334" x2="155.855" y2="321.334" gradientUnits="userSpaceOnUse">
<stop stop-color="#1B2A27"/>
<stop offset="0.395535" stop-color="#03120F"/>
<stop offset="1" stop-color="#25342F"/>
</linearGradient>
<linearGradient id="paint6_linear" x1="164.459" y1="156.261" x2="160.575" y2="156.261" gradientUnits="userSpaceOnUse">
<stop stop-color="#193830"/>
<stop offset="0.485421" stop-color="#294841"/>
<stop offset="0.512207" stop-color="#5B7974"/>
<stop offset="1" stop-color="#66847F"/>
</linearGradient>
<linearGradient id="paint7_linear" x1="161.425" y1="190.476" x2="159.552" y2="193.962" gradientUnits="userSpaceOnUse">
<stop stop-color="#1E2624"/>
<stop offset="0.120572" stop-color="#2B3331"/>
<stop offset="0.32438" stop-color="#92A9A4"/>
<stop offset="0.463455" stop-color="#D1ECE3"/>
<stop offset="0.647782" stop-color="#ADC6BC"/>
<stop offset="0.842053" stop-color="#5A615F"/>
<stop offset="1" stop-color="#1E2623"/>
</linearGradient>
<radialGradient id="paint8_radial" cx="0" cy="0" r="1" gradientUnits="userSpaceOnUse" gradientTransform="translate(162.605 193.968) rotate(117.869) scale(1.54678 1.04824)">
<stop stop-color="#212222"/>
<stop offset="1"/>
</radialGradient>
<linearGradient id="paint9_linear" x1="162.423" y1="68.4908" x2="160.221" y2="68.5252" gradientUnits="userSpaceOnUse">
<stop stop-opacity="0.865942"/>
<stop offset="1" stop-color="#A1B2AC"/>
</linearGradient>
<linearGradient id="paint10_linear" x1="163.414" y1="107.568" x2="160.49" y2="107.556" gradientUnits="userSpaceOnUse">
<stop stop-color="white" stop-opacity="0.01"/>
<stop offset="0.175988" stop-color="white" stop-opacity="0.01"/>
<stop offset="0.203259"/>
<stop offset="0.525077" stop-opacity="0.0464564"/>
<stop offset="0.872818" stop-opacity="0.01"/>
<stop offset="1" stop-opacity="0.01"/>
</linearGradient>
<linearGradient id="paint11_linear" x1="161.42" y1="120.15" x2="164.739" y2="120.15" gradientUnits="userSpaceOnUse">
<stop stop-color="#03120D"/>
<stop offset="0.570731" stop-color="#01100B"/>
<stop offset="0.578544" stop-color="#82958F"/>
<stop offset="1" stop-color="#495C56"/>
</linearGradient>
<linearGradient id="paint12_linear" x1="106.973" y1="20.2132" x2="108.432" y2="22.81" gradientUnits="userSpaceOnUse">
<stop stop-color="#003472"/>
<stop offset="0.605134" stop-color="#00050B" stop-opacity="0.0965401"/>
<stop offset="1" stop-color="#305379"/>
</linearGradient>
<linearGradient id="paint13_linear" x1="107.089" y1="20.506" x2="108.365" y2="22.5318" gradientUnits="userSpaceOnUse">
<stop stop-color="#217388"/>
<stop offset="0.186067" stop-color="#1D4455"/>
<stop offset="0.581198" stop-opacity="0.01"/>
<stop offset="1" stop-color="#6299E0"/>
</linearGradient>
<radialGradient id="paint14_radial" cx="0" cy="0" r="1" gradientUnits="userSpaceOnUse" gradientTransform="translate(107.857 21.4488) rotate(81.2328) scale(0.947655 2.40861)">
<stop/>
<stop offset="1" stop-color="#003B81"/>
</radialGradient>
</defs>
</svg>
