<svg width="1440" height="210" viewBox="0 0 1440 210" fill="none" xmlns="http://www.w3.org/2000/svg">
<path fill-rule="evenodd" clip-rule="evenodd" d="M1440 129.31L1392 142.758C1344 156.207 1248 183.103 1152 160.69C1056 138.276 960 66.5514 864 30.6892C768 -5.17293 672 -5.17293 576 8.27538C480 21.7237 384 48.6203 288 53.1031C192 57.5858 96 39.6548 48 30.6892L0 21.7237V210H48C96 210 192 210 288 210C384 210 480 210 576 210C672 210 768 210 864 210C960 210 1056 210 1152 210C1248 210 1344 210 1392 210H1440V129.31Z" fill="url(#paint0_linear)"/>
<defs>
<linearGradient id="paint0_linear" x1="720" y1="210" x2="720" y2="0" gradientUnits="userSpaceOnUse">
<stop stop-opacity="0"/>
<stop offset="1" stop-color="#FFB03A"/>
</linearGradient>
</defs>
</svg>
