<svg width="442" height="399" viewBox="0 0 442 399" fill="none" xmlns="http://www.w3.org/2000/svg">
<path d="M78.2598 178.193H86.0752V169.931H83.47L86.0752 160.255H82.3536L78.2598 169.931V178.193ZM67.2438 178.193H75.0592V169.931H72.4541L75.0592 160.255H71.3376L67.2438 169.931V178.193ZM99.9707 215.558C103.295 215.558 105.739 214.615 107.302 212.729C108.865 210.844 109.647 207.891 109.647 203.872V199.927H102.129V205.584C102.129 206.799 101.968 207.655 101.645 208.152C101.323 208.623 100.765 208.859 99.9707 208.859C99.2016 208.859 98.6558 208.623 98.3332 208.152C98.0355 207.655 97.8866 206.799 97.8866 205.584V183.626C97.8866 182.41 98.0355 181.567 98.3332 181.096C98.6558 180.599 99.2016 180.351 99.9707 180.351C100.765 180.351 101.323 180.599 101.645 181.096C101.968 181.567 102.129 182.41 102.129 183.626V188.539H109.647V185.338C109.647 181.319 108.865 178.366 107.302 176.481C105.739 174.595 103.295 173.652 99.9707 173.652C96.6461 173.652 94.2146 174.62 92.6764 176.555C91.1381 178.466 90.369 181.517 90.369 185.71V203.5C90.369 207.693 91.1381 210.757 92.6764 212.692C94.2146 214.602 96.6461 215.558 99.9707 215.558ZM123.374 215.558C126.252 215.558 128.585 214.59 130.371 212.655C132.157 210.72 133.051 208.189 133.051 205.063V184.147C133.051 181.046 132.157 178.528 130.371 176.592C128.585 174.632 126.252 173.652 123.374 173.652C120.496 173.652 118.177 174.632 116.415 176.592C114.653 178.552 113.773 181.145 113.773 184.371V204.839C113.773 208.065 114.653 210.657 116.415 212.618C118.177 214.578 120.496 215.558 123.374 215.558ZM123.374 208.933C121.687 208.933 120.844 207.569 120.844 204.839V184.371C120.844 181.592 121.687 180.202 123.374 180.202C125.111 180.202 125.98 181.592 125.98 184.371V204.839C125.98 207.569 125.111 208.933 123.374 208.933ZM143.865 215.558C145.552 215.558 147.537 214.466 149.819 212.283V214.962H157.337V160.255H149.819V176.927C148.455 175.712 147.326 174.868 146.433 174.397C145.54 173.9 144.684 173.652 143.865 173.652C142.227 173.652 140.85 174.421 139.734 175.96C138.617 177.473 138.059 179.359 138.059 181.617V207.593C138.059 209.802 138.617 211.687 139.734 213.25C140.875 214.788 142.252 215.558 143.865 215.558ZM147.586 208.487C147.016 208.487 146.532 208.251 146.135 207.779C145.763 207.308 145.577 206.725 145.577 206.03V183.18C145.577 182.485 145.775 181.902 146.172 181.43C146.569 180.959 147.041 180.723 147.586 180.723C148.157 180.723 148.666 180.971 149.112 181.468C149.584 181.964 149.819 182.535 149.819 183.18V206.03C149.819 206.675 149.596 207.246 149.149 207.742C148.703 208.238 148.182 208.487 147.586 208.487ZM172.369 215.558C175.371 215.558 177.741 214.59 179.478 212.655C181.239 210.695 182.12 208.04 182.12 204.691V200.373H175.123V204.839C175.123 206.105 174.888 207.11 174.416 207.854C173.945 208.573 173.287 208.933 172.444 208.933C171.6 208.933 170.93 208.573 170.434 207.854C169.938 207.11 169.69 206.105 169.69 204.839V195.982H182.12V184.519C182.12 181.195 181.239 178.552 179.478 176.592C177.741 174.632 175.396 173.652 172.444 173.652C169.442 173.652 167.06 174.67 165.298 176.704C163.562 178.714 162.693 181.455 162.693 184.929V204.281C162.693 207.804 163.549 210.571 165.261 212.58C166.998 214.565 169.367 215.558 172.369 215.558ZM169.69 190.102V184.371C169.69 181.592 170.608 180.202 172.444 180.202C174.23 180.202 175.123 181.592 175.123 184.371V190.102H169.69ZM198.76 167.772H206.278V160.255H198.76V167.772ZM198.76 214.962H206.278V174.248H198.76V214.962ZM221.669 215.558C224.597 215.558 226.929 214.54 228.666 212.506C230.402 210.471 231.271 207.767 231.271 204.393C231.271 202.333 230.762 200.398 229.745 198.587C228.728 196.751 226.929 194.543 224.349 191.963C222.537 190.275 221.26 188.861 220.515 187.72C219.796 186.554 219.436 185.4 219.436 184.259C219.436 181.356 220.205 179.905 221.744 179.905C222.612 179.905 223.232 180.277 223.604 181.021C224.001 181.741 224.2 182.956 224.2 184.668H231.196C231.196 180.823 230.427 178.019 228.889 176.257C227.351 174.471 224.919 173.603 221.595 173.652C218.717 173.702 216.471 174.694 214.859 176.63C213.246 178.565 212.439 181.244 212.439 184.668C212.439 186.132 212.65 187.484 213.072 188.725C213.494 189.941 214.226 191.206 215.268 192.521C216.31 193.836 217.749 195.386 219.585 197.173C221.421 199.009 222.662 200.46 223.307 201.527C223.952 202.594 224.274 203.723 224.274 204.914C224.274 207.841 223.406 209.305 221.669 209.305C220.577 209.305 219.721 208.772 219.101 207.705C218.481 206.613 218.171 205.087 218.171 203.127H211.174C211.174 207.072 212.092 210.136 213.928 212.32C215.764 214.478 218.344 215.558 221.669 215.558ZM248.551 228.955H256.069V212.283C257.409 213.474 258.525 214.317 259.418 214.813C260.336 215.31 261.205 215.558 262.024 215.558C263.686 215.558 265.063 214.801 266.155 213.287C267.271 211.749 267.829 209.851 267.829 207.593V181.617C267.829 179.334 267.283 177.436 266.192 175.922C265.1 174.409 263.711 173.652 262.024 173.652C260.361 173.652 258.376 174.744 256.069 176.927V174.248H248.551V228.955ZM258.302 208.487C257.756 208.487 257.247 208.226 256.776 207.705C256.305 207.184 256.069 206.626 256.069 206.03V183.18C256.069 182.51 256.292 181.939 256.739 181.468C257.185 180.971 257.706 180.723 258.302 180.723C258.873 180.723 259.344 180.959 259.716 181.43C260.113 181.902 260.312 182.485 260.312 183.18V206.03C260.312 206.725 260.113 207.308 259.716 207.779C259.344 208.251 258.873 208.487 258.302 208.487ZM282.415 215.558C285.293 215.558 287.625 214.59 289.412 212.655C291.198 210.72 292.091 208.189 292.091 205.063V184.147C292.091 181.046 291.198 178.528 289.412 176.592C287.625 174.632 285.293 173.652 282.415 173.652C279.537 173.652 277.217 174.632 275.456 176.592C273.694 178.552 272.813 181.145 272.813 184.371V204.839C272.813 208.065 273.694 210.657 275.456 212.618C277.217 214.578 279.537 215.558 282.415 215.558ZM282.415 208.933C280.728 208.933 279.884 207.569 279.884 204.839V184.371C279.884 181.592 280.728 180.202 282.415 180.202C284.152 180.202 285.02 181.592 285.02 184.371V204.839C285.02 207.569 284.152 208.933 282.415 208.933ZM306.478 215.558C309.48 215.558 311.85 214.59 313.586 212.655C315.348 210.695 316.229 208.04 316.229 204.691V200.373H309.232V204.839C309.232 206.105 308.996 207.11 308.525 207.854C308.054 208.573 307.396 208.933 306.553 208.933C305.709 208.933 305.039 208.573 304.543 207.854C304.047 207.11 303.799 206.105 303.799 204.839V195.982H316.229V184.519C316.229 181.195 315.348 178.552 313.586 176.592C311.85 174.632 309.505 173.652 306.553 173.652C303.55 173.652 301.169 174.67 299.407 176.704C297.67 178.714 296.802 181.455 296.802 184.929V204.281C296.802 207.804 297.658 210.571 299.37 212.58C301.107 214.565 303.476 215.558 306.478 215.558ZM303.799 190.102V184.371C303.799 181.592 304.717 180.202 306.553 180.202C308.339 180.202 309.232 181.592 309.232 184.371V190.102H303.799ZM331.218 215.558C332.533 215.558 333.873 215.384 335.237 215.037V207.668C333.947 207.866 333.029 207.966 332.483 207.966C330.896 207.966 330.102 205.733 330.102 201.267V181.021H335.237V174.248H330.102V164.199H322.584V174.248H318.788V181.021H322.584V201.862C322.584 206.651 323.266 210.136 324.631 212.32C325.995 214.478 328.191 215.558 331.218 215.558ZM339.266 214.962H346.783V186.678C346.783 185.437 347.143 184.395 347.862 183.552C348.582 182.683 349.512 182.1 350.654 181.803C351.795 181.48 353.011 181.542 354.301 181.989V173.652C352.49 173.652 350.827 174.173 349.314 175.215C347.825 176.233 346.982 177.424 346.783 178.788V174.248H339.266V214.962ZM360.288 229.551C363.315 229.551 365.808 228.509 367.768 226.425C369.728 224.365 371.006 221.562 371.602 218.014L378.822 174.248H371.453L368.475 199.257L368.327 201.341H368.029L367.88 199.257L364.903 174.248H357.534L364.456 216.153C364.804 218.163 364.382 219.763 363.191 220.954C362.025 222.145 360.573 222.74 358.837 222.74C358.316 222.74 357.981 222.728 357.832 222.703V229.402C359.023 229.501 359.841 229.551 360.288 229.551ZM393.215 178.193H396.937L401.031 168.516V160.255H393.215V168.516H395.821L393.215 178.193ZM382.2 178.193H385.921L390.015 168.516V160.255H382.2V168.516H384.805L382.2 178.193Z" fill="white"/>
<path d="M194.166 147.97L119.128 18L15 198.355H59.5821" stroke="#D31470" stroke-width="17.1767"/>
<path d="M393.955 200.645L427.086 200.645L322.958 381L245.606 247.022" stroke="#D31470" stroke-width="17.1767"/>
</svg>
