<svg width="541" height="329" viewBox="0 0 541 329" fill="none" xmlns="http://www.w3.org/2000/svg">
<path d="M224.31 79.89H231.135V72.675H228.86L231.135 64.225H227.885L224.31 72.675V79.89ZM214.69 79.89H221.515V72.675H219.24L221.515 64.225H218.265L214.69 72.675V79.89ZM235.405 112H240.93C243.898 112 246.303 111.729 248.145 111.187C249.986 110.624 251.395 109.573 252.37 108.035C253.345 106.497 254.006 104.287 254.352 101.405C254.721 98.5017 254.905 94.7208 254.905 90.0625V85.9025C254.905 81.3092 254.721 77.5933 254.352 74.755C254.006 71.895 253.334 69.7067 252.337 68.19C251.362 66.6517 249.954 65.6117 248.112 65.07C246.292 64.5067 243.898 64.225 240.93 64.225H235.405V112ZM242.425 104.98V71.245C243.616 71.245 244.559 71.3858 245.252 71.6675C245.967 71.9492 246.487 72.5667 246.812 73.52C247.159 74.4733 247.376 75.9358 247.462 77.9075C247.571 79.8575 247.625 82.5225 247.625 85.9025V89.9325C247.625 93.4642 247.581 96.2483 247.495 98.285C247.408 100.3 247.191 101.784 246.845 102.737C246.52 103.691 246 104.308 245.285 104.59C244.591 104.85 243.638 104.98 242.425 104.98ZM267.389 112.52C269.903 112.52 271.939 111.675 273.499 109.985C275.059 108.295 275.839 106.085 275.839 103.355V85.09C275.839 82.3817 275.059 80.1825 273.499 78.4925C271.939 76.7808 269.903 75.925 267.389 75.925C264.876 75.925 262.85 76.7808 261.312 78.4925C259.773 80.2042 259.004 82.4683 259.004 85.285V103.16C259.004 105.977 259.773 108.241 261.312 109.952C262.85 111.664 264.876 112.52 267.389 112.52ZM267.389 106.735C265.916 106.735 265.179 105.543 265.179 103.16V85.285C265.179 82.8583 265.916 81.645 267.389 81.645C268.906 81.645 269.664 82.8583 269.664 85.285V103.16C269.664 105.543 268.906 106.735 267.389 106.735ZM295.117 112H300.577L303.827 89.38L304.217 86.585H304.477L304.867 89.38L308.117 112H313.577L320.012 64.225H313.512L310.717 89.055L310.587 90.615H310.067L309.872 89.055L306.882 64.225H301.812L298.822 89.055L298.627 90.615H298.107L297.977 89.055L295.182 64.225H288.682L295.117 112ZM323.383 112H329.948V83.985C330.36 83.3567 330.717 82.9233 331.021 82.685C331.346 82.425 331.703 82.295 332.093 82.295C333.133 82.295 333.653 82.815 333.653 83.855V112H340.218V82.88C340.218 80.9083 339.742 79.2617 338.788 77.94C337.857 76.5967 336.687 75.925 335.278 75.925C333.87 75.925 332.093 77.1167 329.948 79.5V64.225H323.383V112ZM349.257 112.52C350.297 112.52 351.272 112.217 352.182 111.61C353.092 110.982 353.828 110.158 354.392 109.14H354.847C354.847 110.592 355.042 111.545 355.432 112H361.867C361.693 110.678 361.574 109.573 361.509 108.685C361.444 107.797 361.412 106.843 361.412 105.825V83.985C361.412 82.4683 361.054 81.1033 360.339 79.89C359.624 78.6767 358.66 77.7125 357.447 76.9975C356.255 76.2825 354.912 75.925 353.417 75.925C351.792 75.925 350.308 76.3475 348.964 77.1925C347.621 78.0375 346.548 79.1858 345.747 80.6375C344.967 82.0675 344.577 83.66 344.577 85.415V86.91H351.142C351.142 84.895 351.261 83.5192 351.499 82.7825C351.738 82.0242 352.225 81.645 352.962 81.645C353.915 81.645 354.468 82.035 354.619 82.815C354.771 83.595 354.847 84.2883 354.847 84.895V88.015C354.847 88.4483 354.793 88.7842 354.684 89.0225C354.598 89.2392 354.316 89.4883 353.839 89.77C353.384 90.0517 352.583 90.4958 351.434 91.1025C348.769 92.4892 346.841 94.2117 345.649 96.27C344.458 98.3067 343.862 100.744 343.862 103.582C343.862 106.226 344.328 108.382 345.259 110.05C346.213 111.697 347.545 112.52 349.257 112.52ZM352.182 106.085C350.925 106.085 350.297 105.034 350.297 102.932C350.297 101.069 350.687 99.4333 351.467 98.025C352.268 96.6167 353.395 95.5767 354.847 94.905V103.94C354.847 104.482 354.576 104.98 354.034 105.435C353.493 105.868 352.875 106.085 352.182 106.085ZM374.373 112.52C375.521 112.52 376.691 112.368 377.883 112.065V105.63C376.756 105.803 375.955 105.89 375.478 105.89C374.091 105.89 373.398 103.94 373.398 100.04V82.36H377.883V76.445H373.398V67.67H366.833V76.445H363.518V82.36H366.833V100.56C366.833 104.742 367.429 107.786 368.621 109.692C369.812 111.577 371.73 112.52 374.373 112.52ZM396.435 112H403.455V91.655L410.605 64.225H403.715L400.205 79.5L400.01 79.955H399.88L399.685 79.5L396.175 64.225H389.285L396.435 91.655V112ZM418.844 112.52C421.358 112.52 423.394 111.675 424.954 109.985C426.514 108.295 427.294 106.085 427.294 103.355V85.09C427.294 82.3817 426.514 80.1825 424.954 78.4925C423.394 76.7808 421.358 75.925 418.844 75.925C416.331 75.925 414.305 76.7808 412.767 78.4925C411.229 80.2042 410.459 82.4683 410.459 85.285V103.16C410.459 105.977 411.229 108.241 412.767 109.952C414.305 111.664 416.331 112.52 418.844 112.52ZM418.844 106.735C417.371 106.735 416.634 105.543 416.634 103.16V85.285C416.634 82.8583 417.371 81.645 418.844 81.645C420.361 81.645 421.119 82.8583 421.119 85.285V103.16C421.119 105.543 420.361 106.735 418.844 106.735ZM436.738 112.52C438.081 112.52 439.858 111.35 442.068 109.01V112H448.633V76.445H442.068V103.81C442.068 104.417 441.851 104.958 441.418 105.435C440.985 105.912 440.486 106.15 439.923 106.15C438.883 106.15 438.363 105.63 438.363 104.59V76.445H431.798V105.565C431.798 107.515 432.275 109.162 433.228 110.505C434.181 111.848 435.351 112.52 436.738 112.52ZM463.857 112H480.172V105.5H470.877V64.225H463.857V112ZM490.827 112.52C493.34 112.52 495.377 111.675 496.937 109.985C498.497 108.295 499.277 106.085 499.277 103.355V85.09C499.277 82.3817 498.497 80.1825 496.937 78.4925C495.377 76.7808 493.34 75.925 490.827 75.925C488.313 75.925 486.288 76.7808 484.749 78.4925C483.211 80.2042 482.442 82.4683 482.442 85.285V103.16C482.442 105.977 483.211 108.241 484.749 109.952C486.288 111.664 488.313 112.52 490.827 112.52ZM490.827 106.735C489.353 106.735 488.617 105.543 488.617 103.16V85.285C488.617 82.8583 489.353 81.645 490.827 81.645C492.343 81.645 493.102 82.8583 493.102 85.285V103.16C493.102 105.543 492.343 106.735 490.827 106.735ZM507.298 112H513.798L519.583 76.445H513.213L511.068 97.05L510.808 99.325H510.288L510.028 97.05L507.883 76.445H501.513L507.298 112ZM530.439 112.52C533.061 112.52 535.13 111.675 536.647 109.985C538.185 108.273 538.954 105.955 538.954 103.03V99.26H532.844V103.16C532.844 104.265 532.638 105.142 532.227 105.792C531.815 106.421 531.241 106.735 530.504 106.735C529.768 106.735 529.183 106.421 528.749 105.792C528.316 105.142 528.099 104.265 528.099 103.16V95.425H538.954V85.415C538.954 82.5117 538.185 80.2042 536.647 78.4925C535.13 76.7808 533.083 75.925 530.504 75.925C527.883 75.925 525.803 76.8133 524.264 78.59C522.748 80.345 521.989 82.7392 521.989 85.7725V102.672C521.989 105.749 522.737 108.165 524.232 109.92C525.748 111.653 527.818 112.52 530.439 112.52ZM528.099 90.29V85.285C528.099 82.8583 528.901 81.645 530.504 81.645C532.064 81.645 532.844 82.8583 532.844 85.285V90.29H528.099Z" fill="white"/>
<path d="M2.6 179H18.915V172.5H9.62V131.225H2.6V179ZM29.5699 179.52C32.0833 179.52 34.1199 178.675 35.6799 176.985C37.2399 175.295 38.0199 173.085 38.0199 170.355V152.09C38.0199 149.382 37.2399 147.182 35.6799 145.492C34.1199 143.781 32.0833 142.925 29.5699 142.925C27.0566 142.925 25.0308 143.781 23.4924 145.492C21.9541 147.204 21.1849 149.468 21.1849 152.285V170.16C21.1849 172.977 21.9541 175.241 23.4924 176.952C25.0308 178.664 27.0566 179.52 29.5699 179.52ZM29.5699 173.735C28.0966 173.735 27.3599 172.543 27.3599 170.16V152.285C27.3599 149.858 28.0966 148.645 29.5699 148.645C31.0866 148.645 31.8449 149.858 31.8449 152.285V170.16C31.8449 172.543 31.0866 173.735 29.5699 173.735ZM46.0413 179H52.5413L58.3263 143.445H51.9563L49.8113 164.05L49.5513 166.325H49.0313L48.7713 164.05L46.6263 143.445H40.2563L46.0413 179ZM69.1823 179.52C71.804 179.52 73.8732 178.675 75.3898 176.985C76.9282 175.273 77.6973 172.955 77.6973 170.03V166.26H71.5873V170.16C71.5873 171.265 71.3815 172.142 70.9698 172.792C70.5582 173.421 69.984 173.735 69.2473 173.735C68.5107 173.735 67.9257 173.421 67.4923 172.792C67.059 172.142 66.8423 171.265 66.8423 170.16V162.425H77.6973V152.415C77.6973 149.512 76.9282 147.204 75.3898 145.492C73.8732 143.781 71.8257 142.925 69.2473 142.925C66.6257 142.925 64.5457 143.813 63.0073 145.59C61.4907 147.345 60.7323 149.739 60.7323 152.772V169.672C60.7323 172.749 61.4798 175.165 62.9748 176.92C64.4915 178.653 66.5607 179.52 69.1823 179.52ZM66.8423 157.29V152.285C66.8423 149.858 67.644 148.645 69.2473 148.645C70.8073 148.645 71.5873 149.858 71.5873 152.285V157.29H66.8423ZM95.4139 179H100.874L103.409 162.035L103.734 160.02H103.994L104.319 162.035L106.854 179H112.314L117.579 143.445H111.599L109.519 162.035L109.259 164.05H108.869L108.544 162.035L105.814 143.445H101.914L99.1839 162.035L98.8589 164.05H98.4689L98.2089 162.035L96.1289 143.445H90.1489L95.4139 179ZM120.73 179H127.295V150.985C127.707 150.357 128.064 149.923 128.367 149.685C128.692 149.425 129.05 149.295 129.44 149.295C130.48 149.295 131 149.815 131 150.855V179H137.565V149.88C137.565 147.908 137.088 146.262 136.135 144.94C135.203 143.597 134.033 142.925 132.625 142.925C131.217 142.925 129.44 144.117 127.295 146.5V131.225H120.73V179ZM146.603 179.52C147.643 179.52 148.618 179.217 149.528 178.61C150.438 177.982 151.175 177.158 151.738 176.14H152.193C152.193 177.592 152.388 178.545 152.778 179H159.213C159.04 177.678 158.921 176.573 158.856 175.685C158.791 174.797 158.758 173.843 158.758 172.825V150.985C158.758 149.468 158.401 148.103 157.686 146.89C156.971 145.677 156.007 144.712 154.793 143.997C153.602 143.282 152.258 142.925 150.763 142.925C149.138 142.925 147.654 143.347 146.311 144.192C144.968 145.037 143.895 146.186 143.093 147.637C142.313 149.067 141.923 150.66 141.923 152.415V153.91H148.488C148.488 151.895 148.608 150.519 148.846 149.782C149.084 149.024 149.572 148.645 150.308 148.645C151.262 148.645 151.814 149.035 151.966 149.815C152.118 150.595 152.193 151.288 152.193 151.895V155.015C152.193 155.448 152.139 155.784 152.031 156.022C151.944 156.239 151.663 156.488 151.186 156.77C150.731 157.052 149.929 157.496 148.781 158.102C146.116 159.489 144.188 161.212 142.996 163.27C141.804 165.307 141.208 167.744 141.208 170.582C141.208 173.226 141.674 175.382 142.606 177.05C143.559 178.697 144.892 179.52 146.603 179.52ZM149.528 173.085C148.272 173.085 147.643 172.034 147.643 169.932C147.643 168.069 148.033 166.433 148.813 165.025C149.615 163.617 150.742 162.577 152.193 161.905V170.94C152.193 171.482 151.923 171.98 151.381 172.435C150.839 172.868 150.222 173.085 149.528 173.085ZM171.72 179.52C172.868 179.52 174.038 179.368 175.23 179.065V172.63C174.103 172.803 173.302 172.89 172.825 172.89C171.438 172.89 170.745 170.94 170.745 167.04V149.36H175.23V143.445H170.745V134.67H164.18V143.445H160.865V149.36H164.18V167.56C164.18 171.742 164.776 174.786 165.967 176.692C167.159 178.577 169.077 179.52 171.72 179.52ZM189.362 191.74C192.005 191.74 194.183 190.83 195.894 189.01C197.606 187.212 198.722 184.763 199.242 181.665L205.547 143.445H199.112L196.512 165.285L196.382 167.105H196.122L195.992 165.285L193.392 143.445H186.957L193.002 180.04C193.305 181.795 192.937 183.193 191.897 184.233C190.878 185.273 189.611 185.793 188.094 185.793C187.639 185.793 187.347 185.782 187.217 185.76V191.61C188.257 191.697 188.972 191.74 189.362 191.74ZM216.254 179.52C218.768 179.52 220.804 178.675 222.364 176.985C223.924 175.295 224.704 173.085 224.704 170.355V152.09C224.704 149.382 223.924 147.182 222.364 145.492C220.804 143.781 218.768 142.925 216.254 142.925C213.741 142.925 211.715 143.781 210.177 145.492C208.639 147.204 207.869 149.468 207.869 152.285V170.16C207.869 172.977 208.639 175.241 210.177 176.952C211.715 178.664 213.741 179.52 216.254 179.52ZM216.254 173.735C214.781 173.735 214.044 172.543 214.044 170.16V152.285C214.044 149.858 214.781 148.645 216.254 148.645C217.771 148.645 218.529 149.858 218.529 152.285V170.16C218.529 172.543 217.771 173.735 216.254 173.735ZM234.148 179.52C235.492 179.52 237.268 178.35 239.478 176.01V179H246.043V143.445H239.478V170.81C239.478 171.417 239.262 171.958 238.828 172.435C238.395 172.912 237.897 173.15 237.333 173.15C236.293 173.15 235.773 172.63 235.773 171.59V143.445H229.208V172.565C229.208 174.515 229.685 176.162 230.638 177.505C231.592 178.848 232.762 179.52 234.148 179.52ZM266.077 179.52C267.55 179.52 269.284 178.567 271.277 176.66V179H277.842V131.225H271.277V145.785C270.085 144.723 269.099 143.987 268.319 143.575C267.539 143.142 266.792 142.925 266.077 142.925C264.647 142.925 263.444 143.597 262.469 144.94C261.494 146.262 261.007 147.908 261.007 149.88V172.565C261.007 174.493 261.494 176.14 262.469 177.505C263.466 178.848 264.669 179.52 266.077 179.52ZM269.327 173.345C268.829 173.345 268.406 173.139 268.059 172.727C267.734 172.316 267.572 171.807 267.572 171.2V151.245C267.572 150.638 267.745 150.129 268.092 149.717C268.439 149.306 268.85 149.1 269.327 149.1C269.825 149.1 270.269 149.317 270.659 149.75C271.071 150.183 271.277 150.682 271.277 151.245V171.2C271.277 171.763 271.082 172.262 270.692 172.695C270.302 173.128 269.847 173.345 269.327 173.345ZM290.839 179.52C293.353 179.52 295.389 178.675 296.949 176.985C298.509 175.295 299.289 173.085 299.289 170.355V152.09C299.289 149.382 298.509 147.182 296.949 145.492C295.389 143.781 293.353 142.925 290.839 142.925C288.326 142.925 286.3 143.781 284.762 145.492C283.224 147.204 282.454 149.468 282.454 152.285V170.16C282.454 172.977 283.224 175.241 284.762 176.952C286.3 178.664 288.326 179.52 290.839 179.52ZM290.839 173.735C289.366 173.735 288.629 172.543 288.629 170.16V152.285C288.629 149.858 289.366 148.645 290.839 148.645C292.356 148.645 293.114 149.858 293.114 152.285V170.16C293.114 172.543 292.356 173.735 290.839 173.735ZM312.633 146.89H315.883L319.458 138.44V131.225H312.633V138.44H314.908L312.633 146.89ZM303.013 146.89H306.263L309.838 138.44V131.225H303.013V138.44H305.288L303.013 146.89Z" fill="white"/>
<path d="M442.885 58.5L474.789 9L84.2116 9L155.753 120M206.67 199L279.5 312L397.125 129.5" stroke="#0D8B93" stroke-width="18"/>
</svg>
