<svg viewBox="0 0 211 211" fill="none" xmlns="http://www.w3.org/2000/svg">
<path d="M131.049 2.75992L30.0654 30.7718M131.049 2.75992L207.74 76.9963M131.049 2.75992L126.902 34.803M131.049 2.75992L147.854 45.0939M131.049 2.75992L51.7433 64.0565M30.0654 30.7718L3.29579 133.545M30.0654 30.7718L51.7433 64.0565M30.0654 30.7718L126.902 34.803M30.0654 30.7718L46.3226 117.613M3.29579 133.545L78.0064 208.301M3.29579 133.545L51.7433 64.0565M3.29579 133.545L83.146 176.248M3.29579 133.545L46.3226 117.613M78.0064 208.301L46.3226 117.613M78.0064 208.301L80.0583 207.752M78.0064 208.301L83.146 176.248M180.981 180.769L207.74 76.9963M180.981 180.769L158.295 145.994M180.981 180.769L171.03 128.866M180.981 180.769L83.146 176.248M180.981 180.769L80.0583 207.752M207.74 76.9963L163.219 92.4425M207.74 76.9963L147.854 45.0939M207.74 76.9963L171.03 128.866M126.902 34.803L158.295 145.994M126.902 34.803L147.854 45.0939M126.902 34.803L46.3226 117.613M158.295 145.994L46.3226 117.613M158.295 145.994L171.03 128.866M158.295 145.994L80.0583 207.752M147.854 45.0939L163.219 92.4425M163.219 92.4425L171.03 128.866M163.219 92.4425L51.7433 64.0565M163.219 92.4425L83.146 176.248M51.7433 64.0565L83.146 176.248" stroke="url(#paint0_linear)" stroke-opacity="0.8" stroke-width="2"/>
<defs>
<linearGradient id="paint0_linear" x1="104.495" y1="3.02564" x2="106.546" y2="208.015" gradientUnits="userSpaceOnUse">
<stop stop-color="#0DF0FF" stop-opacity="0"/>
<stop offset="1" stop-color="#0DF0FF"/>
</linearGradient>
</defs>
</svg>
