<svg viewBox="0 0 281 281" fill="none" xmlns="http://www.w3.org/2000/svg">
<path d="M116.037 37.5567L39.203 108.823M116.037 37.5567L218.258 68.2721M116.037 37.5567L127.072 67.9243M116.037 37.5567L150.409 67.4418M116.037 37.5567L73.7475 128.432M39.203 108.823L62.631 212.409M39.203 108.823L73.7475 128.432M39.203 108.823L127.072 67.9243M39.203 108.823L93.5326 178.495M62.631 212.409L163.332 244.496M62.631 212.409L73.7475 128.432M62.631 212.409L153.174 213.664M62.631 212.409L93.5326 178.495M163.332 244.496L93.5326 178.495M163.332 244.496L164.902 243.066M163.332 244.496L153.174 213.664M242.154 172.742L218.258 68.2721M242.154 172.742L206.03 152.272M242.154 172.742L209.475 131.209M242.154 172.742L153.174 213.664M242.154 172.742L164.902 243.066M218.258 68.2721L185.806 102.442M218.258 68.2721L150.409 67.4418M218.258 68.2721L209.475 131.209M127.072 67.9243L206.03 152.272M127.072 67.9243L150.409 67.4418M127.072 67.9243L93.5326 178.495M206.03 152.272L93.5326 178.495M206.03 152.272L209.475 131.209M206.03 152.272L164.902 243.066M150.409 67.4418L185.806 102.442M185.806 102.442L209.475 131.209M185.806 102.442L73.7475 128.432M185.806 102.442L153.174 213.664M73.7475 128.432L153.174 213.664" stroke="url(#paint0_linear)" stroke-opacity="0.8" stroke-width="2"/>
<defs>
<linearGradient id="paint0_linear" x1="92.5717" y1="49.9899" x2="188.551" y2="231.133" gradientUnits="userSpaceOnUse">
<stop stop-color="#0DF0FF" stop-opacity="0"/>
<stop offset="1" stop-color="#0DF0FF"/>
</linearGradient>
</defs>
</svg>
