<svg width="263" height="262" viewBox="0 0 263 262" fill="none" xmlns="http://www.w3.org/2000/svg">
<path d="M188.523 41.8021L83.1544 36.2761M188.523 41.8021L238.386 136.622M188.523 41.8021L174.441 70.8876M188.523 41.8021L191.218 87.3129M188.523 41.8021L93.3652 74.75M83.1544 36.2761L25.1166 125.281M83.1544 36.2761L93.3652 74.75M83.1544 36.2761L174.441 70.8876M83.1544 36.2761L71.2732 123.844M25.1166 125.281L72.923 219.965M25.1166 125.281L93.3652 74.75M25.1166 125.281L87.9563 191.186M25.1166 125.281L71.2732 123.844M72.923 219.965L71.2732 123.844M72.923 219.965L75.0575 220.097M72.923 219.965L87.9563 191.186M180.042 226.579L238.386 136.622M180.042 226.579L169.339 186.371M180.042 226.579L186.919 174.168M180.042 226.579L87.9563 191.186M180.042 226.579L75.0575 220.097M238.386 136.622L190.955 137.124M238.386 136.622L191.218 87.3129M238.386 136.622L186.919 174.168M174.441 70.8876L169.339 186.371M174.441 70.8876L191.218 87.3129M174.441 70.8876L71.2732 123.844M169.339 186.371L71.2732 123.844M169.339 186.371L186.919 174.168M169.339 186.371L75.0575 220.097M191.218 87.3129L190.955 137.124M190.955 137.124L186.919 174.168M190.955 137.124L93.3652 74.75M190.955 137.124L87.9563 191.186M93.3652 74.75L87.9563 191.186" stroke="url(#paint0_linear)" stroke-opacity="0.8" stroke-width="2"/>
<defs>
<linearGradient id="paint0_linear" x1="163.057" y1="33.6121" x2="100.292" y2="228.767" gradientUnits="userSpaceOnUse">
<stop stop-color="#E40570" stop-opacity="0"/>
<stop offset="1" stop-color="#E40570"/>
</linearGradient>
</defs>
</svg>
