<svg width="294" height="294" viewBox="0 0 294 294" fill="none" xmlns="http://www.w3.org/2000/svg">
<path d="M85.7228 60.5232L40.6878 155.942M85.7228 60.5232L192.366 50.3017M85.7228 60.5232L107.305 84.5744M85.7228 60.5232L128.862 75.2714M85.7228 60.5232L80.162 161.07M40.6878 155.942L101.068 243.375M40.6878 155.942L80.162 161.07M40.6878 155.942L107.305 84.5744M40.6878 155.942L117.226 200.115M101.068 243.375L206.806 235.005M101.068 243.375L80.162 161.07M101.068 243.375L185.868 210.189M101.068 243.375L117.226 200.115M206.806 235.005L117.226 200.115M206.806 235.005L207.737 233.08M206.806 235.005L185.868 210.189M253.512 138.378L192.366 50.3017M253.512 138.378L212.246 133.05M253.512 138.378L207.613 112.157M253.512 138.378L185.868 210.189M253.512 138.378L207.737 233.08M192.366 50.3017L174.86 94.3874M192.366 50.3017L128.862 75.2714M192.366 50.3017L207.613 112.157M107.305 84.5744L212.246 133.05M107.305 84.5744L128.862 75.2714M107.305 84.5744L117.226 200.115M212.246 133.05L117.226 200.115M212.246 133.05L207.613 112.157M212.246 133.05L207.737 233.08M128.862 75.2714L174.86 94.3874M174.86 94.3874L207.613 112.157M174.86 94.3874L80.162 161.07M174.86 94.3874L185.868 210.189M80.162 161.07L185.868 210.189" stroke="url(#paint0_linear)" stroke-opacity="0.8" stroke-width="2"/>
<defs>
<linearGradient id="paint0_linear" x1="68.4952" y1="80.9871" x2="225.322" y2="213.012" gradientUnits="userSpaceOnUse">
<stop stop-color="#E40570" stop-opacity="0"/>
<stop offset="1" stop-color="#E40570"/>
</linearGradient>
</defs>
</svg>
